<?xml version="1.0" encoding="UTF-8"?>
<svg xmlns="http://www.w3.org/2000/svg" xmlns:xlink="http://www.w3.org/1999/xlink" viewBox="0 0 216.22 128.04">
  <defs>
    <style>
      .cls-1 {
        clip-path: url(#clippath);
      }

      .cls-2 {
        fill: none;
      }

      .cls-2, .cls-3, .cls-4, .cls-5, .cls-6, .cls-7, .cls-8, .cls-9, .cls-10, .cls-11 {
        stroke-width: 0px;
      }

      .cls-12 {
        opacity: .1;
      }

      .cls-3 {
        opacity: .8;
      }

      .cls-3, .cls-8 {
        fill: #c4d600;
      }

      .cls-4 {
        fill: url(#linear-gradient);
        mix-blend-mode: multiply;
      }

      .cls-5 {
        fill: url(#linear-gradient-2);
        mix-blend-mode: screen;
      }

      .cls-13 {
        clip-path: url(#clippath-1);
      }

      .cls-14 {
        clip-path: url(#clippath-2);
      }

      .cls-15 {
        isolation: isolate;
      }

      .cls-6 {
        fill: #4c4c4c;
      }

      .cls-7 {
        fill: #1a2e35;
      }

      .cls-9 {
        fill: #ccc;
      }

      .cls-10 {
        fill: #af0;
      }

      .cls-11 {
        fill: #fff;
      }
    </style>
    <clipPath id="clippath">
      <path class="cls-2" d="m32.96,85.28l1.09-6.27,30.69-35.14h10.06l-5.98,34.19h6.78l-1.31,7.22h-6.78l-1.97,11.08h-8.17l1.97-11.08h-26.39Zm32.59-32.95l-21.73,25.74h17.21l4.52-25.74Z"/>
    </clipPath>
    <linearGradient id="linear-gradient" x1="-210.02" y1="517.7" x2="-271.4" y2="586.63" gradientTransform="translate(334 -488.03)" gradientUnits="userSpaceOnUse">
      <stop offset=".08" stop-color="#c4d600"/>
      <stop offset="1" stop-color="#ffb700"/>
    </linearGradient>
    <linearGradient id="linear-gradient-2" x1="-239.79" y1="562" x2="-189.55" y2="466.24" gradientTransform="translate(334 -488.03)" gradientUnits="userSpaceOnUse">
      <stop offset=".08" stop-color="#c4d600"/>
      <stop offset="1" stop-color="#007934"/>
    </linearGradient>
    <clipPath id="clippath-1">
      <path class="cls-2" d="m98.9,50.29c3.67-4.71,8.98-7.07,15.93-7.07,5.39,0,9.28,1.47,11.66,4.41,2.38,2.94,3.57,7.04,3.57,12.28,0,2.82-.32,6.08-.95,9.77-1.46,8.26-4.02,14.75-7.69,19.46-3.67,4.71-8.98,7.07-15.93,7.07-5.4,0-9.28-1.47-11.67-4.41-2.38-2.94-3.57-7.06-3.57-12.36,0-2.72.32-5.98.95-9.77,1.46-8.21,4.02-14.68,7.69-19.39Zm23,10.35c0-3.11-.63-5.53-1.89-7.25-1.27-1.72-3.43-2.59-6.49-2.59s-5.53.85-7.4,2.55c-1.87,1.7-3.29,3.89-4.27,6.56-.97,2.67-1.8,5.93-2.48,9.77-.68,3.74-1.02,6.76-1.02,9.04,0,3.16.63,5.6,1.9,7.33,1.26,1.73,3.45,2.59,6.56,2.59s5.53-.85,7.4-2.55,3.29-3.89,4.27-6.56c.97-2.67,1.8-5.95,2.48-9.84.63-3.89.95-6.9.95-9.04Z"/>
    </clipPath>
    <clipPath id="clippath-2">
      <path class="cls-2" d="m154.49,45.77c3.65-2.53,7.95-3.79,12.9-3.79,4.52,0,7.99,1.05,10.42,3.13,2.43,2.09,3.65,4.81,3.65,8.17,0,.83-.07,1.68-.22,2.55-.54,3.01-1.78,5.59-3.72,7.73-1.95,2.14-4.13,3.57-6.56,4.3v.29c2.23.73,3.96,1.96,5.18,3.68,1.21,1.73,1.82,3.93,1.82,6.6,0,1.22-.1,2.33-.29,3.35-.78,4.37-2.91,7.95-6.38,10.72-3.48,2.77-7.91,4.16-13.31,4.16-4.76,0-8.58-1.13-11.45-3.39-2.87-2.26-4.3-5.5-4.3-9.73,0-1.12.05-1.97.15-2.55h8.02c-.05.24-.07.61-.07,1.09,0,2.29.75,4.13,2.26,5.54,1.51,1.41,3.67,2.11,6.49,2.11,3.01,0,5.47-.81,7.36-2.44,1.9-1.63,3.06-3.73,3.5-6.31.15-.83.22-1.55.22-2.19,0-2.58-.97-4.42-2.92-5.54-1.94-1.12-4.91-1.68-8.89-1.68h-1.9l1.24-6.85h1.97c3.94-.05,7.05-.7,9.33-1.97,2.28-1.26,3.67-3.25,4.16-5.98.1-.78.15-1.34.15-1.68,0-1.85-.63-3.3-1.9-4.37-1.26-1.07-3.11-1.6-5.54-1.6-2.72,0-4.97.69-6.74,2.08-1.77,1.38-2.98,3.1-3.61,5.14h-8.09c1.07-4.52,3.43-8.04,7.07-10.57Z"/>
    </clipPath>
  </defs>
  <g class="cls-15">
    <g id="Layer_1" data-name="Layer 1">
      <g class="cls-12">
        <path class="cls-8" d="m2.67,48.81C7.7,25.99,25.18,7.98,48.99,1.95,55.25.36,61.9-.44,68.53.24c27.07,2.79,59.37,21.01,76.13,24.83,16.76,3.82,36.41-11.46,58.69,12,22.28,23.46,17.14,77.75-27.42,88.39-44.56,10.64-69.36-15.55-89.15-9.82-19.79,5.73-55.23,3.27-76.15-13.64C-1.79,91.97-1.69,68.61,2.67,48.81Z"/>
        <path class="cls-3" d="m2.67,48.81C7.7,25.99,25.18,7.98,48.99,1.95,55.25.36,61.9-.44,68.53.24c27.07,2.79,59.37,21.01,76.13,24.83,16.76,3.82,36.41-11.46,58.69,12,22.28,23.46,17.14,77.75-27.42,88.39-44.56,10.64-69.36-15.55-89.15-9.82-19.79,5.73-55.23,3.27-76.15-13.64C-1.79,91.97-1.69,68.61,2.67,48.81Z"/>
      </g>
      <g class="cls-1">
        <g>
          <g>
            <rect class="cls-4" x="1.85" y="-18.01" width="212.51" height="131" transform="translate(216.22 94.97) rotate(180)"/>
            <rect class="cls-5" x="1.85" y="-18.01" width="212.51" height="131" transform="translate(216.22 94.97) rotate(180)"/>
          </g>
          <g>
            <rect class="cls-4" x="1.85" y="-18.01" width="212.51" height="131" transform="translate(216.22 94.97) rotate(180)"/>
            <rect class="cls-5" x="1.85" y="-18.01" width="212.51" height="131" transform="translate(216.22 94.97) rotate(180)"/>
          </g>
          <g>
            <rect class="cls-4" x="1.85" y="-18.01" width="212.51" height="131" transform="translate(216.22 94.97) rotate(180)"/>
            <rect class="cls-5" x="1.85" y="-18.01" width="212.51" height="131" transform="translate(216.22 94.97) rotate(180)"/>
          </g>
        </g>
      </g>
      <g class="cls-13">
        <g>
          <g>
            <rect class="cls-4" x="1.85" y="-18.01" width="212.51" height="131" transform="translate(216.22 94.97) rotate(180)"/>
            <rect class="cls-5" x="1.85" y="-18.01" width="212.51" height="131" transform="translate(216.22 94.97) rotate(180)"/>
          </g>
          <g>
            <rect class="cls-4" x="1.85" y="-18.01" width="212.51" height="131" transform="translate(216.22 94.97) rotate(180)"/>
            <rect class="cls-5" x="1.85" y="-18.01" width="212.51" height="131" transform="translate(216.22 94.97) rotate(180)"/>
          </g>
          <g>
            <rect class="cls-4" x="1.85" y="-18.01" width="212.51" height="131" transform="translate(216.22 94.97) rotate(180)"/>
            <rect class="cls-5" x="1.85" y="-18.01" width="212.51" height="131" transform="translate(216.22 94.97) rotate(180)"/>
          </g>
        </g>
      </g>
      <g class="cls-14">
        <g>
          <g>
            <rect class="cls-4" x="1.85" y="-18.01" width="212.51" height="131" transform="translate(216.22 94.97) rotate(180)"/>
            <rect class="cls-5" x="1.85" y="-18.01" width="212.51" height="131" transform="translate(216.22 94.97) rotate(180)"/>
          </g>
          <g>
            <rect class="cls-4" x="1.85" y="-18.01" width="212.51" height="131" transform="translate(216.22 94.97) rotate(180)"/>
            <rect class="cls-5" x="1.85" y="-18.01" width="212.51" height="131" transform="translate(216.22 94.97) rotate(180)"/>
          </g>
          <g>
            <rect class="cls-4" x="1.85" y="-18.01" width="212.51" height="131" transform="translate(216.22 94.97) rotate(180)"/>
            <rect class="cls-5" x="1.85" y="-18.01" width="212.51" height="131" transform="translate(216.22 94.97) rotate(180)"/>
          </g>
        </g>
      </g>
      <g>
        <path class="cls-7" d="m102.66,45.72h-3.19c-.08,0-.14-.06-.14-.14v-6.11c0-4.25-3.53-7.71-7.87-7.71s-7.87,3.46-7.87,7.71v6.11c0,.08-.06.14-.14.14h-3.19c-.08,0-.14-.06-.14-.14v-6.11c0-6.13,5.09-11.11,11.35-11.11s11.35,4.98,11.35,11.11v6.11c0,.08-.06.14-.14.14Zm-3.06-.28h2.92v-5.97c0-5.97-4.97-10.83-11.07-10.83s-11.07,4.86-11.07,10.83v5.97h2.92v-5.97c0-4.4,3.66-7.98,8.15-7.98s8.15,3.58,8.15,7.98v5.97Z"/>
        <path class="cls-7" d="m103.52,66h-24.47c-.08,0-.14-.06-.14-.14v-20.24c0-.08.06-.14.14-.14h24.47c.08,0,.14.06.14.14v20.24c0,.08-.06.14-.14.14Zm-24.33-.28h24.19v-19.97h-24.19v19.97Z"/>
        <path class="cls-7" d="m92.88,61.06h-3.43s-.08-.02-.1-.05c-.03-.03-.04-.07-.04-.11l.44-4.51c-.86-.49-1.39-1.39-1.39-2.37,0-1.51,1.26-2.75,2.8-2.75s2.8,1.23,2.8,2.75c0,.98-.53,1.88-1.39,2.37l.44,4.51s0,.08-.04.11c-.03.03-.06.05-.1.05Zm-3.27-.28h3.12l-.43-4.45c0-.06.02-.11.07-.14.82-.43,1.33-1.27,1.33-2.17,0-1.36-1.13-2.47-2.53-2.47s-2.53,1.11-2.53,2.47c0,.91.51,1.74,1.33,2.17.05.03.08.08.07.14l-.43,4.45Z"/>
      </g>
      <g>
        <g>
          <g>
            <polygon class="cls-7" points="118.26 72.07 112.96 71.72 112.96 71.63 112.31 71.67 111.66 71.63 111.66 71.72 106.36 72.07 102.45 104.2 106.36 104.2 112.18 78.58 112.44 78.58 118.26 104.2 122.17 104.2 118.26 72.07"/>
            <path class="cls-7" d="m122.17,104.32h-3.91c-.06,0-.1-.04-.12-.09l-5.8-25.53h-.07l-5.8,25.53c-.01.05-.06.09-.12.09h-3.91s-.07-.01-.09-.04-.03-.06-.03-.09l3.91-32.14c0-.06.05-.1.11-.11l5.19-.34s.02-.04.04-.06c.02-.02.06-.03.09-.03l.65.04.64-.04s.07,0,.09.03c.02.02.03.04.04.06l5.19.34c.06,0,.1.05.11.11l3.91,32.14s0,.07-.03.09-.06.04-.09.04Zm-3.81-.24h3.68l-3.88-31.9-5.2-.34s-.09-.03-.1-.08l-.53.04-.55-.04s-.06.07-.1.08l-5.2.34-3.88,31.9h3.68l5.8-25.53c.01-.05.06-.09.12-.09h.26c.06,0,.1.04.12.09l5.8,25.53Z"/>
          </g>
          <g>
            <g>
              <path class="cls-6" d="m102.45,104.2l-.96,1.48-2.95,1.3s-.52.26-.52.87v1.13h8.42s.09-.96,0-1.82c-.09-.87-.09-2.95-.09-2.95h-3.91Z"/>
              <path class="cls-7" d="m106.44,109.1h-8.42c-.07,0-.12-.05-.12-.12v-1.13c0-.67.56-.96.59-.98l2.93-1.29.94-1.45s.06-.05.1-.05h3.91c.07,0,.12.05.12.12,0,.02,0,2.09.09,2.94.09.87,0,1.81,0,1.85,0,.06-.06.11-.12.11Zm-8.3-.24h8.19c.02-.27.06-1.01,0-1.69-.08-.75-.09-2.38-.09-2.84h-3.72l-.92,1.42s-.03.04-.05.04l-2.95,1.3s-.45.24-.45.76v1.01Zm3.35-3.18h0,0Z"/>
            </g>
            <g>
              <path class="cls-7" d="m98.02,108.02v.96h8.42s.04-.42.04-.96h-8.46Z"/>
              <path class="cls-7" d="m106.44,109.1h-8.42c-.07,0-.12-.05-.12-.12v-.96c0-.07.05-.12.12-.12h8.46s.06.01.09.04.04.05.04.09c0,.53-.04.95-.04.97,0,.06-.06.11-.12.11Zm-8.3-.24h8.19c0-.14.03-.4.03-.71h-8.22v.71Z"/>
            </g>
          </g>
          <g>
            <g>
              <path class="cls-6" d="m122.15,104.2l.96,1.48,2.95,1.3s.52.26.52.87v1.13h-8.42s-.09-.96,0-1.82c.09-.87.09-2.95.09-2.95h3.91Z"/>
              <path class="cls-7" d="m126.58,109.1h-8.42c-.06,0-.11-.05-.12-.11,0-.04-.09-.98,0-1.85.09-.85.09-2.92.09-2.94,0-.07.05-.12.12-.12h3.91s.08.02.1.05l.94,1.45,2.92,1.29s.59.3.59.98v1.13c0,.07-.05.12-.12.12Zm-8.31-.24h8.19v-1.01c0-.52-.44-.75-.46-.76l-2.95-1.3s-.04-.02-.05-.04l-.92-1.42h-3.72c0,.46-.01,2.09-.09,2.84-.07.68-.03,1.42,0,1.69Z"/>
            </g>
            <g>
              <path class="cls-7" d="m126.58,108.02v.96h-8.42s-.04-.42-.04-.96h8.46Z"/>
              <path class="cls-7" d="m126.58,109.1h-8.42c-.06,0-.11-.05-.12-.11,0-.02-.04-.43-.04-.97,0-.03.01-.06.04-.09s.05-.04.09-.04h8.46c.07,0,.12.05.12.12v.96c0,.07-.05.12-.12.12Zm-8.31-.24h8.19v-.71h-8.22c0,.31.02.57.03.71Z"/>
            </g>
          </g>
          <g>
            <path class="cls-10" d="m104.11,57.12s-6.18,8.7-6.18,9.33.98,5.56,2.55,6.02c1.56.46,2.43-.35,2.72-1.97.29-1.62-.69-3.94-.69-3.94l2.9-2.61-1.29-6.84Z"/>
            <path class="cls-7" d="m101.29,72.72c-.26,0-.54-.04-.84-.13-1.7-.5-2.63-5.63-2.63-6.14,0-.64,5.17-7.95,6.2-9.4.03-.04.08-.06.12-.05.05.01.08.05.09.1l1.29,6.84s0,.08-.04.11l-2.83,2.55c.17.43.94,2.44.67,3.93-.17.95-.53,1.61-1.07,1.94-.28.17-.6.26-.96.26Zm2.76-15.3c-2.37,3.35-5.97,8.58-5.99,9.03,0,.64,1,5.47,2.46,5.91.65.19,1.19.16,1.61-.1.48-.3.81-.9.96-1.78.28-1.57-.68-3.85-.69-3.87-.02-.05,0-.1.03-.14l2.84-2.56-1.22-6.5Z"/>
          </g>
          <g>
            <path class="cls-9" d="m102.91,70.27s1.8-.29,2.26-.17c.46.12.81,1.22.81,1.22,0,0,.17,1.62-.12,1.97-.29.35-1.68.75-2.26.87-.58.12-1.8-1.22-2.26-2.03-.46-.81.35-2.2,1.56-1.85Z"/>
            <path class="cls-7" d="m103.54,74.28c-.68,0-1.85-1.32-2.29-2.09-.25-.45-.18-1.06.19-1.53.37-.47.92-.65,1.48-.5.23-.04,1.82-.28,2.28-.17.51.13.86,1.18.9,1.3,0,0,0,.02,0,.02.02.17.17,1.68-.14,2.06-.34.4-1.84.81-2.33.91-.03,0-.06,0-.09,0Zm-1.01-3.94c-.48,0-.78.31-.91.46-.3.39-.38.91-.17,1.27.46.81,1.65,2.06,2.13,1.97.61-.12,1.94-.52,2.19-.83.19-.22.15-1.26.09-1.87-.13-.4-.43-1.05-.72-1.12-.36-.09-1.72.1-2.21.18-.02,0-.04,0-.05,0-.13-.04-.24-.05-.35-.05Z"/>
          </g>
          <g>
            <polygon class="cls-10" points="105.42 56.72 104.11 57.12 106.16 70.8 118.35 70.8 120.2 57.19 118.55 56.56 112.44 55.22 105.42 56.72"/>
            <path class="cls-7" d="m118.35,70.92h-12.19c-.06,0-.11-.04-.12-.1l-2.05-13.69c0-.06.03-.12.08-.13l1.3-.39s0,0,0,0l7.02-1.5s.03,0,.05,0l6.11,1.34,1.67.64c.05.02.08.07.08.13l-1.85,13.61c0,.06-.06.1-.12.1Zm-12.08-.24h11.98l1.83-13.41-1.57-.6-6.07-1.33-6.99,1.49-1.2.36,2.02,13.48Z"/>
          </g>
          <g>
            <g>
              <polygon class="cls-7" points="119.02 61.3 118.75 63.27 116.62 63.78 114.45 62.91 114.6 61.14 119.02 61.3"/>
              <path class="cls-7" d="m116.62,63.9s-.03,0-.04,0l-2.17-.87s-.08-.07-.08-.12l.16-1.77c0-.06.06-.11.12-.11l4.42.16s.07.02.09.04c.02.03.03.06.03.09l-.28,1.97s-.04.09-.09.1l-2.13.51s-.02,0-.03,0Zm-2.04-1.07l2.05.82,2.01-.48.25-1.76-4.17-.15-.14,1.57Z"/>
            </g>
            <g>
              <path class="cls-6" d="m116.38,62.89c0-.21.17-.37.37-.37s.37.17.37.37-.17.37-.37.37-.37-.17-.37-.37Z"/>
              <path class="cls-7" d="m116.75,63.39c-.27,0-.49-.22-.49-.49s.22-.49.49-.49.49.22.49.49-.22.49-.49.49Zm0-.75c-.14,0-.25.11-.25.25s.11.25.25.25.25-.11.25-.25-.11-.25-.25-.25Z"/>
            </g>
          </g>
          <g>
            <polygon class="cls-7" points="111.13 57.75 112.28 59.09 110.82 68.4 112.36 70.84 114.17 68.28 112.63 59.13 113.93 57.87 112.55 56.09 111.13 57.75"/>
            <path class="cls-7" d="m112.36,70.96h0s-.08-.02-.1-.06l-1.54-2.45s-.02-.05-.02-.08l1.45-9.25-1.11-1.3s-.04-.11,0-.16l1.42-1.66s.06-.04.09-.04c.04,0,.07.02.09.05l1.38,1.77s.03.12-.01.16l-1.26,1.22,1.53,9.09s0,.06-.02.09l-1.81,2.56s-.06.05-.1.05Zm-1.41-2.59l1.42,2.25,1.68-2.38-1.53-9.1s0-.08.03-.11l1.22-1.19-1.22-1.57-1.26,1.47,1.08,1.26s.03.06.03.1l-1.45,9.26Z"/>
          </g>
          <g>
            <polygon class="cls-7" points="110.03 55.42 104.78 56.72 104.94 57.35 110.07 55.93 110.03 55.42"/>
            <path class="cls-7" d="m104.94,57.47s-.04,0-.06-.02c-.03-.02-.05-.04-.06-.07l-.16-.63s0-.06.01-.09c.02-.03.04-.05.07-.05l5.25-1.3s.07,0,.1.02c.03.02.05.05.05.09l.04.51c0,.06-.03.11-.09.13l-5.13,1.42s-.02,0-.03,0Zm-.01-.66l.1.39,4.91-1.36-.02-.27-4.99,1.24Z"/>
          </g>
          <g>
            <polygon class="cls-7" points="114.33 55.26 119.57 56.56 119.42 57.19 114.29 55.78 114.33 55.26"/>
            <path class="cls-7" d="m119.42,57.32s-.02,0-.03,0l-5.13-1.42c-.06-.02-.09-.07-.09-.13l.04-.51s.02-.07.05-.09c.03-.02.07-.03.1-.02l5.25,1.3s.06.03.07.05c.02.03.02.06.01.09l-.16.63s-.03.06-.06.07c-.02.01-.04.02-.06.02Zm-5-1.63l4.91,1.36.1-.39-4.99-1.24-.02.27Z"/>
          </g>
          <g>
            <path class="cls-10" d="m119.57,56.56s1.98.45,3.2,1.14c1.22.69,1.51,2.26.81,4-.69,1.74-2.84,1.51-3.82,1.04-.98-.46-1.27-2.2-1.1-2.95"/>
            <path class="cls-7" d="m121.33,63.2c-.61,0-1.2-.15-1.62-.34-1.05-.49-1.35-2.28-1.17-3.09.02-.07.08-.1.14-.09.06.01.11.08.09.14-.17.74.14,2.4,1.03,2.82.64.3,1.71.47,2.54.14.53-.21.9-.58,1.12-1.12.69-1.71.39-3.19-.76-3.85-1.19-.68-3.15-1.12-3.17-1.13-.06-.01-.11-.08-.09-.14.01-.07.08-.11.14-.09.08.02,2.02.46,3.23,1.16,1.25.71,1.58,2.34.86,4.14-.24.6-.66,1.02-1.25,1.26-.35.14-.73.19-1.11.19Z"/>
          </g>
          <g>
            <polygon class="cls-10" points="110.27 54.75 109.67 55.14 109.83 59.13 112.4 57.31 115.08 59.17 115.31 55.22 114.6 54.63 110.27 54.75"/>
            <path class="cls-7" d="m115.08,59.29s-.05,0-.07-.02l-2.61-1.81-2.49,1.77s-.08.03-.12,0c-.04-.02-.07-.06-.07-.1l-.16-3.98s.02-.08.05-.1l.59-.39s.04-.02.06-.02l4.34-.12s.06,0,.08.03l.71.59s.05.06.04.1l-.24,3.94s-.03.08-.07.1c-.02,0-.03.01-.05.01Zm-2.68-2.09s.05,0,.07.02l2.51,1.73.22-3.67-.63-.52-4.26.12-.51.34.15,3.69,2.38-1.69s.05-.02.07-.02Z"/>
          </g>
          <g>
            <g>
              <path class="cls-7" d="m115.45,50.01s1.46-.35,1.73-1.81c.28-1.46-2.36-3.23-4.17-3.54-1.81-.31-4.49,1.57-4.92,2.87-.43,1.3,1.26,2.6,3.07,2.87,1.81.28,4.29-.39,4.29-.39Z"/>
              <path class="cls-7" d="m112.13,50.59c-.34,0-.68-.02-1-.07-1.28-.19-2.47-.88-2.98-1.71-.27-.44-.33-.89-.19-1.32.43-1.3,3.14-3.29,5.06-2.95,1.42.25,3.17,1.31,3.9,2.37.32.47.45.91.37,1.32-.28,1.49-1.75,1.89-1.82,1.9-.09.02-1.75.47-3.34.47Zm.45-5.85c-1.74,0-4.01,1.72-4.38,2.83-.12.37-.07.74.17,1.12.47.77,1.6,1.41,2.81,1.59,1.77.27,4.22-.38,4.24-.39,0,0,0,0,0,0,.06-.01,1.39-.36,1.64-1.72.07-.34-.05-.73-.33-1.14-.7-1.01-2.38-2.03-3.74-2.27-.13-.02-.26-.03-.4-.03Z"/>
            </g>
            <g>
              <path class="cls-9" d="m110.01,50.25s-.79-1.22-.98-.16c-.2,1.06.63,1.54.98,1.5.35-.04,0-1.34,0-1.34Z"/>
              <path class="cls-7" d="m109.97,51.71c-.2,0-.5-.11-.74-.37-.3-.32-.41-.77-.32-1.27.06-.31.18-.49.36-.53.36-.07.77.52.85.64,0,.01.01.02.01.03.05.18.28,1.08.08,1.38-.04.07-.11.1-.18.11-.02,0-.03,0-.05,0Zm-.64-1.93s-.01,0-.02,0c-.07.01-.13.14-.17.33-.1.54.09.88.26,1.06.2.21.45.31.59.29.1-.14.03-.71-.1-1.17-.15-.22-.41-.52-.57-.52Z"/>
            </g>
            <g>
              <path class="cls-9" d="m115.13,50.25s.79-1.22.98-.16c.2,1.06-.63,1.54-.98,1.5-.35-.04,0-1.34,0-1.34Z"/>
              <path class="cls-7" d="m115.17,51.71s-.04,0-.05,0c-.08,0-.14-.05-.18-.11-.2-.29.03-1.2.08-1.38,0-.01,0-.02.01-.03.08-.12.48-.71.85-.64.18.04.3.21.36.53.09.5-.02.95-.32,1.27-.24.26-.54.37-.74.37Zm.07-1.41c-.12.46-.2,1.03-.11,1.16.15.03.41-.07.6-.28.17-.19.36-.52.26-1.06-.04-.2-.1-.32-.17-.33-.15-.03-.43.29-.59.52Z"/>
            </g>
            <g>
              <polygon class="cls-9" points="110.19 52.66 110.19 55.26 112.4 57.31 114.88 55.18 114.88 52.74 110.19 52.66"/>
              <path class="cls-7" d="m112.4,57.43s-.06-.01-.08-.03l-2.21-2.05s-.04-.05-.04-.09v-2.6s.01-.06.04-.09c.02-.02.06-.03.09-.03l4.69.08c.07,0,.12.05.12.12v2.45s-.02.07-.04.09l-2.48,2.13s-.05.03-.08.03Zm-2.09-2.22l2.09,1.94,2.36-2.02v-2.27l-4.45-.07v2.43Z"/>
            </g>
            <g>
              <g>
                <path class="cls-9" d="m109.86,49.46s-.12,2.44.08,3.23,1.5,2.44,2.52,2.79c1.02.35,2.44-1.77,2.76-2.48.31-.71.2-3.7.2-3.7,0,0-.43-1.02-1.3-1.34-.87-.31-3.54-.87-4.25,1.5Z"/>
                <path class="cls-7" d="m112.7,55.64c-.09,0-.19-.01-.28-.05-1.06-.37-2.39-2.06-2.6-2.88-.2-.8-.09-3.16-.08-3.26,0,0,0-.02,0-.03.22-.73.64-1.26,1.25-1.56,1.3-.65,2.97-.08,3.16-.01.9.33,1.35,1.36,1.37,1.4,0,.01,0,.03,0,.04,0,.12.12,3.03-.21,3.75-.27.6-1.53,2.59-2.63,2.59Zm-2.72-6.16c0,.2-.11,2.45.08,3.18.19.75,1.46,2.37,2.44,2.71.86.3,2.24-1.58,2.61-2.42.29-.64.2-3.34.19-3.62-.06-.14-.48-.98-1.22-1.25-.64-.23-1.98-.49-2.97,0-.54.27-.92.75-1.12,1.4Z"/>
              </g>
              <g>
                <path class="cls-7" d="m111.5,50.76c0,.19-.09.34-.19.34s-.19-.15-.19-.34.09-.34.19-.34.19.15.19.34Z"/>
                <path class="cls-7" d="m113.91,50.76c0,.19-.09.34-.19.34s-.19-.15-.19-.34.09-.34.19-.34.19.15.19.34Z"/>
                <g>
                  <path class="cls-9" d="m111.91,51.7c-.18,0-.32.12-.32.26s.14.26.32.26c.09,0,.17-.03.23-.08.1.14.29.23.5.23s.39-.09.49-.22c.06.04.13.06.2.06.18,0,.32-.12.32-.26s-.14-.26-.32-.26"/>
                  <path class="cls-7" d="m112.64,52.49c-.2,0-.39-.07-.53-.2-.06.03-.13.04-.2.04-.24,0-.44-.17-.44-.38s.2-.38.44-.38c.07,0,.12.05.12.12s-.05.12-.12.12c-.11,0-.2.06-.2.14s.09.14.2.14c.06,0,.11-.02.15-.05.03-.02.06-.03.09-.03.03,0,.06.02.08.05.08.11.24.18.41.18s.31-.06.4-.17c.04-.05.11-.06.16-.02.03.02.07.04.14.04.11,0,.2-.06.2-.14s-.09-.14-.2-.14c-.07,0-.12-.05-.12-.12s.05-.12.12-.12c.24,0,.44.17.44.38s-.2.38-.44.38c-.06,0-.12-.01-.18-.03-.13.12-.32.19-.52.19Z"/>
                </g>
                <path class="cls-7" d="m113.04,53.43h-.82c-.07,0-.12-.05-.12-.12s.05-.12.12-.12h.82c.07,0,.12.05.12.12s-.05.12-.12.12Z"/>
              </g>
            </g>
            <g>
              <path class="cls-7" d="m109.77,50.05s.03.79.29.59c.26-.2.35-1.55.12-1.73-.23-.18-.41.73-.41,1.14Z"/>
              <path class="cls-7" d="m109.98,50.79s-.07,0-.09-.02c-.2-.09-.24-.53-.24-.72h0c0-.23.09-1.12.38-1.27.07-.04.16-.03.22.02.12.09.18.32.18.69,0,.4-.07,1.05-.3,1.23-.06.05-.11.06-.16.06Zm-.09-.74c0,.21.05.43.1.49.1-.1.2-.51.21-.97,0-.33-.04-.5-.08-.55-.1.11-.23.64-.23,1.03Z"/>
            </g>
            <g>
              <path class="cls-7" d="m114.85,50.05s.03.79.29.59c.26-.2.35-1.55.12-1.73-.23-.18-.41.73-.41,1.14Z"/>
              <path class="cls-7" d="m115.06,50.79s-.07,0-.09-.02c-.2-.09-.24-.53-.24-.72h0c0-.24.09-1.12.38-1.27.07-.04.16-.03.22.02.12.09.18.32.18.69,0,.4-.07,1.05-.3,1.22-.06.05-.11.06-.16.06Zm-.09-.74c0,.21.05.43.1.49.1-.1.2-.51.21-.97,0-.33-.04-.5-.08-.55-.1.11-.23.64-.23,1.03Z"/>
            </g>
            <g>
              <path class="cls-6" d="m109.77,49.41s.09.07.09.11c.38.21,1.26.59,2.68.66,1.22.07,2.26-.37,2.88-.71,0-.11,0-.17,0-.17-.04-.92-.72-1.54-1.57-1.77-.81-.23-1.74-.19-2.52.13-.41.16-.77.41-1.04.75-.09.12-.65.89-.5,1Z"/>
              <path class="cls-7" d="m112.78,50.31c-.09,0-.17,0-.26,0-1.43-.08-2.32-.46-2.73-.68-.03-.02-.05-.04-.06-.07,0-.01-.03-.03-.05-.04h0c-.25-.2.31-.94.48-1.17.27-.34.63-.61,1.09-.79.8-.32,1.75-.37,2.6-.13,1,.28,1.62.98,1.66,1.88v.17s-.02.09-.06.11c-.62.34-1.57.73-2.69.73Zm-2.83-.88c.4.21,1.25.56,2.59.63,1.13.06,2.11-.32,2.75-.66v-.09c-.03-.79-.59-1.42-1.48-1.66-.8-.22-1.7-.18-2.45.12-.42.17-.75.41-.99.72-.18.22-.49.71-.5.85.04.04.07.07.09.1Z"/>
            </g>
            <g>
              <path class="cls-6" d="m109.86,49.46s.98.28,2.68.2c1.69-.08,2.87-.2,2.87-.2,0,0-1.15,1.17-2.85,1.25-1.83.09-2.7-1.25-2.7-1.25Z"/>
              <path class="cls-7" d="m112.39,50.84c-1.76,0-2.6-1.25-2.63-1.31-.03-.04-.03-.1,0-.14.03-.04.08-.06.13-.04,0,0,.99.27,2.64.19,1.67-.08,2.85-.19,2.86-.2.05,0,.1.02.12.07.02.05.01.1-.02.14-.05.05-1.21,1.21-2.93,1.29-.06,0-.12,0-.18,0Zm-2.22-1.18c.35.37,1.15,1,2.38.94,1.15-.05,2.06-.64,2.49-.98-.48.04-1.38.11-2.5.16-1.13.05-1.94-.05-2.37-.13Z"/>
            </g>
          </g>
          <g>
            <g>
              <polygon class="cls-7" points="105.53 61.3 105.81 63.27 107.94 63.78 110.11 62.91 109.95 61.14 105.53 61.3"/>
              <path class="cls-7" d="m107.94,63.9s-.02,0-.03,0l-2.13-.51s-.08-.05-.09-.1l-.28-1.97s0-.07.03-.09c.02-.03.05-.04.09-.04l4.42-.16c.06,0,.12.05.12.11l.16,1.77c0,.05-.03.1-.08.12l-2.17.87s-.03,0-.04,0Zm-2.02-.73l2.01.48,2.05-.82-.14-1.57-4.17.15.25,1.76Z"/>
            </g>
            <g>
              <path class="cls-6" d="m108.18,62.89c0-.21-.17-.37-.37-.37s-.37.17-.37.37.17.37.37.37.37-.17.37-.37Z"/>
              <path class="cls-7" d="m107.8,63.39c-.27,0-.49-.22-.49-.49s.22-.49.49-.49.49.22.49.49-.22.49-.49.49Zm0-.75c-.14,0-.25.11-.25.25s.11.25.25.25.25-.11.25-.25-.11-.25-.25-.25Z"/>
            </g>
          </g>
          <g>
            <rect class="cls-6" x="105.98" y="70.68" width="12.51" height="1.97"/>
            <path class="cls-7" d="m118.49,72.77h-12.51c-.07,0-.12-.05-.12-.12v-1.97c0-.07.05-.12.12-.12h12.51c.07,0,.12.05.12.12v1.97c0,.07-.05.12-.12.12Zm-12.39-.24h12.27v-1.73h-12.27v1.73Z"/>
          </g>
          <g>
            <rect class="cls-6" x="105.11" y="70.79" width="3.82" height="2.43" rx="1.22" ry="1.22"/>
            <path class="cls-7" d="m108.38,73.34h-2.72c-.37,0-.67-.3-.67-.67v-1.33c0-.37.3-.67.67-.67h2.72c.37,0,.67.3.67.67v1.33c0,.37-.3.67-.67.67Zm-2.72-2.43c-.24,0-.43.19-.43.43v1.33c0,.24.19.43.43.43h2.72c.24,0,.43-.19.43-.43v-1.33c0-.24-.19-.43-.43-.43h-2.72Z"/>
          </g>
          <g>
            <rect class="cls-6" x="115.07" y="70.79" width="3.82" height="2.43" rx="1.22" ry="1.22"/>
            <path class="cls-7" d="m118.34,73.34h-2.72c-.37,0-.67-.3-.67-.67v-1.33c0-.37.3-.67.67-.67h2.72c.37,0,.67.3.67.67v1.33c0,.37-.3.67-.67.67Zm-2.72-2.43c-.24,0-.43.19-.43.43v1.33c0,.24.19.43.43.43h2.72c.24,0,.43-.19.43-.43v-1.33c0-.24-.19-.43-.43-.43h-2.72Z"/>
          </g>
          <g>
            <rect class="cls-11" x="111.08" y="70.79" width="2.72" height="1.74"/>
            <path class="cls-7" d="m113.8,72.65h-2.72c-.07,0-.12-.05-.12-.12v-1.74c0-.07.05-.12.12-.12h2.72c.07,0,.12.05.12.12v1.74c0,.07-.05.12-.12.12Zm-2.6-.24h2.48v-1.5h-2.48v1.5Z"/>
          </g>
          <path class="cls-7" d="m102.51,66.69s0,0,0,0c-.07,0-1.81-.13-2.47-1.28-.03-.06-.01-.13.04-.16.06-.03.13-.01.16.04.6,1.03,2.26,1.16,2.28,1.16.07,0,.12.06.11.13,0,.06-.06.11-.12.11Z"/>
          <g>
            <ellipse class="cls-10" cx="121.82" cy="58.46" rx="2.87" ry="3.01"/>
            <path class="cls-7" d="m121.82,61.59c-1.65,0-2.99-1.4-2.99-3.13s1.34-3.13,2.99-3.13,2.99,1.4,2.99,3.13-1.34,3.13-2.99,3.13Zm0-6.02c-1.51,0-2.75,1.3-2.75,2.89s1.23,2.89,2.75,2.89,2.75-1.3,2.75-2.89-1.23-2.89-2.75-2.89Z"/>
          </g>
          <g>
            <ellipse class="cls-10" cx="121.82" cy="56.93" rx="2.24" ry="2.01"/>
            <path class="cls-7" d="m121.82,59.07c-1.3,0-2.36-.96-2.36-2.13s1.06-2.13,2.36-2.13,2.36.96,2.36,2.13-1.06,2.13-2.36,2.13Zm0-4.02c-1.17,0-2.12.85-2.12,1.89s.95,1.89,2.12,1.89,2.12-.85,2.12-1.89-.95-1.89-2.12-1.89Z"/>
          </g>
          <g>
            <g>
              <ellipse class="cls-9" cx="121.82" cy="55.46" rx="2.24" ry="2.01"/>
              <path class="cls-7" d="m121.82,57.59c-1.3,0-2.36-.96-2.36-2.13s1.06-2.13,2.36-2.13,2.36.96,2.36,2.13-1.06,2.13-2.36,2.13Zm0-4.02c-1.17,0-2.12.85-2.12,1.89s.95,1.89,2.12,1.89,2.12-.85,2.12-1.89-.95-1.89-2.12-1.89Z"/>
            </g>
            <g>
              <g>
                <path class="cls-9" d="m118.21,51.12s.04,2.97.19,3.84c.15.87.76,2.02,1.6,2.02s1.64-.3,1.64-.3c0,0,.99.53,1.94.38.95-.15.8-1.48.8-2.05s-.11-4.87-.11-4.87c0,0,.08-.42-.3-.49-.38-.08-.57-.08-.57-.08v-.91s-.15-.3-.65-.3-.53.11-.53.11v-.84s-.41-.67-.95-.34c-.38.23-.38.61-.38.61l-.04.8s-.91-.34-.99.19c-.08.53-.23,3.8-.23,3.8,0,0-.11-1.03-.3-1.52-.19-.49-1.1-.49-1.1-.04Z"/>
                <path class="cls-7" d="m123.22,57.2c-.73,0-1.4-.31-1.59-.4-.19.07-.89.29-1.63.29-.93,0-1.56-1.24-1.72-2.12-.15-.87-.19-3.74-.19-3.86h0c0-.23.16-.4.43-.45.34-.06.77.08.91.44.05.12.09.28.13.44.05-1,.13-2.36.17-2.69.02-.14.09-.25.21-.32.23-.14.58-.07.79-.01l.03-.64s0-.45.44-.71c.51-.3.95.12,1.11.38.01.02.02.04.02.06v.64c.1-.03.24-.04.41-.04.56,0,.75.36.75.37,0,.02.01.04.01.05v.8c.1,0,.26.03.47.07.38.08.43.43.4.62,0,.25.11,4.31.11,4.86,0,.06,0,.13,0,.21.02.63.05,1.81-.9,1.96-.13.02-.25.03-.38.03Zm-1.58-.65s.04,0,.06.01c0,0,.97.51,1.86.37.68-.11.72-.91.7-1.72,0-.08,0-.15,0-.22,0-.56-.11-4.82-.11-4.86,0,0,0-.02,0-.02,0-.05.04-.31-.21-.35-.36-.07-.55-.07-.55-.07-.07,0-.12-.05-.12-.12v-.88c-.04-.06-.19-.22-.53-.22-.32,0-.41.05-.43.06-.03.04-.07.06-.12.05-.06,0-.1-.06-.1-.12v-.8c-.08-.11-.39-.5-.77-.28-.32.19-.32.5-.32.51l-.04.8s-.02.07-.05.09c-.03.02-.07.03-.11.01-.13-.05-.55-.16-.74-.05-.05.03-.08.08-.09.15-.07.52-.23,3.76-.23,3.79,0,.06-.05.11-.12.11-.06,0-.12-.04-.12-.11,0-.01-.11-1.02-.3-1.49-.09-.23-.4-.33-.64-.29-.09.02-.23.06-.23.21,0,.06.04,2.97.19,3.82.13.77.7,1.92,1.48,1.92s1.58-.29,1.59-.3c.01,0,.03,0,.04,0Zm.68-8.06h0Zm0,0h0Zm0,0h0s0,0,0,0Zm0,0s0,0,0,0c0,0,0,0,0,0Zm0,0h0s0,0,0,0Z"/>
              </g>
              <path class="cls-7" d="m120.91,52.3c-.07,0-.12-.05-.12-.12l-.08-3.5c0-.07.05-.12.12-.12.06,0,.12.05.12.12l.08,3.5c0,.07-.05.12-.12.12h0Z"/>
              <path class="cls-7" d="m122.24,52.34c-.07,0-.12-.05-.12-.12l-.04-3.77c0-.07.05-.12.12-.12h0c.07,0,.12.05.12.12l.04,3.77c0,.07-.05.12-.12.12h0Z"/>
              <path class="cls-7" d="m123.31,52.3h0c-.07,0-.12-.06-.12-.12l.08-2.62c0-.07.06-.11.12-.12.07,0,.12.06.12.12l-.08,2.62c0,.07-.06.12-.12.12Z"/>
              <path class="cls-7" d="m123.8,52.42h0l-3.46-.15c-.07,0-.12-.06-.12-.13s.05-.11.13-.12l3.46.15c.07,0,.12.06.12.13,0,.06-.06.12-.12.12Z"/>
            </g>
            <path class="cls-7" d="m121.31,55.37c-.06,0-.11-.05-.12-.11-.08-.88-.82-1.47-1.26-1.74-.43-.27-.43-.82-.43-.84,0-.07.05-.12.12-.12.07,0,.12.05.12.12,0,0,0,.44.32.64.47.29,1.28.94,1.37,1.92,0,.07-.04.12-.11.13,0,0,0,0-.01,0Z"/>
          </g>
        </g>
        <g>
          <g>
            <g>
              <polygon class="cls-7" points="88.19 108.89 85.25 108.89 89.17 81.55 92.11 81.55 88.19 108.89"/>
              <path class="cls-7" d="m88.29,109.01h-3.18l3.96-27.58h3.18l-3.96,27.58Zm-2.91-.24h2.7l3.89-27.09h-2.7l-3.89,27.09Z"/>
            </g>
            <g>
              <polygon class="cls-11" points="94.07 108.89 97.01 108.89 93.09 81.55 90.15 81.55 94.07 108.89"/>
              <path class="cls-7" d="m97.15,109.01h-3.18l-3.96-27.58h3.18l3.96,27.58Zm-2.98-.24h2.7l-3.89-27.09h-2.7l3.89,27.09Z"/>
            </g>
          </g>
          <g>
            <polygon class="cls-7" points="129.92 108.89 126.98 108.89 130.9 81.55 133.84 81.55 129.92 108.89"/>
            <path class="cls-7" d="m130.03,109.01h-3.18l3.96-27.58h3.18l-3.96,27.58Zm-2.91-.24h2.7l3.89-27.09h-2.7l-3.89,27.09Z"/>
          </g>
          <g>
            <polygon class="cls-11" points="135.8 108.89 138.74 108.89 134.82 81.55 131.88 81.55 135.8 108.89"/>
            <path class="cls-7" d="m138.88,109.01h-3.18v-.1s-3.96-27.47-3.96-27.47h3.18v.1s3.96,27.47,3.96,27.47Zm-2.98-.24h2.7l-3.89-27.09h-2.7l3.89,27.09Z"/>
          </g>
          <g>
            <g>
              <rect class="cls-10" x="81.77" y="77.27" width="56.09" height="5.44"/>
              <path class="cls-7" d="m137.98,82.83h-56.33v-5.68h56.33v5.68Zm-56.09-.24h55.85v-5.2h-55.85v5.2Z"/>
            </g>
            <g>
              <rect class="cls-10" x="83.13" y="77.27" width="56.09" height="5.44"/>
              <path class="cls-7" d="m139.35,82.83h-56.33v-5.68h56.33v5.68Zm-56.09-.24h55.85v-5.2h-55.85v5.2Z"/>
            </g>
            <g>
              <polygon class="cls-7" points="84.05 82.71 88.81 82.71 91.27 77.27 86.51 77.27 84.05 82.71"/>
              <polygon class="cls-7" points="102.9 77.27 98.14 77.27 95.68 82.71 100.44 82.71 102.9 77.27"/>
              <polygon class="cls-7" points="137.77 77.27 133 77.27 130.54 82.71 135.31 82.71 137.77 77.27"/>
              <polygon class="cls-7" points="126.14 77.27 121.38 77.27 118.92 82.71 123.68 82.71 126.14 77.27"/>
              <polygon class="cls-7" points="114.52 77.27 109.76 77.27 107.3 82.71 112.06 82.71 114.52 77.27"/>
            </g>
            <g>
              <rect class="cls-7" x="129.64" y="79.56" width="9.28" height=".24"/>
              <rect class="cls-7" x="137.29" y="80.47" width="1.47" height=".24"/>
              <rect class="cls-7" x="82.9" y="80.24" width="9.28" height=".24"/>
              <rect class="cls-7" x="83.06" y="79.22" width="11.73" height=".24"/>
            </g>
          </g>
        </g>
        <g>
          <g>
            <g>
              <rect class="cls-7" x="138.62" y="107.7" width="15.91" height="1.19"/>
              <path class="cls-7" d="m154.53,109.01h-15.91c-.07,0-.12-.05-.12-.12v-1.19c0-.07.05-.12.12-.12h15.91c.07,0,.12.05.12.12v1.19c0,.07-.05.12-.12.12Zm-15.79-.24h15.67v-.95h-15.67v.95Z"/>
            </g>
            <g>
              <g>
                <polygon class="cls-10" points="151.85 107.66 141.31 107.66 145.44 85.19 147.72 85.19 151.85 107.66"/>
                <path class="cls-7" d="m151.85,107.78h-10.54s-.07-.02-.09-.04c-.02-.03-.03-.06-.03-.1l4.13-22.48c.01-.06.06-.1.12-.1h2.28c.06,0,.11.04.12.1l4.13,22.48s0,.07-.03.1c-.02.03-.06.04-.09.04Zm-10.4-.24h10.25l-4.09-22.23h-2.08l-4.09,22.23Z"/>
              </g>
              <g>
                <polygon class="cls-11" points="143.9 93.54 149.25 93.54 148.74 90.76 144.42 90.76 143.9 93.54"/>
                <path class="cls-7" d="m149.25,93.66h-5.35s-.07-.02-.09-.04c-.02-.03-.03-.06-.03-.1l.51-2.78c.01-.06.06-.1.12-.1h4.32c.06,0,.11.04.12.1l.51,2.78s0,.07-.03.1c-.02.03-.06.04-.09.04Zm-5.2-.24h5.06l-.47-2.54h-4.12l-.47,2.54Z"/>
              </g>
            </g>
          </g>
          <g>
            <line class="cls-10" x1="150.27" y1="103.91" x2="150.53" y2="105.45"/>
            <path class="cls-7" d="m150.53,105.57c-.06,0-.11-.04-.12-.1l-.26-1.54c-.01-.07.03-.13.1-.14.06,0,.13.03.14.1l.26,1.54c.01.07-.03.13-.1.14,0,0-.01,0-.02,0Z"/>
          </g>
          <g>
            <line class="cls-10" x1="147.26" y1="86.43" x2="149.93" y2="101.98"/>
            <path class="cls-7" d="m149.93,102.1c-.06,0-.11-.04-.12-.1l-2.68-15.55c-.01-.07.03-.13.1-.14.06,0,.13.03.14.1l2.68,15.55c.01.07-.03.13-.1.14,0,0-.01,0-.02,0Z"/>
          </g>
        </g>
        <g>
          <path class="cls-7" d="m164.52,109.01h-1.43c-.07,0-.12-.05-.12-.12s.05-.12.12-.12h1.43c.07,0,.12.05.12.12s-.05.12-.12.12Z"/>
          <path class="cls-7" d="m161.11,109.01h-82.71c-.07,0-.12-.05-.12-.12s.05-.12.12-.12h82.71c.07,0,.12.05.12.12s-.05.12-.12.12Z"/>
        </g>
      </g>
    </g>
  </g>
</svg>