<?xml version="1.0" encoding="UTF-8"?>
<svg xmlns="http://www.w3.org/2000/svg" xmlns:xlink="http://www.w3.org/1999/xlink" viewBox="0 0 216.22 128.04">
  <defs>
    <style>
      .cls-1, .cls-2, .cls-3, .cls-4, .cls-5, .cls-6, .cls-7 {
        stroke: #1a2e35;
        stroke-linecap: round;
        stroke-linejoin: round;
      }

      .cls-1, .cls-8 {
        fill: #1a2e35;
      }

      .cls-2 {
        fill: #636363;
      }

      .cls-3 {
        fill: #737373;
      }

      .cls-4, .cls-9 {
        fill: #fff;
      }

      .cls-5 {
        fill: #7d7d7d;
      }

      .cls-6, .cls-10, .cls-7 {
        fill: none;
      }

      .cls-11 {
        clip-path: url(#clippath);
      }

      .cls-10, .cls-12, .cls-13, .cls-14, .cls-8, .cls-15, .cls-9 {
        stroke-width: 0px;
      }

      .cls-16 {
        opacity: .1;
      }

      .cls-12 {
        opacity: .8;
      }

      .cls-12, .cls-15 {
        fill: #c4d600;
      }

      .cls-13 {
        fill: url(#linear-gradient);
        mix-blend-mode: multiply;
      }

      .cls-14 {
        fill: url(#linear-gradient-2);
        mix-blend-mode: screen;
      }

      .cls-17 {
        clip-path: url(#clippath-1);
      }

      .cls-18 {
        clip-path: url(#clippath-2);
      }

      .cls-7 {
        stroke-width: 2px;
      }

      .cls-19 {
        fill: #007934;
        stroke: #000;
        stroke-miterlimit: 10;
      }

      .cls-20 {
        isolation: isolate;
      }
    </style>
    <clipPath id="clippath">
      <path class="cls-10" d="m31.51,87l1.13-6.48,31.73-36.32h10.4l-6.18,35.34h7.01l-1.36,7.46h-7.01l-2.03,11.45h-8.44l2.03-11.45h-27.28Zm33.68-34.06l-22.46,26.6h17.78l4.67-26.6Z"/>
    </clipPath>
    <linearGradient id="linear-gradient" x1="-210.02" y1="1663.7" x2="-271.4" y2="1732.63" gradientTransform="translate(334 -1634.03)" gradientUnits="userSpaceOnUse">
      <stop offset=".08" stop-color="#c4d600"/>
      <stop offset="1" stop-color="#ffb700"/>
    </linearGradient>
    <linearGradient id="linear-gradient-2" x1="-239.79" y1="1708" x2="-189.55" y2="1612.24" gradientTransform="translate(334 -1634.03)" gradientUnits="userSpaceOnUse">
      <stop offset=".08" stop-color="#c4d600"/>
      <stop offset="1" stop-color="#007934"/>
    </linearGradient>
    <clipPath id="clippath-1">
      <path class="cls-10" d="m126.68,48.08c-2.46-3.04-6.48-4.56-12.06-4.56-7.18,0-12.67,2.44-16.47,7.31-3.79,4.87-6.44,11.55-7.95,20.04-.65,3.92-.98,7.28-.98,10.1,0,5.48,1.23,9.73,3.69,12.77,2.46,3.04,6.48,4.56,12.06,4.56,7.18,0,12.67-2.44,16.47-7.31,3.79-4.87,6.44-11.58,7.95-20.12.65-3.82.98-7.18.98-10.1,0-5.43-1.23-9.66-3.69-12.7Z"/>
    </clipPath>
    <clipPath id="clippath-2">
      <path class="cls-10" d="m140.63,87l1.13-6.48,31.72-36.32h10.4l-6.18,35.34h7.01l-1.36,7.46h-7.01l-2.04,11.45h-8.44l2.03-11.45h-27.28Zm33.68-34.06l-22.46,26.6h17.78l4.67-26.6Z"/>
    </clipPath>
  </defs>
  <g class="cls-20">
    <g id="Layer_1" data-name="Layer 1">
      <g class="cls-16">
        <path class="cls-15" d="m213.54,48.81c-5.02-22.82-22.51-40.83-46.32-46.86-6.26-1.59-12.92-2.39-19.54-1.71-27.07,2.79-59.37,21.01-76.13,24.83-16.76,3.82-36.41-11.46-58.69,12C-9.42,60.54-4.27,114.83,40.29,125.47c44.56,10.64,69.36-15.55,89.15-9.82,19.79,5.73,55.23,3.27,76.15-13.64,12.41-10.03,12.31-33.39,7.95-53.2Z"/>
        <path class="cls-12" d="m213.54,48.81c-5.02-22.82-22.51-40.83-46.32-46.86-6.26-1.59-12.92-2.39-19.54-1.71-27.07,2.79-59.37,21.01-76.13,24.83-16.76,3.82-36.41-11.46-58.69,12C-9.42,60.54-4.27,114.83,40.29,125.47c44.56,10.64,69.36-15.55,89.15-9.82,19.79,5.73,55.23,3.27,76.15-13.64,12.41-10.03,12.31-33.39,7.95-53.2Z"/>
      </g>
      <g>
        <g class="cls-11">
          <g>
            <g>
              <rect class="cls-13" x="1.85" y="-18.01" width="212.51" height="131" transform="translate(216.22 94.97) rotate(180)"/>
              <rect class="cls-14" x="1.85" y="-18.01" width="212.51" height="131" transform="translate(216.22 94.97) rotate(180)"/>
            </g>
            <g>
              <rect class="cls-13" x="1.85" y="-18.01" width="212.51" height="131" transform="translate(216.22 94.97) rotate(180)"/>
              <rect class="cls-14" x="1.85" y="-18.01" width="212.51" height="131" transform="translate(216.22 94.97) rotate(180)"/>
            </g>
            <g>
              <rect class="cls-13" x="1.85" y="-18.01" width="212.51" height="131" transform="translate(216.22 94.97) rotate(180)"/>
              <rect class="cls-14" x="1.85" y="-18.01" width="212.51" height="131" transform="translate(216.22 94.97) rotate(180)"/>
            </g>
          </g>
        </g>
        <g class="cls-17">
          <g>
            <g>
              <rect class="cls-13" x="1.85" y="-18.01" width="212.51" height="131" transform="translate(216.22 94.97) rotate(180)"/>
              <rect class="cls-14" x="1.85" y="-18.01" width="212.51" height="131" transform="translate(216.22 94.97) rotate(180)"/>
            </g>
            <g>
              <rect class="cls-13" x="1.85" y="-18.01" width="212.51" height="131" transform="translate(216.22 94.97) rotate(180)"/>
              <rect class="cls-14" x="1.85" y="-18.01" width="212.51" height="131" transform="translate(216.22 94.97) rotate(180)"/>
            </g>
            <g>
              <rect class="cls-13" x="1.85" y="-18.01" width="212.51" height="131" transform="translate(216.22 94.97) rotate(180)"/>
              <rect class="cls-14" x="1.85" y="-18.01" width="212.51" height="131" transform="translate(216.22 94.97) rotate(180)"/>
            </g>
          </g>
        </g>
        <g class="cls-18">
          <g>
            <g>
              <rect class="cls-13" x="1.85" y="-18.01" width="212.51" height="131" transform="translate(216.22 94.97) rotate(180)"/>
              <rect class="cls-14" x="1.85" y="-18.01" width="212.51" height="131" transform="translate(216.22 94.97) rotate(180)"/>
            </g>
            <g>
              <rect class="cls-13" x="1.85" y="-18.01" width="212.51" height="131" transform="translate(216.22 94.97) rotate(180)"/>
              <rect class="cls-14" x="1.85" y="-18.01" width="212.51" height="131" transform="translate(216.22 94.97) rotate(180)"/>
            </g>
            <g>
              <rect class="cls-13" x="1.85" y="-18.01" width="212.51" height="131" transform="translate(216.22 94.97) rotate(180)"/>
              <rect class="cls-14" x="1.85" y="-18.01" width="212.51" height="131" transform="translate(216.22 94.97) rotate(180)"/>
            </g>
          </g>
        </g>
        <g>
          <path class="cls-19" d="m88.31,56.23l.92,13.2-5.72-2.67-1.45,5.8s12.29,6.87,13.51,6.64c1.22-.23-1.83-26.94-1.83-26.94l-5.42,3.97Z"/>
          <path class="cls-19" d="m96.56,88.09s6.59-2.27,9.17-4.43c2.58-2.16-10.92-28.33-10.92-28.33,0,0,.21,24,1.75,32.75Z"/>
          <path class="cls-3" d="m124.16,79.63l-.76.11s0,.09,0,.11c-.06.98-5.36,3.59-9.1,5-.82.63-1.91.95-3.29.95-.01,0-.02,0-.04,0-2.89.28-8.43-.99-9.69-1.85l-1.35,13.83s0,0,0,0c.22.11.44.21.66.31,2.93,1.3,6.4,1.95,10.41,1.95,4.63,0,8.56-.91,11.78-2.74.02-.01.05-.03.07-.04.2-.12.41-.24.6-.36.24-.15.47-.3.7-.46.07-.05.14-.1.21-.15.16-.11.32-.23.48-.35.07-.06.15-.11.22-.17.16-.12.31-.24.46-.37.06-.05.12-.1.19-.15.21-.18.42-.35.62-.54,0,0,0,0,0,0-.86-6.12-2.2-15.09-2.2-15.09Z"/>
          <path class="cls-4" d="m94.6,63.57s6.11,14.93,6.18,15.46c.08.53-.6,3.92.38,4.83.98.9,7.54,2.41,10.33,1.88,2.79-.53,11.84-4.6,11.91-5.88.08-1.28-8.97-26.31-10.1-29.33-1.13-3.02-5.73-4.07-8.82-3.77-3.09.3-10.56,2.26-11.91,4.15s2.04,12.67,2.04,12.67Z"/>
          <g>
            <path class="cls-4" d="m95.13,49.7s-.75,6.86-.3,8.29c.45,1.43,2.51,5.37,2.51,5.37,0,0,3.45-4.32,4.12-4.77.68-.45,6.94,3.54,6.94,3.54,0,0,.23-4.3-.68-7.84-.9-3.54-2.49-7.39-3.02-8.07-.53-.68-.53,1.81-2.49,3.47-1.96,1.66-7.09,0-7.09,0Z"/>
            <g>
              <path class="cls-4" d="m94.57,50.9s.9,2.28,2.85,5.05,4.64,4.8,4.64,4.8c0,0,2.12-5.45,2.69-8.71.57-3.26-.41-6.51-.41-6.51,0,0-.41,4.88-2.12,5.86-1.71.98-7.65-.49-7.65-.49Z"/>
              <path class="cls-1" d="m99.04,51.66c-2.16-.19-4.47-.76-4.47-.76,0,0,.9,2.28,2.85,5.05.19.27.38.52.58.78l3.37-3.9-2.33-1.17Z"/>
            </g>
          </g>
          <g>
            <path class="cls-19" d="m104.34,45.52s2.48,9.91,3.38,17.37c.9,7.46,3.09,29.56,3.09,29.56,0,0,6.79-1.96,10.33-4.52,3.54-2.56,4.67-4.3,4.67-4.3,0,0-5.81-25.41-5.81-25.79s.6-4.15.6-4.15c0,0,10.25-4.83,14.17-7.77,3.92-2.94,2.94-4.52,1.06-5.28s-7.77.08-11.01.98c-3.24.9-4.9,1.51-4.9,1.51,0,0-3.62-.3-6.94.45s-8.66,1.93-8.66,1.93Z"/>
            <path class="cls-4" d="m109.55,70.87c-.12.38-.25.78-.39,1.22"/>
            <path class="cls-6" d="m110.71,54.09l1.16.74s-.38,6.01-.9,9.8c-.32,2.29-.59,3.54-1.1,5.23"/>
            <path class="cls-6" d="m108.66,46.94c.76,1.39,1.85,3.45,1.85,3.74,0,.45-1.13,2.56-1.13,2.56l.71.45"/>
            <path class="cls-4" d="m107.94,45.64s.12.21.31.56"/>
            <path class="cls-6" d="m121.83,78.85c-.84.58-2.11,1.32-3.85,1.99-3.54,1.36-4.15,1.58-4.15,1.58l.53,1.81s6.18-1.13,9.05-4.37"/>
            <path class="cls-4" d="m123.1,77.82s-.16.17-.51.45"/>
            <polyline class="cls-6" points="121.96 49.69 120.61 53.7 123.78 48.95"/>
            <line class="cls-4" x1="122.57" y1="47.89" x2="122.26" y2="48.82"/>
          </g>
          <g>
            <path class="cls-19" d="m95.13,49.7s.75,13.72,1.58,20.43c.83,6.71,2.19,23.3,2.19,23.3,0,0-2.64-.23-4.37-2.34-1.73-2.11-2.56-3.69-2.56-3.69v-14.93c0-.6-1.21-7.46-2.34-10.86-1.13-3.39-2.79-7.31-1.81-8.97.98-1.66,4.07-4.15,5.2-4.45s2.04,0,2.11,1.51Z"/>
            <path class="cls-4" d="m94.71,66.94c.43,1.33.84,2.52,1.18,3.27"/>
            <path class="cls-6" d="m92.13,52.31c-.13.98-.19,1.74-.09,1.84.3.3,1.51,1.36,1.51,1.36,0,0-1.51,1.88-1.28,2.87.15.64,1.14,4.38,2.15,7.64"/>
            <path class="cls-4" d="m92.94,47.29s-.4,2.16-.68,4.06"/>
            <line class="cls-4" x1="93.82" y1="82.14" x2="92.49" y2="81.52"/>
            <polyline class="cls-6" points="92.49 79.48 96.18 80.99 96.18 83.25 94.49 82.46"/>
          </g>
          <g>
            <path class="cls-4" d="m89.5,40.63l1.29,3.16s-1.68-1.74-2.06-.19.77,3.35,1.55,3.35,1.68.06,1.68.06c0,0,2.71,4.77,4.38,5.67,1.68.9,3.93,1.68,5.35.9,1.42-.77,2.19-2.9,2.64-4.51s.13-6.44.13-6.44l-2.32-9.54s1.61-.58,1.61-1.68-3.74-1.42-3.74-1.42c0,0,1.48-1.74-.39-2-1.87-.26-7.93,3.35-8.12,3.48-.19.13,1.03-2.26-.52-1.42-1.55.84-3.35,4.96-3.16,5.93.19.97,1.68,4.64,1.68,4.64Z"/>
            <path class="cls-3" d="m100,30s1.48-1.74-.39-2c-1.87-.26-7.93,3.35-8.12,3.48-.19.13,1.03-2.26-.52-1.42-1.55.84-3.35,4.96-3.16,5.93.19.97,1.68,4.64,1.68,4.64l1.29,3.16s1.48,1.35.97.32-1.55-3.35-1.29-3.67c.26-.32,1.55-.84,1.61-1.55.06-.71-1.22-2.77-.84-3.29.39-.52,5.86.45,6.83-.13.97-.58-.26-2-.26-2l4.32-.39s1.61-.58,1.61-1.68-3.74-1.42-3.74-1.42Z"/>
            <path class="cls-4" d="m100.84,45.91s-.58,1.1-1.48,1.16"/>
            <path class="cls-8" d="m96.84,42.95c.18.39.1.8-.17.93-.27.13-.64-.08-.82-.47-.18-.39-.1-.8.17-.93.27-.13.64.08.82.47Z"/>
            <path class="cls-8" d="m101.98,41.93c.07.42-.12.8-.42.85s-.6-.26-.66-.68c-.07-.42.12-.8.42-.85.3-.05.6.26.66.68Z"/>
            <path class="cls-4" d="m99.35,49.52s1.1,0,1.87-.58"/>
            <path class="cls-7" d="m93.62,42.11s.9-1.29,3.35-.52"/>
            <path class="cls-7" d="m100.13,40.89s.45-1.48,2.19-1.61"/>
            <path class="cls-4" d="m103.74,39.6s.45-1.03.97-.39c.52.64.71,1.93.39,2.77-.32.84-.52,1.55-.52,1.55l-.13-.9-.71-3.03Z"/>
          </g>
          <g>
            <path class="cls-4" d="m115.59,34.57s-7.09-1.29-7.54-1.29-5.73.97-6.51,1.29c-.77.32-6.64,2-6.51,2.38.13.39.84.52.84.52,0,0,.13.58,2.19.84,2.06.26,6.89-.39,6.96.06.06.45-.32.84-.32.84l.58,1.03s2.13-.32,2.84-.84c.71-.52,2.71-2.13,2.71-2.13l4.32.32.45-3.03Z"/>
            <path class="cls-4" d="m99.87,35.48s-2.9,1.22-3.35,1.48c-.45.26.84.77,1.61.64.77-.13,3.74-1.29,4.19-1.42.45-.13,2.51.39,4,.58,1.48.19,2.51-.26,2.77-.39"/>
          </g>
          <path class="cls-19" d="m133.05,44.88s-2.26.6-4.98,0c-2.71-.6-9.88-4.15-9.88-4.15l-4.9-1.43,1.13-5.73s12.37,1.51,15.83,2.79,8.52,4.22,8.37,5.28c-.15,1.06-2.94,3.32-2.94,3.32"/>
          <path class="cls-6" d="m90.58,69.51s4.54,5.2,8.36,3.45c3.83-1.75,5.72-12.95,5.72-12.95"/>
          <path class="cls-6" d="m84.63,65.59s3.59,4.49,8.36,4.06c4.77-.43,6.38-5.95,6.33-8.7"/>
          <g>
            <g>
              <rect class="cls-5" x="83.95" y="62.33" width="1.6" height="7.5" transform="translate(25.46 -23.55) rotate(18.57)"/>
              <rect class="cls-1" x="84.79" y="61.71" width="2.48" height="1.1" transform="translate(24.31 -24.16) rotate(18.57)"/>
            </g>
            <g>
              <rect class="cls-5" x="87.3" y="63.45" width="1.6" height="7.5" transform="translate(25.99 -24.56) rotate(18.57)"/>
              <rect class="cls-1" x="88.14" y="62.83" width="2.48" height="1.1" transform="translate(24.84 -25.16) rotate(18.57)"/>
            </g>
            <rect class="cls-1" x="83.53" y="64.6" width="5.18" height="5.73" transform="translate(25.97 -23.91) rotate(18.57)"/>
            <g>
              <polygon class="cls-5" points="83.17 72.99 78.59 71.45 81.02 67.44 83.65 68.32 83.17 72.99"/>
              <rect class="cls-2" x="77.64" y="72.08" width="4.83" height="5.13" transform="translate(27.94 -21.61) rotate(18.57)"/>
              <rect class="cls-2" x="81.06" y="62.94" width="4.15" height="5.13" transform="translate(25.19 -23.06) rotate(18.57)"/>
            </g>
            <g>
              <polygon class="cls-5" points="89.86 75.24 85.28 73.7 87.7 69.69 90.34 70.57 89.86 75.24"/>
              <rect class="cls-2" x="84.33" y="74.33" width="4.83" height="5.13" transform="translate(29.01 -23.62) rotate(18.57)"/>
              <rect class="cls-2" x="87.75" y="65.19" width="4.15" height="5.13" transform="translate(26.25 -25.08) rotate(18.57)"/>
            </g>
          </g>
          <g>
            <path class="cls-4" d="m80.43,62.09s-.53.88-.38,1.13c.16.25,1.7,1.1,1.92,1.16.22.06.82-.25.79-.66s-1.22-1.29-1.6-1.51c-.38-.22-.57-.25-.72-.13Z"/>
            <path class="cls-4" d="m79.58,63.83s-.26,1-.03,1.19,1.94.56,2.17.56.71-.48.56-.86c-.15-.38-1.54-.88-1.97-.98-.42-.1-.61-.08-.73.09Z"/>
            <path class="cls-4" d="m79.11,65.55s-.26,1-.03,1.19,1.94.56,2.17.56c.23,0,.71-.48.56-.86-.15-.38-1.54-.88-1.97-.98-.42-.1-.61-.08-.73.09Z"/>
            <path class="cls-4" d="m79.33,67.22s-.26,1-.03,1.19,1.94.56,2.17.56c.23,0,.71-.48.56-.86-.15-.38-1.54-.88-1.97-.98-.42-.1-.61-.08-.73.09Z"/>
          </g>
        </g>
        <g>
          <path class="cls-9" d="m114.19,60.55c.19-.04.38.09.42.28s-.09.38-.28.42-.38-.09-.42-.28.09-.38.28-.42"/>
          <path class="cls-9" d="m112.99,60.94l.2.98c.03.12.25.17.25.17l-.26-1.33-.18.18Z"/>
          <path class="cls-9" d="m113.24,60.7l.26,1.32c.03.15.25.2.25.2l-.34-1.7-.18.18Z"/>
          <path class="cls-9" d="m115.34,61.05l.18-.18-.2-.98c-.03-.12-.25-.17-.25-.17l.26,1.33Z"/>
          <path class="cls-9" d="m115.09,61.29l.18-.18-.26-1.32c-.03-.15-.25-.2-.25-.2l.34,1.7Z"/>
          <path class="cls-9" d="m113.49,60.56l.18-.17.39,1.96s-.23-.06-.26-.22l-.31-1.57Z"/>
          <path class="cls-9" d="m112.9,60.46c-.01-.06,0-.17.13-.3.21-.21.91-.89.91-.89l.12.62-1.06,1.04q-.09-.47-.1-.48"/>
          <path class="cls-9" d="m115.02,61.26l-.18.17-.39-1.96s.23.06.26.22l.31,1.57Z"/>
          <path class="cls-9" d="m115.61,61.36c.01.06,0,.17-.13.3-.21.21-.91.89-.91.89l-.12-.62,1.06-1.04q.09.47.1.48"/>
          <polygon class="cls-9" points="115.76 59.82 116.58 60.45 116.43 59.69 116.55 59.66 116.77 60.78 116.64 60.8 115.8 60.15 115.96 60.94 115.84 60.96 115.62 59.85 115.76 59.82"/>
          <path class="cls-9" d="m117.29,59.57s.02,0,.02,0c0,0,.01,0,.02.02l-.02.16s-.02,0-.03,0c-.06-.08-.13-.11-.21-.09-.03,0-.06.02-.09.04-.02.02-.03.04-.04.06,0,.02,0,.04,0,.07,0,.03.02.05.04.08.02.02.05.04.08.05l.29.09s.08.05.11.09c.03.04.05.08.06.13.02.08,0,.15-.03.23-.03.07-.08.12-.14.15-.06.03-.11.04-.16.05s-.09.01-.14.01c-.04,0-.09,0-.14-.02v-.2s.04,0,.04,0c.02.05.05.08.1.1.05.02.1.03.15.02.04,0,.07-.02.1-.05.03-.02.05-.06.06-.1,0-.02,0-.04,0-.06,0-.05-.04-.09-.1-.12-.1-.04-.19-.06-.28-.09-.11-.05-.18-.13-.2-.24-.01-.06,0-.11.01-.17.02-.05.05-.09.08-.12.03-.03.07-.06.12-.08.03,0,.05-.02.08-.02.08-.02.15-.01.23,0"/>
          <path class="cls-9" d="m118.06,59.41s.02,0,.02,0c0,0,.01,0,.02.02l-.02.16s-.02,0-.03,0c-.06-.08-.13-.11-.21-.09-.03,0-.06.02-.09.04-.02.02-.03.04-.04.06,0,.02,0,.04,0,.07,0,.03.02.05.04.08.02.02.05.04.08.05l.29.09s.08.05.11.09c.03.04.05.08.06.13.02.08,0,.15-.03.23-.03.07-.08.12-.14.15-.06.03-.11.04-.16.05s-.09.01-.14.01c-.04,0-.09,0-.14-.02v-.2s.04,0,.04,0c.02.05.05.08.1.1.05.02.1.03.15.02.04,0,.07-.02.1-.05.03-.02.05-.06.06-.1,0-.02,0-.04,0-.06,0-.05-.04-.09-.1-.12-.1-.04-.19-.06-.28-.09-.11-.05-.18-.13-.2-.24-.01-.06,0-.11.01-.17.02-.05.05-.09.08-.12.03-.03.07-.06.12-.08.03,0,.05-.02.08-.02.08-.02.15-.01.23,0"/>
          <polygon class="cls-9" points="118.9 59.2 118.92 59.32 118.56 59.4 118.62 59.71 118.97 59.64 118.99 59.76 118.65 59.83 118.74 60.33 118.5 60.38 118.29 59.32 118.9 59.2"/>
          <path class="cls-9" d="m116.03,61.06s-.02,0-.04,0c0,0-.02,0-.03.01,0,0-.02.01-.02.02,0,0,0,.02-.01.03,0,.01,0,.03,0,.05,0,.01,0,.02.01.03,0,.01.01.02.02.03,0,0,.02.01.03.01.01,0,.02,0,.03,0,0,0,0,0,0,0,0,0,0,0,0,0,0,0,0,0,0,0,0,0,0,0,0,0,0,0,0,0,0,0,0,0,0,0,0-.01,0-.02,0-.03,0-.04,0,0,0-.01,0-.02,0,0,0,0,0,0,0,0,0,0,.02,0,0,0,.01,0,.02,0,0,0,0,0,0,0,0,0,0,0,0,0,0,0,0,0,0,.01,0,0,0,.01,0,.02,0,0,0,.01,0,.02h0s0,.02,0,.03c0,0,0,0,0,0-.01,0-.03.01-.04.02-.01,0-.03,0-.04.01-.02,0-.04,0-.05,0-.02,0-.03,0-.04-.01-.01,0-.02-.02-.03-.03,0-.01-.01-.03-.02-.04,0-.02,0-.04,0-.06,0-.02.01-.03.02-.04,0-.01.02-.02.04-.03.02,0,.03-.01.05-.02.02,0,.03,0,.04,0,.01,0,.03,0,.04,0,0,0,0,.01,0,.02,0,0,0,.01,0,.02h0s-.02-.01-.03-.02"/>
          <path class="cls-9" d="m116.18,61.12s0-.03.01-.04c0,0,.02-.01.03-.02h0s0,0,0,0c0,0,0,0,0,.01,0,0,0,0,0,.01h0s0,.02,0,.02c0,0,0,0,0,0h0s0,0,0,0c0,0,0,0,0,0,0,0-.02,0-.02.01,0,0,0,.02,0,.02h0s0,.04,0,.05c0,.01,0,.02,0,.03,0,0,0,0-.01,0h-.01s-.01,0-.01,0c0,0,0,0-.01,0,0-.01,0-.02,0-.03,0-.01,0-.02,0-.04h0s0-.04,0-.05c0-.01,0-.02,0-.03,0,0,0,0,.01,0,0,0,0,0,.01,0s0,0,.01,0c0,0,0,0,.01,0v.04s0,0,0,0Z"/>
          <path class="cls-9" d="m116.35,61.07s-.02-.01-.03-.01c0,0-.02,0-.02.02,0,.01,0,.03,0,.06,0,0,0,.02,0,.02,0,0,0,.01,0,.02,0,0,0,0,.01.01,0,0,0,0,.02,0,.02,0,.03-.03.02-.08,0-.02,0-.03-.02-.04m-.09.04s0-.02.01-.03c0,0,.01-.02.02-.02,0,0,.02,0,.03-.01.02,0,.05,0,.06,0,.02.01.03.03.03.05,0,.01,0,.03,0,.04,0,.01,0,.02-.01.03,0,0-.01.02-.02.02,0,0-.02,0-.03.01,0,0-.02,0-.03,0,0,0-.02,0-.03,0,0,0-.02-.01-.02-.02,0,0-.01-.02-.01-.03s0-.03,0-.04"/>
          <path class="cls-9" d="m116.63,60.99s0,0,.01,0c0,0,0,0,0,0,0,0,0,0,0,0,0,0,0,0,0,.01,0,0,0,.02,0,.02,0,0,0,.02,0,.03,0,.01,0,.02,0,.03,0,.01,0,.02,0,.03,0,.01,0,.02,0,.03,0,0,0,0,0,0h0s0,0,0,0c0,0,0,0,0,0,0,0,0-.02-.01-.02,0,0,0-.02-.01-.03,0,0,0-.02-.01-.02,0,0,0-.02-.01-.02h0s0,.04,0,.06c0,.02,0,.04,0,.05,0,0,0,0,0,0h0s0,0,0,0c0,0,0,0,0,0,0,0,0-.02-.01-.03,0,0-.01-.02-.02-.03,0,0-.01-.02-.02-.03,0,0-.01-.02-.02-.03,0,0,0-.01-.01-.02,0,0,0,0,0-.01,0,0,0,0,.01,0,0,0,0,0,.01,0s0,0,.01,0c0,0,0,0,.01,0,0,.02.02.04.03.05,0,.02.02.04.03.05h0s0-.04,0-.06c0-.02,0-.04,0-.06,0,0,0,0,0,0,0,0,0,0,0,0s0,0,0,0c0,0,0,0,0,0,0,.02.02.04.03.05,0,.02.02.03.03.05h0s0-.08.01-.12"/>
          <path class="cls-9" d="m116.69,61.01s0-.02,0-.03c0,0,0,0,.01,0,0,0,0,0,.01,0,0,0,.02,0,.02,0,0,.01,0,.02,0,.03,0,.01,0,.02,0,.04h0s0,.04,0,.05c0,.01,0,.02,0,.03,0,0,0,0-.01,0h-.01s-.01,0-.01,0c0,0,0,0-.01,0,0-.01,0-.02,0-.03,0-.01,0-.02,0-.04h0s0-.04,0-.05m-.02-.11s0,0,.02-.01.01,0,.02,0c0,0,0,0,.01.02s0,.01,0,.02c0,0,0,0-.02.01s-.01,0-.02,0c0,0,0,0-.01-.02s0-.01,0-.02"/>
          <path class="cls-9" d="m116.82,60.98s0-.02.02-.02c0,0,.02-.01.03-.01.02,0,.03,0,.04,0,.01,0,.02.02.02.04,0,.01,0,.02,0,.03,0,0,0,.02,0,.02,0,0,0,.01,0,.02,0,0,0,.02,0,.02,0,0,0,0-.01,0h-.01s-.01,0-.01,0c0,0,0,0-.01,0,0-.01,0-.02,0-.04,0-.02,0-.03,0-.05,0-.01,0-.02-.01-.03,0,0-.01,0-.02,0,0,0-.02,0-.02.02,0,0,0,.02,0,.04h0s0,.04,0,.05c0,.01,0,.02,0,.03,0,0,0,0-.01,0h-.01s-.01,0-.01,0c0,0,0,0-.01,0,0-.01,0-.02,0-.03,0-.01,0-.02,0-.04h0s0-.04,0-.05c0-.01,0-.02,0-.03,0,0,0,0,.01,0,0,0,0,0,.01,0s0,0,.01,0c0,0,0,0,.01,0v.02s0,0,0,0Z"/>
          <path class="cls-9" d="m116.99,60.97s0,.01,0,.02c0,0,0,0,0,.01,0,0,0,0,0,0,0,0,0,0,0,0,0,0,.01,0,.01-.01,0,0,0-.02,0-.03s0-.02-.01-.03c0,0-.01,0-.02,0-.01,0-.02.02-.01.05m.09.11s0,0-.01,0c0,0,0,0-.02,0,0,0-.01,0-.02,0-.01,0-.02,0-.02,0,0,0,0,0,0,.01,0,0,0,.01,0,.02,0,0,0,.01,0,.02,0,0,0,0,.01,0,0,0,0,0,.01,0,0,0,.01,0,.02,0,0,0,.01,0,.02,0,0,0,0,0,.01-.01,0,0,0,0,0-.01,0,0,0,0,0-.02,0,0,0-.01,0-.01m-.02-.16s.01,0,.02.01c0,0,0,.01,0,.02s0,.02,0,.02c0,0,0,.01,0,.02,0,0-.01.01-.02.01,0,0-.02,0-.02,0,0,0,0,0,0,0,0,0,0,0,0,0,0,0,0,0,0,0,0,0,0,0,0,0,0,0,0,0,0,.01,0,0,.01,0,.02,0h.02s.03,0,.04,0c0,0,.02.01.02.03,0,.01,0,.02,0,.03s0,.02-.02.03c0,0-.02.01-.02.02,0,0-.02,0-.03,0-.02,0-.04,0-.05,0-.01,0-.02-.01-.02-.03,0-.01,0-.02,0-.03,0,0,.01-.01.02-.02h0s-.01,0-.02,0c0,0,0,0,0-.01,0,0,0-.01,0-.02,0,0,.01-.01.02-.02h0s-.02,0-.03-.01c0,0-.01-.02-.02-.03,0,0,0-.02,0-.02,0,0,0-.01.01-.02,0,0,.01-.01.02-.01,0,0,.02,0,.03,0,0,0,0,0,.01,0,0,0,0,0,.01,0,0,0,0,0,0,0,0,0,0,0,0,0,0,0,.01,0,.02,0,0,0,.01,0,.02,0h0s0,0,0,0h0s0,0,0,0h-.03s0,0,0,0Z"/>
          <path class="cls-9" d="m117.28,60.87s0-.02,0-.03c0,0,0-.02,0-.03,0,0,0-.02,0-.03,0,0,0,0,0,0,0,0,0,0,0,0s0,0,0,0c0,0,0,0,0,0,0,0,0,.02,0,.03,0,.01,0,.02-.01.03,0,.01,0,.03-.01.04,0,.01,0,.03-.01.04,0,0,0,.01,0,.02,0,0,0,.01,0,.02,0,.01,0,.02,0,.03,0,.01,0,.02,0,.03,0,0,0,0-.01,0h-.01s-.01,0-.01,0c0,0,0,0-.01,0,0,0,0-.02,0-.03,0-.01,0-.02,0-.03,0,0,0,0,0-.01,0,0,0,0,0-.01,0,0-.02-.02-.03-.03,0-.01-.02-.02-.03-.03,0-.01-.02-.02-.02-.03,0,0-.01-.02-.02-.02,0,0,0,0,.01,0,0,0,0,0,.01,0s0,0,.01,0c0,0,0,0,.01,0,0,0,.01.02.02.02,0,0,.01.02.02.03,0,0,.01.02.02.02,0,0,0,.01.01.01h0s0-.01,0-.02"/>
          <path class="cls-9" d="m117.42,60.86s-.02-.01-.03-.01c0,0-.02,0-.02.02,0,.01,0,.03,0,.06,0,0,0,.02,0,.02,0,0,0,.01,0,.02,0,0,0,0,.01.01,0,0,0,0,.02,0,.02,0,.03-.03.02-.08,0-.02,0-.03-.02-.04m-.09.04s0-.02.01-.03c0,0,.01-.02.02-.02,0,0,.02,0,.03-.01.02,0,.05,0,.06,0,.02.01.03.03.03.05,0,.01,0,.03,0,.04,0,.01,0,.02-.01.03,0,0-.01.02-.02.02,0,0-.02,0-.03.01,0,0-.02,0-.03,0,0,0-.02,0-.03,0,0,0-.02-.01-.02-.02,0,0-.01-.02-.01-.03s0-.03,0-.04"/>
          <path class="cls-9" d="m117.62,60.93s0,.02-.02.02c0,0-.02.01-.03.01-.02,0-.03,0-.04,0-.01,0-.02-.02-.02-.04,0-.01,0-.02,0-.03,0,0,0-.02,0-.02,0,0,0-.01,0-.02,0,0,0-.02,0-.02,0,0,0,0,.01,0,0,0,0,0,.01,0s0,0,.01,0c0,0,0,0,.01,0,0,.01,0,.03,0,.04,0,.02,0,.03,0,.05,0,.01,0,.02.01.03,0,0,.01,0,.02,0,0,0,.02,0,.02-.02,0,0,0-.02,0-.04h0s0-.04,0-.05c0-.01,0-.02,0-.03,0,0,.01,0,.02,0,0,0,0,0,.01,0,0,0,0,0,.01,0,0,.01,0,.02,0,.03,0,.01,0,.02,0,.04h0s0,.04,0,.05c0,.01,0,.02,0,.03,0,0,0,0-.01,0h-.01s-.01,0-.01,0c0,0,0,0-.01,0v-.02s0,0,0,0Z"/>
          <path class="cls-9" d="m117.71,60.89s0,0,.02-.01.01,0,.02,0c0,0,0,0,.01.02s0,.01,0,.02c0,0,0,0-.02.01s-.01,0-.02,0c0,0,0,0-.01-.02s0-.01,0-.02"/>
          <path class="cls-9" d="m117.86,60.72s0-.03-.01-.04c0,0,.02,0,.03,0,0,0,.02,0,.03,0,.02,0,.03,0,.04,0,.01,0,.02,0,.02,0,0,0,0,0,0,.01,0,0,0,0,0,0,0,0,0,0,0,0,0,0-.01,0-.02,0,0,0-.01,0-.02,0,0,0-.01,0-.02,0,0,0,0,0-.01,0,0,.01,0,.02,0,.04,0,.01,0,.02,0,.03.01,0,.03,0,.04,0,.01,0,.02,0,.03,0,0,0,0,0,0,0,0,0,0,0,0,0,0,0,0,0,0,0,0,0,0,0,0,0-.02,0-.05,0-.07.01v.02s.01.03.01.05c0,.01,0,.03,0,.04,0,0,0,0-.01,0h-.01s-.01,0-.01,0c0,0,0,0-.01,0,0-.01,0-.03,0-.04,0-.01,0-.03,0-.05v-.04s-.02-.03-.02-.05"/>
          <path class="cls-9" d="m118.11,60.72s-.02-.01-.03-.01c0,0-.02,0-.02.02,0,.01,0,.03,0,.06,0,0,0,.02,0,.02,0,0,0,.01,0,.02,0,0,0,0,.01.01,0,0,0,0,.02,0,.02,0,.03-.03.02-.08,0-.02,0-.03-.02-.04m-.09.04s0-.02.01-.03c0,0,.01-.02.02-.02,0,0,.02,0,.03-.01.02,0,.05,0,.06,0,.02.01.03.03.03.05,0,.01,0,.03,0,.04,0,.01,0,.02-.01.03,0,0-.01.02-.02.02,0,0-.02,0-.03.01,0,0-.02,0-.03,0,0,0-.02,0-.03,0,0,0-.02-.01-.02-.02,0,0-.01-.02-.01-.03s0-.03,0-.04"/>
          <path class="cls-9" d="m118.24,60.71s0-.03.01-.04c0,0,.02-.01.03-.02h0s0,0,0,0c0,0,0,0,0,.01,0,0,0,0,0,.01h0s0,.02,0,.02c0,0,0,0,0,0h0s0,0,0,0c0,0,0,0,0,0,0,0-.02,0-.02.01,0,0,0,.02,0,.02h0s0,.04,0,.05c0,.01,0,.02,0,.03,0,0,0,0-.01,0h-.01s-.01,0-.01,0c0,0,0,0-.01,0,0-.01,0-.02,0-.03,0-.01,0-.02,0-.04h0s0-.04,0-.05c0-.01,0-.02,0-.03,0,0,0,0,.01,0,0,0,0,0,.01,0s0,0,.01,0c0,0,0,0,.01,0v.04s0,0,0,0Z"/>
          <path class="cls-9" d="m118.56,60.56s-.02,0-.04,0c0,0-.02,0-.03.01,0,0-.02.01-.02.02,0,0,0,.02-.01.03s0,.03,0,.05c0,.01,0,.02.01.03,0,.01.01.02.02.03,0,0,.02.01.03.01.01,0,.02,0,.03,0,0,0,0,0,0,0,0,0,0,0,0,0,0,0,0,0,0,0,0,0,0,0,0,0,0,0,0,0,0,0,0,0,0,0,0-.01,0-.02,0-.03,0-.04,0,0,0-.01,0-.02,0,0,0,0,0,0,0,0,0,0,.02,0,0,0,.01,0,.02,0,0,0,0,0,0,0,0,0,0,0,0,0,0,0,0,0,0,.01,0,0,0,.01,0,.02,0,0,0,.01,0,.02h0s0,.02,0,.03c0,0,0,0,0,0-.01,0-.03.01-.04.02-.01,0-.03,0-.04.01-.02,0-.04,0-.05,0-.02,0-.03,0-.04-.01-.01,0-.02-.02-.03-.03,0-.01-.01-.03-.02-.04,0-.02,0-.04,0-.06,0-.02.01-.03.02-.04,0-.01.02-.02.04-.03.02,0,.03-.01.05-.02.02,0,.03,0,.04,0,.01,0,.03,0,.04,0,0,0,0,.01,0,.02,0,0,0,.01,0,.02h0s-.02-.01-.03-.02"/>
          <path class="cls-9" d="m118.75,60.59s-.02-.01-.03-.01c0,0-.02,0-.02.02,0,.01,0,.03,0,.06,0,0,0,.02,0,.02,0,0,0,.01,0,.02,0,0,0,0,.01.01,0,0,0,0,.02,0,.02,0,.03-.03.02-.08,0-.02,0-.03-.02-.04m-.09.04s0-.02.01-.03c0,0,.01-.02.02-.02,0,0,.02,0,.03-.01.02,0,.05,0,.06,0,.02.01.03.03.03.05,0,.01,0,.03,0,.04,0,.01,0,.02-.01.03,0,0-.01.02-.02.02,0,0-.02,0-.03.01,0,0-.02,0-.03,0,0,0-.02,0-.03,0,0,0-.02-.01-.02-.02,0,0-.01-.02-.01-.03s0-.03,0-.04"/>
          <path class="cls-9" d="m118.93,60.56s-.02-.01-.03-.01c0,0-.02,0-.02.02,0,.01,0,.03,0,.06,0,0,0,.02,0,.02,0,0,0,.01,0,.02,0,0,0,0,.01.01,0,0,0,0,.02,0,.02,0,.03-.03.02-.08,0-.02,0-.03-.02-.04m-.09.04s0-.02.01-.03c0,0,.01-.02.02-.02,0,0,.02,0,.03-.01.02,0,.05,0,.06,0,.02.01.03.03.03.05,0,.01,0,.03,0,.04,0,.01,0,.02-.01.03,0,0-.01.02-.02.02,0,0-.02,0-.03.01,0,0-.02,0-.03,0,0,0-.02,0-.03,0,0,0-.02-.01-.02-.02,0,0-.01-.02-.01-.03s0-.03,0-.04"/>
          <path class="cls-9" d="m119.07,60.61s0,.01,0,.02c0,0,0,0,.01,0,0,0,0,0,.01,0,0,0,.01,0,.02-.02,0-.01,0-.03,0-.05,0-.02,0-.03-.02-.04,0,0-.01-.01-.02,0,0,0,0,0,0,0,0,0,0,0,0,.01,0,0,0,.01,0,.02,0,0,0,.02,0,.03,0,.01,0,.02,0,.03m.1-.03s0,.03.01.05c0,0,0,0-.01,0h-.01s-.01,0-.01,0c0,0,0,0,0,0,0,0,0,0,0,0,0,0,0,0,0,0,0,0,0,0,0,0,0,0,0,0,0,0h0s0,.02-.01.02c0,0-.02.01-.03.01-.01,0-.02,0-.03,0,0,0-.02,0-.02-.01,0,0-.01-.01-.02-.02,0,0,0-.02,0-.03s0-.02,0-.03c0-.01,0-.02,0-.03,0,0,0-.02.02-.02,0,0,.01,0,.02-.01,0,0,.02,0,.03,0,0,0,.02,0,.02.01h0s0-.04-.01-.05c0-.02,0-.03-.01-.05,0,0,0,0,.01,0,0,0,0,0,.01,0s0,0,.01,0c0,0,0,0,.01,0,0,.02,0,.04,0,.05,0,.02,0,.04.01.06v.02s.01.04.02.06"/>
        </g>
      </g>
    </g>
  </g>
</svg>