<?xml version="1.0" encoding="UTF-8"?>
<svg xmlns="http://www.w3.org/2000/svg" xmlns:xlink="http://www.w3.org/1999/xlink" viewBox="0 0 216.22 128.04">
  <defs>
    <style>
      .cls-1 {
        clip-path: url(#clippath);
      }

      .cls-2 {
        fill: none;
      }

      .cls-2, .cls-3, .cls-4, .cls-5, .cls-6, .cls-7, .cls-8, .cls-9, .cls-10, .cls-11, .cls-12, .cls-13, .cls-14, .cls-15, .cls-16, .cls-17, .cls-18, .cls-19, .cls-20, .cls-21, .cls-22, .cls-23, .cls-24, .cls-25, .cls-26, .cls-27 {
        stroke-width: 0px;
      }

      .cls-28 {
        opacity: .1;
      }

      .cls-29, .cls-27 {
        fill: #fff;
      }

      .cls-30, .cls-26 {
        fill: #af0;
      }

      .cls-31, .cls-3, .cls-4, .cls-5, .cls-6, .cls-11, .cls-12, .cls-13, .cls-14, .cls-15, .cls-16, .cls-17, .cls-18, .cls-19, .cls-20, .cls-21, .cls-22, .cls-23, .cls-24 {
        fill: #1a2e35;
      }

      .cls-3 {
        clip-path: url(#clippath-7);
      }

      .cls-4 {
        clip-path: url(#clippath-5);
      }

      .cls-5 {
        clip-path: url(#clippath-9);
      }

      .cls-6 {
        clip-path: url(#clippath-3);
      }

      .cls-7 {
        opacity: .8;
      }

      .cls-7, .cls-25 {
        fill: #c4d600;
      }

      .cls-8 {
        fill: url(#linear-gradient);
        mix-blend-mode: multiply;
      }

      .cls-9 {
        fill: url(#linear-gradient-2);
        mix-blend-mode: screen;
      }

      .cls-32 {
        clip-path: url(#clippath-1);
      }

      .cls-33 {
        clip-path: url(#clippath-4);
      }

      .cls-34 {
        clip-path: url(#clippath-2);
      }

      .cls-35 {
        clip-path: url(#clippath-8);
      }

      .cls-36 {
        clip-path: url(#clippath-6);
      }

      .cls-37 {
        clip-path: url(#clippath-20);
      }

      .cls-38 {
        clip-path: url(#clippath-24);
      }

      .cls-39 {
        clip-path: url(#clippath-22);
      }

      .cls-40 {
        clip-path: url(#clippath-28);
      }

      .cls-41 {
        clip-path: url(#clippath-26);
      }

      .cls-42 {
        clip-path: url(#clippath-34);
      }

      .cls-43 {
        clip-path: url(#clippath-36);
      }

      .cls-44 {
        clip-path: url(#clippath-32);
      }

      .cls-45 {
        clip-path: url(#clippath-30);
      }

      .cls-46 {
        clip-path: url(#clippath-14);
      }

      .cls-47 {
        clip-path: url(#clippath-12);
      }

      .cls-48 {
        clip-path: url(#clippath-10);
      }

      .cls-49 {
        clip-path: url(#clippath-16);
      }

      .cls-50 {
        clip-path: url(#clippath-18);
      }

      .cls-51 {
        opacity: .16;
      }

      .cls-52 {
        opacity: .5;
      }

      .cls-53 {
        isolation: isolate;
      }

      .cls-11 {
        clip-path: url(#clippath-23);
      }

      .cls-12 {
        clip-path: url(#clippath-25);
      }

      .cls-13 {
        clip-path: url(#clippath-21);
      }

      .cls-14 {
        clip-path: url(#clippath-29);
      }

      .cls-15 {
        clip-path: url(#clippath-35);
      }

      .cls-16 {
        clip-path: url(#clippath-33);
      }

      .cls-17 {
        clip-path: url(#clippath-31);
      }

      .cls-18 {
        clip-path: url(#clippath-27);
      }

      .cls-19 {
        clip-path: url(#clippath-13);
      }

      .cls-20 {
        clip-path: url(#clippath-15);
      }

      .cls-21 {
        clip-path: url(#clippath-17);
      }

      .cls-22 {
        clip-path: url(#clippath-19);
      }

      .cls-23 {
        clip-path: url(#clippath-11);
      }
    </style>
    <clipPath id="clippath">
      <path class="cls-2" d="m32.78,76.07l.88-5.04,31.92-35.5h7.96l-6.06,34.77h7.31l-1.1,5.77h-7.3l-2.05,11.76h-6.57l2.12-11.76h-27.1Zm33.31-33.6l-24.54,27.83h19.65l4.89-27.83Z"/>
    </clipPath>
    <linearGradient id="linear-gradient" x1="-209.66" y1="241.79" x2="-272.44" y2="312.3" gradientTransform="translate(334 -220)" gradientUnits="userSpaceOnUse">
      <stop offset=".08" stop-color="#c4d600"/>
      <stop offset="1" stop-color="#ffb700"/>
    </linearGradient>
    <linearGradient id="linear-gradient-2" x1="-240.1" y1="287.11" x2="-188.72" y2="189.16" gradientTransform="translate(334 -220)" gradientUnits="userSpaceOnUse">
      <stop offset=".08" stop-color="#c4d600"/>
      <stop offset="1" stop-color="#007934"/>
    </linearGradient>
    <clipPath id="clippath-1">
      <path class="cls-2" d="m152.2,80.11c1.5,1.48,3.75,2.21,6.75,2.21,3.97,0,7.19-1.57,9.69-4.72,2.49-3.14,4.34-8.44,5.55-15.89-1.4,2.18-3.41,3.88-6.02,5.12s-5.37,1.85-8.27,1.85c-4.31,0-7.74-1.15-10.3-3.45-2.56-2.3-3.85-5.55-3.85-9.76,0-1.06.12-2.37.36-3.92.92-5.18,3.16-9.35,6.71-12.52,3.55-3.17,8.11-4.75,13.68-4.75,5.22,0,8.98,1.33,11.28,3.99,2.3,2.66,3.45,6.58,3.45,11.75,0,2.76-.36,6.26-1.09,10.52-1.06,6.09-2.48,11.13-4.24,15.09-1.77,3.97-4.14,6.99-7.11,9.07-2.97,2.08-6.71,3.12-11.21,3.12s-8.12-1.17-10.41-3.52c-2.3-2.35-3.45-5.41-3.45-9.18,0-.63.02-1.11.07-1.45h6.09c.05,2.81.82,4.95,2.32,6.42Zm18.32-20.03c2.44-2.01,3.96-4.73,4.54-8.16.19-1.35.29-2.32.29-2.9,0-2.85-.83-5.1-2.5-6.75s-4.08-2.47-7.22-2.47c-3.39,0-6.26,1.07-8.63,3.19-2.37,2.13-3.87,4.93-4.5,8.42-.14.92-.22,1.84-.22,2.76,0,2.76.81,4.93,2.43,6.53,1.62,1.6,4.05,2.39,7.29,2.39s6.08-1,8.53-3.01Z"/>
    </clipPath>
    <clipPath id="clippath-2">
      <path class="cls-2" d="m103.57,42.1l1.1-6.06h13.73l-9.13,51.79h-6.72l8.04-45.73h-7.01Z"/>
    </clipPath>
    <clipPath id="clippath-3">
      <path class="cls-27" d="m100.47,67.09c-.68-1.3-.96-2.24-.96-2.45,0-.43.94-.68.94-.68,1.45-.77,8.27.34,11.35.85s5.2.51,5.2.51c0,0,.43-.34.94-.77s2.9-3.24,3.84-3.5c.94-.26,1.79.34,1.79.34,0,0,1.54.94,1.28,1.11-.26.17-4.01,3.41-4.95,4.01s-2.9.34-4.61.68c-1.47.29-7.42.66-8.79.77,0,0-1.36.43-3.07-.26"/>
    </clipPath>
    <clipPath id="clippath-4">
      <path class="cls-6" d="m105.41,68.21c-.54,0-1.25-.09-2.03-.4-.06-.02-.09-.09-.06-.15s.09-.09.15-.06c1.64.66,2.98.26,2.99.25,0,0,.02,0,.02,0,.3-.02.83-.06,1.49-.11,2.3-.16,6.15-.43,7.28-.66.69-.14,1.42-.18,2.11-.22.99-.06,1.92-.11,2.45-.45.63-.4,2.53-2,3.8-3.06.63-.53.99-.83,1.12-.93-.09-.16-.69-.6-1.24-.94-.01,0-.83-.57-1.7-.33-.64.17-2.1,1.72-2.97,2.64-.37.4-.67.71-.82.83-.51.43-.94.77-.94.77-.02.02-.05.03-.07.03-.02,0-2.18,0-5.22-.51-2.43-.4-9.82-1.64-11.27-.86,0,0-.02,0-.02,0-.28.08-.85.32-.85.57,0,.2.29,1.13.95,2.4.03.06,0,.13-.05.16-.06.03-.13,0-.16-.05-.67-1.28-.98-2.25-.98-2.51,0-.49.86-.75,1.01-.79,1.39-.71,7.17.14,11.41.85,2.8.47,4.84.51,5.14.51.11-.09.48-.38.9-.74.14-.12.43-.42.8-.81,1-1.06,2.38-2.51,3.08-2.71.98-.27,1.85.33,1.89.36.5.31,1.35.87,1.36,1.15,0,.06-.03.12-.08.15-.08.05-.56.46-1.13.93-1.27,1.06-3.18,2.67-3.82,3.08-.59.37-1.55.43-2.57.48-.69.04-1.4.08-2.08.21-1.15.23-5.01.5-7.31.66-.65.05-1.17.08-1.48.11-.08.02-.49.13-1.11.14Z"/>
    </clipPath>
    <clipPath id="clippath-5">
      <path class="cls-27" d="m134.16,74.67c.31-.6.93-.97,1.61-.97h15.51s1.12,0,.78,2.13c-.34,2.13-4.93,15.13-6.05,19.06-1.12,3.92-1.35,12.22-1.35,12.22h-18.61s1.49-19.81,8.11-32.44Z"/>
    </clipPath>
    <clipPath id="clippath-6">
      <path class="cls-4" d="m144.66,107.23h-18.61s-.06-.01-.09-.04c-.02-.02-.03-.06-.03-.09.01-.2,1.57-19.98,8.12-32.48l.1.05-.1-.05c.33-.64.99-1.03,1.71-1.03h15.51s.35,0,.62.32c.33.38.42,1.04.28,1.94-.2,1.26-1.84,6.19-3.43,10.95-1.11,3.34-2.17,6.5-2.63,8.12-1.1,3.86-1.34,12.11-1.34,12.19,0,.06-.05.11-.12.11Zm-18.48-.23h18.37c.03-1.01.31-8.49,1.35-12.13.46-1.63,1.52-4.79,2.63-8.13,1.58-4.76,3.22-9.67,3.42-10.91.16-1.03-.03-1.52-.22-1.75-.2-.24-.44-.25-.45-.25h-15.51c-.64,0-1.21.35-1.51.91h0c-6.26,11.94-7.94,30.56-8.08,32.27Z"/>
    </clipPath>
    <clipPath id="clippath-7">
      <path class="cls-27" d="m99.51,64.63s0,.03,0,.05c0-.02,0-.04,0-.05Zm.96,2.45c-.55-1.06-.84-1.87-.93-2.26.09.38.38,1.2.93,2.26Zm-.96-2.39s0,.03,0,.05c0-.02,0-.04,0-.05Zm.01.07s0,.04.01.07c0-.02-.01-.05-.01-.07Zm.95,2.33c.66,1.27,1.7,2.9,3.22,4.54,3.07,3.33,11.94,12.03,12.8,12.63.85.6.6,2.3,0,4.01-.6,1.71-2.82,4.18-2.73,6.91s.94,6.91.85,7.76c-.09.85-2.22,3.75-2.22,3.75h22.01s-2.74-3.48-2.74-4.68,3.77-16.48,3.94-17.59c.17-1.11-.51-1.88-1.88-1.96-1.36-.09-6.57-1.19-6.82-2.05s1.36-4.09,1.36-4.09l-5.12.26s-.26,2.22-.6,2.64-.85-.43-2.05-1.02c-1.19-.6-3.5-1.11-4.35-1.79-.85-.68-9.04-8.36-9.04-8.36"/>
    </clipPath>
    <clipPath id="clippath-8">
      <path class="cls-3" d="m134.4,106.8h-22.01s-.08-.02-.1-.06-.02-.09,0-.12c.73-.99,2.13-3.05,2.2-3.7.04-.37-.12-1.46-.3-2.72-.23-1.57-.51-3.52-.55-5.03-.06-1.88.96-3.65,1.78-5.08.39-.68.76-1.33.95-1.87.41-1.17.96-3.23.04-3.88-.88-.62-9.7-9.26-12.81-12.64-1.63-1.76-2.66-3.45-3.23-4.56,0,0,0,0,0,0-.53-1.03-.83-1.84-.94-2.26,0,0,0-.02,0-.02h0s-.01-.05-.01-.07c0,0,0,0,0,0,0,0,0,0,0-.01,0-.02,0-.04,0-.06,0,0,0,0,0,0,0,0,0,0,0-.01h0s0,0,0,0c0-.02,0-.04,0-.05h0c0-.07.05-.12.12-.12s.12.05.12.12h0s0,.02,0,.03c0,0,0,0,0,0,0,0,0,0,0,0v.05s0,0,0,0c0,0,0,0,0,.01,0,.02,0,.04.01.06,0,0,0,0,0,0h0s0,0,0,0c.06.25.2.68.44,1.23.13.3.29.63.47.99,0,0,0,0,0,0,.57,1.1,1.59,2.77,3.2,4.51,3.01,3.26,11.93,12.02,12.78,12.61.99.69.57,2.64.04,4.14-.2.56-.57,1.22-.97,1.91-.85,1.48-1.81,3.15-1.75,4.96.05,1.49.33,3.44.55,5,.19,1.33.34,2.38.3,2.78-.08.76-1.63,2.96-2.11,3.63h21.54c-.58-.75-2.62-3.49-2.62-4.56,0-.77,1.49-7.09,2.69-12.17.64-2.7,1.19-5.04,1.25-5.44.07-.47-.02-.89-.27-1.19-.3-.37-.82-.59-1.5-.63-.67-.04-2.29-.33-3.85-.74-1.92-.5-2.95-.97-3.08-1.39-.24-.78.93-3.26,1.28-4l-4.82.24c-.06.47-.29,2.2-.61,2.61-.28.34-.62.08-1.06-.26-.29-.22-.65-.5-1.13-.73-.48-.24-1.14-.47-1.84-.7-.99-.34-2.01-.69-2.53-1.1-.85-.68-8.71-8.05-9.05-8.37-.05-.04-.05-.12,0-.16.04-.05.12-.05.16,0,.08.08,8.2,7.68,9.04,8.35.49.39,1.49.73,2.46,1.06.71.24,1.37.47,1.87.72.49.25.86.53,1.16.76.49.37.62.44.74.3.26-.33.5-1.98.57-2.59,0-.06.05-.1.11-.1l5.12-.26s.08.02.1.05c.02.03.02.08,0,.12-.45.89-1.56,3.35-1.36,4.01.04.12.35.56,2.91,1.23,1.55.41,3.15.69,3.81.73.75.05,1.33.3,1.67.72.29.36.4.84.32,1.37-.06.41-.59,2.63-1.25,5.46-1.13,4.8-2.68,11.36-2.68,12.11,0,1.14,2.69,4.57,2.72,4.61.03.04.03.08.01.12-.02.04-.06.07-.1.07Z"/>
    </clipPath>
    <clipPath id="clippath-9">
      <path class="cls-27" d="m126.89,80.41c-.26-.85,1.36-4.09,1.36-4.09l-5.12.26s-.26,2.22-.6,2.64-.85-.43-2.05-1.02c-.09-.05-.19-.09-.29-.13l-.31,4.86s.45,4.71,5.83,3.81c2.18-.36,4.5-2.31,6.5-4.49-2.05-.38-5.13-1.18-5.33-1.83Z"/>
    </clipPath>
    <clipPath id="clippath-10">
      <path class="cls-5" d="m124.42,86.97c-1.16,0-2.14-.3-2.92-.9-1.53-1.17-1.72-3.05-1.73-3.13l.31-4.88s.02-.07.06-.09c.03-.02.07-.02.11,0,.1.05.21.09.3.14.49.25.86.53,1.16.76.49.37.62.44.74.3.26-.33.5-1.98.57-2.59,0-.06.05-.1.11-.1l5.12-.26s.08.02.1.05c.02.03.02.08,0,.12-.45.89-1.56,3.35-1.36,4.01h0c.16.52,2.79,1.3,5.24,1.75.04,0,.08.04.09.08.01.04,0,.08-.02.12-2.46,2.69-4.66,4.21-6.57,4.53-.46.08-.9.12-1.32.12Zm-4.12-8.73l-.3,4.7s.2,1.84,1.64,2.95c1,.77,2.37,1.02,4.05.74,1.81-.3,3.93-1.75,6.29-4.3-.97-.19-4.96-1.02-5.21-1.87h0c-.24-.78.93-3.26,1.28-4l-4.82.24c-.06.47-.29,2.2-.61,2.61-.28.34-.62.08-1.06-.26-.29-.22-.65-.5-1.13-.73-.04-.02-.09-.04-.14-.06Z"/>
    </clipPath>
    <clipPath id="clippath-11">
      <path class="cls-26" d="m122.54,79.22c-.34.43-.85-.43-2.05-1.02-.75-.38-1.95-.72-2.95-1.1-.28-.67-.65-1.54-.89-2.06-.43-.94-1.11-.34-1.11-.34,0,0-.43-.43-.85-1.36s-1.11-.85-2.05-1.02c-.94-.17-2.9-1.96-2.9-1.96,0,0-.92-.69-1.3-1.04-.44.87-1.5,2.4-3.79,3.35,3.65,3.81,11.05,11.05,11.82,11.59.85.6.6,2.3,0,4.01-.6,1.71-2.82,4.18-2.73,6.91s.94,6.91.85,7.76c-.08.76-1.78,3.15-2.15,3.66l.87.1h4.51c-.02-2.29-.02-11.63,1.54-15.35,1.79-4.27,3.16-12.11,3.16-12.11Z"/>
    </clipPath>
    <clipPath id="clippath-12">
      <path class="cls-23" d="m117.84,106.8h-4.51l-.88-.1s-.08-.03-.09-.07c-.02-.04-.01-.08.01-.12.94-1.31,2.07-3.03,2.13-3.6.04-.37-.12-1.46-.3-2.72-.23-1.57-.51-3.52-.55-5.03-.06-1.88.96-3.65,1.78-5.08.39-.68.76-1.33.95-1.87.41-1.17.96-3.23.04-3.88-.81-.57-8.34-7.95-11.84-11.61-.03-.03-.04-.07-.03-.1,0-.04.03-.07.07-.08,2.27-.95,3.31-2.47,3.73-3.3.02-.03.05-.06.08-.06.03,0,.07,0,.1.03.37.35,1.28,1.03,1.29,1.04.03.02,1.96,1.78,2.85,1.94.16.03.31.05.46.07.72.1,1.3.18,1.68,1.02.31.69.63,1.1.76,1.26.12-.08.35-.19.6-.13.25.05.45.25.6.58.19.41.48,1.09.87,2.02.33.12.69.25,1.04.37.71.24,1.37.47,1.87.72.49.25.86.53,1.16.76.49.37.62.44.74.3.03-.04.09-.05.14-.03.05.02.08.07.07.13-.01.08-1.39,7.91-3.16,12.14-1.58,3.75-1.55,13.41-1.53,15.31,0,.03-.01.06-.03.08s-.05.03-.08.03Zm-5.17-.31l.67.08h4.38c-.03-2.82.02-11.64,1.55-15.28,1.59-3.78,2.85-10.47,3.1-11.84-.23.03-.5-.17-.81-.42-.29-.22-.65-.5-1.13-.73-.48-.24-1.14-.47-1.84-.7-.37-.12-.74-.25-1.09-.39-.03-.01-.05-.03-.07-.06-.4-.95-.7-1.64-.89-2.06-.12-.26-.27-.41-.44-.45-.25-.05-.49.15-.49.15-.05.04-.12.04-.16,0-.02-.02-.45-.45-.88-1.4-.33-.72-.79-.79-1.5-.89-.15-.02-.3-.04-.47-.07-.96-.17-2.88-1.92-2.96-1.99-.03-.02-.77-.57-1.19-.94-.46.86-1.5,2.28-3.62,3.21,3.8,3.96,10.96,10.94,11.69,11.46.99.69.57,2.64.04,4.14-.2.56-.57,1.22-.97,1.91-.85,1.48-1.81,3.15-1.75,4.96.05,1.49.33,3.44.55,5,.19,1.33.34,2.38.3,2.78-.07.72-1.47,2.73-2.05,3.55Z"/>
    </clipPath>
    <clipPath id="clippath-13">
      <path class="cls-26" d="m122.6,78.92s-1.06-.33-1.71.24c-.65.57-1.63,3.51-2.2,6.69-.57,3.18.7,5.48.7,5.48,0,0,1.34-3.52,1.75-5.23.41-1.71,1.47-7.18,1.47-7.18Z"/>
    </clipPath>
    <clipPath id="clippath-14">
      <path class="cls-19" d="m119.38,91.45s-.08-.02-.1-.06c-.01-.02-1.28-2.37-.71-5.55.57-3.19,1.56-6.16,2.24-6.76.69-.61,1.78-.28,1.82-.27.06.02.09.07.08.13-.01.05-1.07,5.49-1.47,7.18-.4,1.7-1.74,5.21-1.75,5.25-.02.04-.06.07-.1.07,0,0,0,0,0,0Zm2.53-12.5c-.31,0-.68.07-.95.31-.64.56-1.61,3.53-2.16,6.62-.45,2.53.28,4.5.57,5.16.31-.84,1.31-3.54,1.65-4.96.37-1.56,1.3-6.29,1.45-7.07-.11-.03-.32-.06-.55-.06Z"/>
    </clipPath>
    <clipPath id="clippath-15">
      <path class="cls-26" d="m124.45,106.69h9.95s-2.74-3.48-2.74-4.68,3.77-16.48,3.94-17.59c.17-1.11-.51-1.88-1.88-1.96-1.36-.09-6.57-1.19-6.82-2.05,0,0-1.96,6.91-2.64,11.6-.59,4.02.02,12.37.21,14.67Z"/>
    </clipPath>
    <clipPath id="clippath-16">
      <path class="cls-20" d="m134.4,106.8h-9.95c-.06,0-.11-.05-.12-.11-.2-2.43-.79-10.69-.21-14.7.68-4.65,2.63-11.55,2.65-11.62.01-.05.06-.08.11-.08h0c.05,0,.1.03.11.08.22.74,5.2,1.87,6.72,1.96.75.05,1.33.3,1.67.72.29.36.4.84.32,1.37-.06.41-.59,2.63-1.25,5.46-1.13,4.8-2.68,11.36-2.68,12.11,0,1.14,2.69,4.57,2.72,4.61.03.03.03.08.01.12-.02.04-.06.07-.1.07Zm-9.84-.23h9.6c-.58-.75-2.62-3.49-2.62-4.56,0-.77,1.49-7.09,2.69-12.17.64-2.7,1.19-5.04,1.25-5.44.07-.47-.02-.89-.27-1.19-.3-.37-.82-.59-1.5-.63-1.16-.07-5.82-1.01-6.77-1.9-.34,1.24-1.97,7.2-2.58,11.36-.57,3.93,0,11.99.2,14.54Z"/>
    </clipPath>
    <clipPath id="clippath-17">
      <path class="cls-26" d="m126.89,80.41s-2.63,8.38-2.64,11.6c0,0,3.74-4.53,4.23-7.71.49-3.18-1.58-3.89-1.58-3.89Z"/>
    </clipPath>
    <clipPath id="clippath-18">
      <path class="cls-21" d="m124.24,92.13s-.03,0-.04,0c-.05-.02-.08-.06-.08-.11.01-3.2,2.54-11.29,2.65-11.64,0-.03.03-.05.06-.07.03-.01.06-.02.09,0,.02,0,2.16.78,1.66,4.02-.49,3.18-4.1,7.58-4.25,7.76-.02.03-.06.04-.09.04Zm2.72-11.56c-.31,1.01-2.42,7.95-2.59,11.1.8-1.02,3.58-4.71,3.99-7.38.4-2.62-.99-3.51-1.4-3.72Z"/>
    </clipPath>
    <clipPath id="clippath-19">
      <path class="cls-27" d="m154.99,105.11s1.93.08,3.19.26c1.26.18,2.54.2,2.54.2,0,0-.69-1.41-1.44-1.8-.75-.4-2.09-1.11-3.22-.95-1.13.16-2.74,1.29-2.61,1.66.13.37.74.53,1.55.63Z"/>
    </clipPath>
    <clipPath id="clippath-20">
      <path class="cls-22" d="m160.71,105.69h0s-1.3-.02-2.55-.2c-1.24-.18-3.16-.26-3.18-.26,0,0,0,0-.01,0-.88-.12-1.49-.28-1.64-.71-.03-.09,0-.19.06-.31.32-.53,1.69-1.37,2.64-1.5,1.16-.16,2.54.57,3.28.96.78.41,1.47,1.8,1.5,1.86.02.04.02.08,0,.11-.02.03-.06.05-.1.05Zm-5.72-.69c.11,0,1.97.09,3.19.26.95.14,1.92.18,2.33.19-.21-.38-.74-1.29-1.3-1.58-.73-.38-2.07-1.09-3.15-.94-.95.13-2.21.96-2.48,1.39-.05.08-.04.11-.04.11.12.34.8.47,1.45.56Z"/>
    </clipPath>
    <clipPath id="clippath-21">
      <path class="cls-27" d="m158.18,104.54s1.53-.79,1.91-.78c.38,0,2.92,1.73,2.79,2-.13.27-.61.39-.8.3-.28-.13-1.99-.86-1.99-.86l-1.12.26-.8-.92Z"/>
    </clipPath>
    <clipPath id="clippath-22">
      <path class="cls-13" d="m162.25,106.2c-.08,0-.16-.01-.22-.04-.25-.12-1.7-.74-1.95-.84l-1.08.25s-.09,0-.11-.04l-.8-.92s-.03-.06-.03-.1c0-.03.03-.06.06-.08.16-.08,1.55-.8,1.96-.8h0c.41.01,2.57,1.48,2.86,1.95.02.03.08.13.03.22-.07.14-.21.26-.4.33-.11.04-.23.06-.33.06Zm-2.16-1.12s.03,0,.05,0c.07.03,1.71.73,1.99.86.06.03.22.03.37-.03.12-.05.22-.11.26-.19-.13-.32-2.32-1.85-2.68-1.86h0c-.25,0-1.13.41-1.72.7l.65.75,1.05-.25s.02,0,.03,0Z"/>
    </clipPath>
    <clipPath id="clippath-23">
      <path class="cls-27" d="m157.1,103.23s2.04-.07,2.44.14c.4.21,2.23,3.34,1.96,3.57-.28.23-1.03.16-1.01-.09.02-.25-1.68-1.93-1.68-1.93l-1.33-.29-.38-1.39Z"/>
    </clipPath>
    <clipPath id="clippath-24">
      <path class="cls-11" d="m160.99,107.2c-.17,0-.33-.03-.45-.09-.16-.09-.18-.2-.17-.27-.03-.16-.85-1.05-1.63-1.82l-1.29-.28s-.08-.04-.09-.08l-.38-1.39s0-.07.02-.1.05-.05.09-.05c.21,0,2.08-.06,2.5.15.43.22,1.97,2.89,2.04,3.53,0,.04.02.16-.07.23-.14.11-.36.17-.58.17Zm-3.42-2.67l1.26.28s.04.02.06.03c.65.64,1.74,1.76,1.72,2.03,0,0,.03.04.11.07.2.07.54.05.69-.06.06-.36-1.55-3.19-1.92-3.38-.26-.13-1.43-.15-2.24-.13l.32,1.18Z"/>
    </clipPath>
    <clipPath id="clippath-25">
      <path class="cls-27" d="m155.89,102.81s2.06-.07,2.47.14c.41.21,2.26,3.38,1.98,3.61-.28.23-1.04.16-1.02-.09.02-.25-1.7-1.96-1.7-1.96l-1.34-.3-.38-1.41Z"/>
    </clipPath>
    <clipPath id="clippath-26">
      <path class="cls-12" d="m159.83,106.82c-.17,0-.34-.03-.45-.09-.17-.09-.18-.21-.17-.27-.03-.16-.86-1.06-1.65-1.84l-1.31-.29s-.08-.04-.09-.08l-.38-1.41s0-.07.02-.1.05-.05.09-.05c.21,0,2.1-.06,2.53.16.43.22,2,2.92,2.07,3.57,0,.04.02.16-.07.23-.14.11-.37.17-.58.17Zm-3.46-2.7l1.27.28s.04.02.06.03c.66.65,1.76,1.78,1.74,2.05,0,0,.01.02.05.04.18.09.59.09.77-.04.06-.36-1.57-3.23-1.95-3.43-.26-.14-1.45-.15-2.27-.13l.33,1.2Z"/>
    </clipPath>
    <clipPath id="clippath-27">
      <path class="cls-26" d="m132.44,91c1.49,2.3,4.49,8.13,5.36,8.78,1.36,1.02,10.49,3.51,11.37,4.19.88.68.82,1.36,1.65,1.61.83.25,3.95.96,5.14,1.07,1.19.11.66-.62.66-.62l-2.03-1.39,1.77-.44s1.77,2.13,2.11,2.25.92,0,.88-.26c-.06-.42-1.96-3.86-2.63-4.01-.67-.15-4.75.42-4.75.42,0,0-8.55-5.77-8.71-5.97,0,0-.51-1.45-.94-2.05s-.68-.43-.68-.43c0,0,.17-.77-.09-1.02-.26-.26-1.36-1.36-1.36-1.36l-.05.07c-.22-.47-.46-1-.72-1.6-.71-1.68-3.24-6.4-3.67-7.08-.32-.51-2.99-.87-4.34-1.03"/>
    </clipPath>
    <clipPath id="clippath-28">
      <path class="cls-18" d="m156.19,106.78c-.07,0-.15,0-.23-.01-1.22-.11-4.36-.84-5.17-1.08-.51-.15-.71-.45-.94-.79-.18-.26-.37-.55-.75-.84-.38-.3-2.5-.98-4.73-1.71-2.89-.94-5.87-1.91-6.63-2.48-.56-.42-1.87-2.72-3.25-5.15-.81-1.43-1.58-2.79-2.15-3.66-.03-.05-.02-.13.03-.16.05-.03.13-.02.16.03.57.88,1.34,2.23,2.15,3.67,1.25,2.2,2.66,4.69,3.18,5.08.73.55,3.83,1.56,6.57,2.44,2.36.76,4.39,1.42,4.8,1.75.4.31.61.62.8.89.23.33.39.57.82.7.8.24,3.91.96,5.12,1.07.49.04.6-.06.63-.11.05-.09-.03-.25-.07-.31l-2.01-1.37s-.06-.07-.05-.12.04-.08.09-.09l1.77-.44s.09,0,.12.04c.73.88,1.85,2.14,2.05,2.21.21.07.56.04.69-.08.04-.03.04-.05.03-.06-.07-.46-1.97-3.79-2.54-3.92-.52-.11-3.31.23-4.71.42-.03,0-.06,0-.08-.02-1.43-.96-8.58-5.79-8.73-6,0,0-.01-.02-.02-.03,0-.01-.51-1.44-.92-2.02-.28-.4-.48-.42-.53-.39-.04.03-.09.02-.13,0-.04-.03-.06-.08-.04-.12.06-.27.1-.76-.05-.92l-1.28-1.28s-.04.01-.06.01c-.04,0-.08-.03-.09-.07-.23-.49-.47-1.01-.72-1.61-.73-1.72-3.26-6.42-3.66-7.06-.21-.33-1.8-.69-4.26-.97-.06,0-.11-.06-.1-.13s.07-.11.13-.1c1.84.21,4.11.57,4.43,1.08.4.64,2.94,5.37,3.68,7.1.23.53.44,1.02.66,1.46.03,0,.06.01.09.03l1.36,1.37c.22.22.19.71.15.97.15.02.37.12.63.5.41.57.88,1.86.95,2.05.3.27,5.29,3.66,8.63,5.91.47-.06,4.09-.55,4.75-.41.77.17,2.67,3.76,2.72,4.11.02.1-.03.2-.12.27-.19.16-.63.22-.92.12-.33-.12-1.73-1.77-2.11-2.23l-1.45.36,1.82,1.24s.02.02.03.03c.02.03.23.33.09.58-.09.16-.3.24-.62.24Z"/>
    </clipPath>
    <clipPath id="clippath-29">
      <path class="cls-27" d="m149.17,103.97c.88.68.82,1.36,1.65,1.61.83.25,3.95.96,5.14,1.07,1.19.11.66-.62.66-.62l-2.03-1.39,1.77-.44s1.77,2.13,2.11,2.25.96.16.88-.26c-.16-.82-1.96-3.86-2.63-4.01-.67-.15-4.75.42-4.75.42,0,0-7.79-5.35-8.64-5.93-3.31.32-4.89,2.05-5.54,3.09,0,0,.02.01.02.02,1.36,1.02,10.49,3.51,11.37,4.19Z"/>
    </clipPath>
    <clipPath id="clippath-30">
      <path class="cls-14" d="m156.19,106.78c-.07,0-.15,0-.23-.01-1.22-.11-4.36-.84-5.17-1.08-.51-.15-.71-.45-.94-.79-.18-.26-.37-.55-.75-.84-.38-.3-2.5-.98-4.73-1.71-2.89-.94-5.87-1.91-6.63-2.48-.05-.04-.08-.12-.05-.17.65-1.03,2.26-2.82,5.63-3.14.03,0,.05,0,.08.02.81.55,8.02,5.5,8.61,5.9.47-.06,4.09-.55,4.75-.41.76.17,2.55,3.27,2.72,4.1.04.19-.04.3-.11.36-.22.19-.67.13-.93.04-.33-.12-1.73-1.77-2.11-2.23l-1.45.36,1.82,1.24s.02.02.03.03c.02.03.23.33.09.58-.09.16-.3.24-.62.24Zm-18.25-7.04c.84.56,3.84,1.53,6.5,2.4,2.36.76,4.39,1.42,4.8,1.75.4.31.61.62.8.89.23.33.39.57.82.7.8.24,3.91.96,5.12,1.07.49.04.6-.06.63-.11.05-.09-.03-.25-.07-.31l-2.01-1.37s-.06-.07-.05-.12.04-.08.09-.09l1.77-.44s.09,0,.12.04c.73.88,1.85,2.14,2.05,2.21.24.08.58.11.7,0,.02-.02.05-.05.03-.14-.16-.81-1.94-3.79-2.54-3.92-.51-.11-3.31.23-4.71.42-.03,0-.06,0-.08-.02-.08-.05-7.61-5.23-8.61-5.9-3.15.32-4.69,1.94-5.36,2.94Zm-.13.04h0s0,0,0,0h0Z"/>
    </clipPath>
    <clipPath id="clippath-31">
      <path class="cls-27" d="m128.62,63.37l-7,2.92s-.07,1.81-.9,3.56-.34,5.06.45,6.85c.79,1.79,4.3,1.09,5.59.87,1.29-.22,2.54-.74,2.54-.74,0,0,1.14.51,2.27-.32,0,0-3.76-10.52-2.95-13.14Z"/>
    </clipPath>
    <clipPath id="clippath-32">
      <path class="cls-17" d="m123.94,78c-1.23,0-2.43-.27-2.87-1.26-.86-1.92-1.25-5.25-.45-6.95.81-1.71.89-3.5.89-3.51,0-.05.03-.09.07-.1l7-2.92s.09,0,.12.02c.03.03.05.08.03.12-.79,2.55,2.91,12.96,2.95,13.07.02.05,0,.1-.04.13-1.05.78-2.1.44-2.34.35-.24.09-1.37.53-2.52.73l-.17.03c-.64.11-1.66.29-2.67.29Zm-2.2-11.63c-.02.36-.17,1.98-.91,3.53-.77,1.64-.38,4.88.45,6.76.72,1.63,3.92,1.07,5.29.83l.17-.03c1.26-.22,2.51-.73,2.52-.73.03-.01.06-.01.09,0,.04.02,1.05.45,2.08-.25-.37-1.04-3.52-10.07-2.98-12.9l-6.72,2.81Z"/>
    </clipPath>
    <clipPath id="clippath-33">
      <path class="cls-27" d="m105.42,105.37c-.59,0-1.22-.24-1.47-.35-.26-.11-.38-.41-.27-.67.11-.26.41-.38.67-.27.47.2,1.07.32,1.23.25.29-.33.75-2.33.16-3.29-.13-.21-.25-.25-.34-.26-.33-.05-.83.3-1,.46-.2.19-.53.18-.72-.02-.19-.2-.18-.53.02-.72.09-.09.93-.84,1.83-.72.3.04.73.2,1.06.74.86,1.4.27,4.08-.39,4.61-.22.17-.5.24-.8.24Z"/>
    </clipPath>
    <clipPath id="clippath-34">
      <path class="cls-16" d="m105.42,105.48c-.61,0-1.26-.25-1.51-.36-.32-.14-.46-.5-.33-.82.14-.32.5-.46.82-.33.45.19.97.29,1.12.26.27-.37.66-2.26.13-3.13-.12-.19-.22-.2-.25-.21-.27-.04-.73.27-.91.43-.12.11-.28.17-.45.17-.17,0-.32-.08-.43-.2-.11-.12-.17-.28-.17-.45,0-.17.08-.32.2-.43.1-.09.97-.88,1.92-.75.33.04.79.22,1.15.79.91,1.48.29,4.2-.42,4.76-.22.17-.51.26-.87.26Zm-1.26-1.32c-.15,0-.3.09-.36.24-.04.1-.04.2,0,.3.04.1.11.17.21.21.24.1.85.34,1.42.34.31,0,.55-.07.72-.21.62-.5,1.18-3.13.36-4.46-.3-.5-.7-.64-.98-.68-.84-.11-1.64.61-1.73.69-.16.15-.17.39-.02.55.07.08.17.12.27.12.1,0,.2-.03.28-.1.19-.18.72-.54,1.1-.49.16.02.3.13.42.32.62,1.01.14,3.08-.17,3.43-.01.01-.03.02-.04.03-.21.09-.87-.06-1.32-.25-.05-.02-.1-.03-.15-.03Z"/>
    </clipPath>
    <clipPath id="clippath-35">
      <rect class="cls-27" x="98.93" y="99.37" width="5.59" height="7.42"/>
    </clipPath>
    <clipPath id="clippath-36">
      <path class="cls-15" d="m104.52,106.91h-5.59c-.06,0-.12-.05-.12-.12v-7.42c0-.06.05-.12.12-.12h5.59c.06,0,.12.05.12.12v7.42c0,.06-.05.12-.12.12Zm-5.48-.23h5.36v-7.19h-5.36v7.19Z"/>
    </clipPath>
  </defs>
  <g class="cls-53">
    <g id="Layer_1" data-name="Layer 1">
      <g class="cls-1">
        <g>
          <g>
            <rect class="cls-8" x="-.58" y="-26.98" width="217.38" height="134" transform="translate(216.22 80.04) rotate(180)"/>
            <rect class="cls-9" x="-.58" y="-26.98" width="217.38" height="134" transform="translate(216.22 80.04) rotate(180)"/>
          </g>
          <g>
            <rect class="cls-8" x="-.58" y="-26.98" width="217.38" height="134" transform="translate(216.22 80.04) rotate(180)"/>
            <rect class="cls-9" x="-.58" y="-26.98" width="217.38" height="134" transform="translate(216.22 80.04) rotate(180)"/>
          </g>
          <g>
            <rect class="cls-8" x="-.58" y="-26.98" width="217.38" height="134" transform="translate(216.22 80.04) rotate(180)"/>
            <rect class="cls-9" x="-.58" y="-26.98" width="217.38" height="134" transform="translate(216.22 80.04) rotate(180)"/>
          </g>
          <g>
            <rect class="cls-8" x="-.58" y="-26.98" width="217.38" height="134" transform="translate(216.22 80.04) rotate(180)"/>
            <rect class="cls-9" x="-.58" y="-26.98" width="217.38" height="134" transform="translate(216.22 80.04) rotate(180)"/>
          </g>
        </g>
      </g>
      <g>
        <rect class="cls-26" x="67.17" y="36.09" width="40.94" height="25.39" rx="11.33" ry="11.33"/>
        <g>
          <circle class="cls-24" cx="87.64" cy="44.69" r="6.07" transform="translate(-5.98 14.47) rotate(-9.13)"/>
          <path class="cls-27" d="m87.59,45.81l-2.02,2.6c-.17.24-.39.36-.64.36-.18,0-.34-.06-.47-.19-.13-.12-.2-.28-.2-.47,0-.17.07-.35.2-.54l2.31-2.85-2.17-2.85c-.1-.15-.16-.3-.16-.46,0-.2.08-.38.23-.53.15-.15.33-.23.53-.23.25,0,.46.12.63.36l1.95,2.57,1.97-2.53c.2-.27.42-.41.68-.41.18,0,.33.06.45.19.13.13.19.28.19.46,0,.15-.05.28-.15.42l-2.31,2.96,2.23,2.95c.11.15.17.3.17.46,0,.2-.08.37-.23.52-.16.14-.33.21-.54.21-.25,0-.47-.12-.64-.36l-2.02-2.65Z"/>
        </g>
        <path class="cls-27" d="m99.21,57.08h-23.14c-.98,0-1.77-.79-1.77-1.77h0c0-.98.79-1.77,1.77-1.77h23.14c.98,0,1.77.79,1.77,1.77h0c0,.98-.79,1.77-1.77,1.77Z"/>
        <g>
          <path class="cls-10" d="m79.24,55.88s-.06-.01-.08-.04c-.02-.02-.04-.05-.04-.09,0-.03,0-.05.02-.08l.18-.27h-.36s-.07,0-.09-.02c-.02-.02-.03-.05-.03-.09s.01-.06.03-.09.05-.04.09-.04h.35s-.17-.25-.17-.25c-.02-.03-.03-.06-.03-.09,0-.04.01-.07.04-.09.02-.02.05-.04.08-.04.04,0,.08.02.1.07l.17.31.16-.3c.03-.05.07-.08.12-.08.03,0,.06.01.08.03.02.02.03.05.03.09,0,.03,0,.05-.02.08l-.17.28h.36s.07,0,.09.02.03.05.03.09-.01.06-.03.09c-.02.02-.05.04-.09.04h-.36s.16.24.16.24c.02.04.03.07.03.1,0,.04-.01.06-.03.09-.02.02-.05.03-.08.03-.05,0-.09-.03-.11-.08l-.16-.29-.16.29c-.03.05-.07.08-.12.08Z"/>
          <path class="cls-10" d="m81.04,55.88s-.06-.01-.08-.04c-.02-.02-.04-.05-.04-.09,0-.03,0-.05.02-.08l.18-.27h-.36s-.07,0-.09-.02c-.02-.02-.03-.05-.03-.09s.01-.06.03-.09c.02-.02.05-.04.09-.04h.35s-.17-.25-.17-.25c-.02-.03-.03-.06-.03-.09,0-.04.01-.07.04-.09.02-.02.05-.04.08-.04.04,0,.08.02.1.07l.17.31.16-.3c.03-.05.07-.08.12-.08.03,0,.06.01.08.03.02.02.03.05.03.09,0,.03,0,.05-.02.08l-.17.28h.36s.07,0,.09.02c.02.02.03.05.03.09s-.01.06-.03.09c-.02.02-.05.04-.09.04h-.36s.16.24.16.24c.02.04.03.07.03.1,0,.04-.01.06-.03.09-.02.02-.05.03-.08.03-.05,0-.09-.03-.11-.08l-.16-.29-.16.29c-.03.05-.07.08-.12.08Z"/>
          <path class="cls-10" d="m82.85,55.88s-.06-.01-.08-.04c-.02-.02-.04-.05-.04-.09,0-.03,0-.05.02-.08l.18-.27h-.36s-.07,0-.09-.02c-.02-.02-.03-.05-.03-.09s.01-.06.03-.09.05-.04.09-.04h.35s-.17-.25-.17-.25c-.02-.03-.03-.06-.03-.09,0-.04.01-.07.04-.09.02-.02.05-.04.08-.04.04,0,.08.02.1.07l.17.31.16-.3c.03-.05.07-.08.12-.08.03,0,.06.01.08.03.02.02.03.05.03.09,0,.03,0,.05-.02.08l-.17.28h.36s.07,0,.09.02.03.05.03.09-.01.06-.03.09c-.02.02-.05.04-.09.04h-.36s.16.24.16.24c.02.04.03.07.03.1,0,.04-.01.06-.03.09-.02.02-.05.03-.08.03-.05,0-.09-.03-.11-.08l-.16-.29-.16.29c-.03.05-.07.08-.12.08Z"/>
          <path class="cls-10" d="m84.65,55.88s-.06-.01-.08-.04c-.02-.02-.04-.05-.04-.09,0-.03,0-.05.02-.08l.18-.27h-.36s-.07,0-.09-.02c-.02-.02-.03-.05-.03-.09s.01-.06.03-.09c.02-.02.05-.04.09-.04h.35s-.17-.25-.17-.25c-.02-.03-.03-.06-.03-.09,0-.04.01-.07.04-.09.02-.02.05-.04.08-.04.04,0,.08.02.1.07l.17.31.16-.3c.03-.05.07-.08.12-.08.03,0,.06.01.08.03.02.02.03.05.03.09,0,.03,0,.05-.02.08l-.17.28h.36s.07,0,.09.02c.02.02.03.05.03.09s-.01.06-.03.09c-.02.02-.05.04-.09.04h-.36s.16.24.16.24c.02.04.03.07.03.1,0,.04-.01.06-.03.09-.02.02-.05.03-.08.03-.05,0-.09-.03-.11-.08l-.16-.29-.16.29c-.03.05-.07.08-.12.08Z"/>
          <path class="cls-10" d="m86.46,55.88s-.06-.01-.08-.04c-.02-.02-.04-.05-.04-.09,0-.03,0-.05.02-.08l.18-.27h-.36s-.07,0-.09-.02c-.02-.02-.03-.05-.03-.09s.01-.06.03-.09.05-.04.09-.04h.35s-.17-.25-.17-.25c-.02-.03-.03-.06-.03-.09,0-.04.01-.07.04-.09.02-.02.05-.04.08-.04.04,0,.08.02.1.07l.17.31.16-.3c.03-.05.07-.08.12-.08.03,0,.06.01.08.03.02.02.03.05.03.09,0,.03,0,.05-.02.08l-.17.28h.36s.07,0,.09.02.03.05.03.09-.01.06-.03.09c-.02.02-.05.04-.09.04h-.36s.16.24.16.24c.02.04.03.07.03.1,0,.04-.01.06-.03.09-.02.02-.05.03-.08.03-.05,0-.09-.03-.11-.08l-.16-.29-.16.29c-.03.05-.07.08-.12.08Z"/>
          <path class="cls-10" d="m88.26,55.88s-.06-.01-.08-.04c-.02-.02-.04-.05-.04-.09,0-.03,0-.05.02-.08l.18-.27h-.36s-.07,0-.09-.02c-.02-.02-.03-.05-.03-.09s.01-.06.03-.09c.02-.02.05-.04.09-.04h.35s-.17-.25-.17-.25c-.02-.03-.03-.06-.03-.09,0-.04.01-.07.04-.09.02-.02.05-.04.08-.04.04,0,.08.02.1.07l.17.31.16-.3c.03-.05.07-.08.12-.08.03,0,.06.01.08.03.02.02.03.05.03.09,0,.03,0,.05-.02.08l-.17.28h.36s.07,0,.09.02c.02.02.03.05.03.09s-.01.06-.03.09c-.02.02-.05.04-.09.04h-.36s.16.24.16.24c.02.04.03.07.03.1,0,.04-.01.06-.03.09-.02.02-.05.03-.08.03-.05,0-.09-.03-.11-.08l-.16-.29-.16.29c-.03.05-.07.08-.12.08Z"/>
          <path class="cls-10" d="m90.06,55.88s-.06-.01-.08-.04c-.02-.02-.04-.05-.04-.09,0-.03,0-.05.02-.08l.18-.27h-.36s-.07,0-.09-.02c-.02-.02-.03-.05-.03-.09s.01-.06.03-.09c.02-.02.05-.04.09-.04h.35s-.17-.25-.17-.25c-.02-.03-.03-.06-.03-.09,0-.04.01-.07.04-.09.02-.02.05-.04.08-.04.04,0,.08.02.1.07l.17.31.16-.3c.03-.05.07-.08.12-.08.03,0,.06.01.08.03.02.02.03.05.03.09,0,.03,0,.05-.02.08l-.17.28h.36s.07,0,.09.02.03.05.03.09-.01.06-.03.09c-.02.02-.05.04-.09.04h-.36s.16.24.16.24c.02.04.03.07.03.1,0,.04-.01.06-.03.09-.02.02-.05.03-.08.03-.05,0-.09-.03-.11-.08l-.16-.29-.16.29c-.03.05-.07.08-.12.08Z"/>
          <path class="cls-10" d="m91.87,55.88s-.06-.01-.08-.04c-.02-.02-.04-.05-.04-.09,0-.03,0-.05.02-.08l.18-.27h-.36s-.07,0-.09-.02c-.02-.02-.03-.05-.03-.09s.01-.06.03-.09.05-.04.09-.04h.35s-.17-.25-.17-.25c-.02-.03-.03-.06-.03-.09,0-.04.01-.07.04-.09.02-.02.05-.04.08-.04.04,0,.08.02.1.07l.17.31.16-.3c.03-.05.07-.08.12-.08.03,0,.06.01.08.03.02.02.03.05.03.09,0,.03,0,.05-.02.08l-.17.28h.36s.07,0,.09.02.03.05.03.09-.01.06-.03.09c-.02.02-.05.04-.09.04h-.36s.16.24.16.24c.02.04.03.07.03.1,0,.04-.01.06-.03.09-.02.02-.05.03-.08.03-.05,0-.09-.03-.11-.08l-.16-.29-.16.29c-.03.05-.07.08-.12.08Z"/>
          <path class="cls-10" d="m93.67,55.88s-.06-.01-.08-.04c-.02-.02-.04-.05-.04-.09,0-.03,0-.05.02-.08l.18-.27h-.36s-.07,0-.09-.02c-.02-.02-.03-.05-.03-.09s.01-.06.03-.09.05-.04.09-.04h.35s-.17-.25-.17-.25c-.02-.03-.03-.06-.03-.09,0-.04.01-.07.04-.09.02-.02.05-.04.08-.04.04,0,.08.02.1.07l.17.31.16-.3c.03-.05.07-.08.12-.08.03,0,.06.01.08.03.02.02.03.05.03.09,0,.03,0,.05-.02.08l-.17.28h.36s.07,0,.09.02c.02.02.03.05.03.09s-.01.06-.03.09c-.02.02-.05.04-.09.04h-.36s.16.24.16.24c.02.04.03.07.03.1,0,.04-.01.06-.03.09-.02.02-.05.03-.08.03-.05,0-.09-.03-.11-.08l-.16-.29-.16.29c-.03.05-.07.08-.12.08Z"/>
          <path class="cls-10" d="m95.48,55.88s-.06-.01-.08-.04c-.02-.02-.04-.05-.04-.09,0-.03,0-.05.02-.08l.18-.27h-.36s-.07,0-.09-.02c-.02-.02-.03-.05-.03-.09s.01-.06.03-.09.05-.04.09-.04h.35s-.17-.25-.17-.25c-.02-.03-.03-.06-.03-.09,0-.04.01-.07.04-.09.02-.02.05-.04.08-.04.04,0,.08.02.1.07l.17.31.16-.3c.03-.05.07-.08.12-.08.03,0,.06.01.08.03.02.02.03.05.03.09,0,.03,0,.05-.02.08l-.17.28h.36s.07,0,.09.02.03.05.03.09-.01.06-.03.09c-.02.02-.05.04-.09.04h-.36s.16.24.16.24c.02.04.03.07.03.1,0,.04-.01.06-.03.09-.02.02-.05.03-.08.03-.05,0-.09-.03-.11-.08l-.16-.29-.16.29c-.03.05-.07.08-.12.08Z"/>
        </g>
        <path class="cls-27" d="m104.06,60.52h-2.4c-.16,0-.29-.13-.29-.29s.13-.29.29-.29h2.4c.16,0,.29.13.29.29s-.13.29-.29.29Z"/>
        <path class="cls-27" d="m99.37,60.52h-29.31c-1.12,0-2.04-.91-2.04-2.04v-15.96c0-.16.13-.29.29-.29s.29.13.29.29v15.96c0,.8.65,1.45,1.45,1.45h29.31c.16,0,.29.13.29.29s-.13.29-.29.29Z"/>
        <path class="cls-27" d="m68.31,40.98c-.16,0-.29-.13-.29-.29v-2.39c0-.16.13-.29.29-.29s.29.13.29.29v2.39c0,.16-.13.29-.29.29Z"/>
      </g>
      <g class="cls-28">
        <path class="cls-25" d="m213.54,48.81c-5.02-22.82-22.51-40.83-46.32-46.86-6.26-1.59-12.92-2.39-19.54-1.71-27.07,2.79-59.37,21.01-76.13,24.83-16.76,3.82-36.41-11.46-58.69,12C-9.42,60.54-4.27,114.83,40.29,125.47c44.56,10.64,69.36-15.55,89.15-9.82,19.79,5.73,55.23,3.27,76.15-13.64,12.41-10.03,12.31-33.39,7.95-53.2Z"/>
        <path class="cls-7" d="m213.54,48.81c-5.02-22.82-22.51-40.83-46.32-46.86-6.26-1.59-12.92-2.39-19.54-1.71-27.07,2.79-59.37,21.01-76.13,24.83-16.76,3.82-36.41-11.46-58.69,12C-9.42,60.54-4.27,114.83,40.29,125.47c44.56,10.64,69.36-15.55,89.15-9.82,19.79,5.73,55.23,3.27,76.15-13.64,12.41-10.03,12.31-33.39,7.95-53.2Z"/>
      </g>
      <g class="cls-32">
        <g>
          <g>
            <rect class="cls-8" x="-.58" y="-26.98" width="217.38" height="134" transform="translate(216.22 80.04) rotate(180)"/>
            <rect class="cls-9" x="-.58" y="-26.98" width="217.38" height="134" transform="translate(216.22 80.04) rotate(180)"/>
          </g>
          <g>
            <rect class="cls-8" x="-.58" y="-26.98" width="217.38" height="134" transform="translate(216.22 80.04) rotate(180)"/>
            <rect class="cls-9" x="-.58" y="-26.98" width="217.38" height="134" transform="translate(216.22 80.04) rotate(180)"/>
          </g>
          <g>
            <rect class="cls-8" x="-.58" y="-26.98" width="217.38" height="134" transform="translate(216.22 80.04) rotate(180)"/>
            <rect class="cls-9" x="-.58" y="-26.98" width="217.38" height="134" transform="translate(216.22 80.04) rotate(180)"/>
          </g>
          <g>
            <rect class="cls-8" x="-.58" y="-26.98" width="217.38" height="134" transform="translate(216.22 80.04) rotate(180)"/>
            <rect class="cls-9" x="-.58" y="-26.98" width="217.38" height="134" transform="translate(216.22 80.04) rotate(180)"/>
          </g>
        </g>
      </g>
      <g class="cls-34">
        <g>
          <g>
            <rect class="cls-8" x="-.58" y="-26.98" width="217.38" height="134" transform="translate(216.22 80.04) rotate(180)"/>
            <rect class="cls-9" x="-.58" y="-26.98" width="217.38" height="134" transform="translate(216.22 80.04) rotate(180)"/>
          </g>
          <g>
            <rect class="cls-8" x="-.58" y="-26.98" width="217.38" height="134" transform="translate(216.22 80.04) rotate(180)"/>
            <rect class="cls-9" x="-.58" y="-26.98" width="217.38" height="134" transform="translate(216.22 80.04) rotate(180)"/>
          </g>
          <g>
            <rect class="cls-8" x="-.58" y="-26.98" width="217.38" height="134" transform="translate(216.22 80.04) rotate(180)"/>
            <rect class="cls-9" x="-.58" y="-26.98" width="217.38" height="134" transform="translate(216.22 80.04) rotate(180)"/>
          </g>
          <g>
            <rect class="cls-8" x="-.58" y="-26.98" width="217.38" height="134" transform="translate(216.22 80.04) rotate(180)"/>
            <rect class="cls-9" x="-.58" y="-26.98" width="217.38" height="134" transform="translate(216.22 80.04) rotate(180)"/>
          </g>
        </g>
      </g>
      <g>
        <g>
          <g>
            <g>
              <path class="cls-26" d="m169.47,67.48s0-1.16-1.62-2.78c-1.62-1.62-2.66-2.54-2.66-2.54,0,0-.81,2.66.69,4.28,1.5,1.62,3.58,3.12,3.58,3.12v-2.08Z"/>
              <path class="cls-26" d="m167.12,74.7s0-1.16-1.62-2.78-2.66-2.54-2.66-2.54c0,0-.81,2.66.69,4.28,1.5,1.62,3.58,3.12,3.58,3.12v-2.08Z"/>
              <path class="cls-26" d="m169.37,69.45s.12-1.15,1.9-2.59c1.78-1.44,2.91-2.25,2.91-2.25,0,0,.52,2.73-1.14,4.18s-3.89,2.73-3.89,2.73l.22-2.07Z"/>
              <path class="cls-26" d="m166.53,77.98s.24-1.13,2.16-2.37c1.92-1.24,3.13-1.93,3.13-1.93,0,0,.23,2.77-1.57,4.04-1.81,1.27-4.16,2.3-4.16,2.3l.44-2.04Z"/>
              <path class="cls-26" d="m167.06,87.28s0-1.16,1.62-2.78c1.62-1.62,2.66-2.54,2.66-2.54,0,0,.81,2.66-.69,4.28-1.5,1.62-3.58,3.12-3.58,3.12v-2.08Z"/>
              <path class="cls-26" d="m167.04,89.55s.16-1.14-1.21-2.98c-1.37-1.83-2.27-2.9-2.27-2.9,0,0-1.18,2.52.08,4.33,1.26,1.82,3.1,3.6,3.1,3.6l.3-2.06Z"/>
              <path class="cls-26" d="m165.44,96.28s0-1.16,1.62-2.78c1.62-1.62,2.66-2.54,2.66-2.54,0,0,.81,2.66-.69,4.28-1.5,1.62-3.58,3.12-3.58,3.12v-2.08Z"/>
              <path class="cls-26" d="m166.52,102.37s-.29-1.12.86-3.09,1.93-3.13,1.93-3.13c0,0,1.46,2.37.41,4.31-1.04,1.95-2.68,3.93-2.68,3.93l-.53-2.01Z"/>
            </g>
            <path class="cls-24" d="m168.11,108.01s-.09-.03-.11-.08c-.02-.07-2.25-6.97-2.67-9.51-.25-1.5.15-2.87.62-4.46.34-1.17.73-2.49.94-4.1.24-1.9-.09-3.79-.41-5.62-.32-1.82-.62-3.54-.3-5.06.31-1.43.82-2.64,1.36-3.92.58-1.37,1.18-2.78,1.51-4.5.18-.95.33-2.15.44-3.58,0-.06.07-.12.12-.11.06,0,.11.06.11.12-.11,1.43-.26,2.65-.45,3.6-.34,1.75-.94,3.17-1.53,4.55-.54,1.27-1.05,2.47-1.35,3.88-.32,1.47-.02,3.17.3,4.97.32,1.85.66,3.75.41,5.69-.21,1.63-.6,2.96-.95,4.14-.46,1.56-.86,2.91-.61,4.36.42,2.52,2.64,9.41,2.66,9.48.02.06-.01.13-.07.15-.01,0-.02,0-.04,0Z"/>
            <path class="cls-24" d="m169.35,70.34s-.07-.02-.09-.05c-.04-.05-.03-.12.02-.16l1.74-1.34c.05-.04.12-.03.16.02.04.05.03.12-.02.16l-1.74,1.34s-.05.02-.07.02Z"/>
            <path class="cls-24" d="m169.43,68.79s-.08-.02-.1-.06l-.73-1.3c-.03-.06-.01-.13.04-.16.06-.03.13-.01.16.04l.73,1.3c.03.06.01.13-.04.16-.02.01-.04.01-.06.01Z"/>
            <path class="cls-24" d="m166.39,79.18s-.07-.02-.09-.05c-.04-.05-.03-.12.02-.16.01-.01,1.48-1.11,2.96-2.19.05-.04.12-.03.16.03.04.05.03.12-.03.16-1.48,1.08-2.95,2.18-2.96,2.19-.02.02-.05.02-.07.02Z"/>
            <path class="cls-24" d="m167.12,76.9s-.08-.02-.1-.06c-.01-.02-1.23-2.39-2.58-3.95-.04-.05-.04-.12.01-.16.05-.04.12-.04.16.01,1.37,1.57,2.6,3.97,2.61,3.99.03.06,0,.13-.05.16-.02,0-.03.01-.05.01Z"/>
            <path class="cls-24" d="m167.12,89.04s-.04,0-.05-.01c-.06-.03-.08-.1-.05-.16.01-.02,1.17-2.27,3.15-4.21.05-.04.12-.04.16,0,.04.05.04.12,0,.16-1.95,1.91-3.09,4.13-3.1,4.15-.02.04-.06.06-.1.06Z"/>
            <path class="cls-24" d="m166.84,90.66s-.09-.03-.11-.07c0-.02-.74-1.75-1.57-2.98-.83-1.23-.97-1.41-.97-1.42-.04-.05-.03-.12.02-.16.05-.04.12-.03.16.02,0,0,.13.18.98,1.42.85,1.25,1.59,3.01,1.59,3.02.02.06,0,.13-.06.15-.01,0-.03,0-.04,0Z"/>
            <path class="cls-24" d="m165.44,98.52s-.03,0-.04,0c-.06-.02-.09-.09-.07-.15,0-.01.6-1.51,1.32-2.68.73-1.17,1.71-2.24,1.72-2.25.04-.05.12-.05.16,0,.05.04.05.12,0,.16,0,.01-.97,1.06-1.69,2.21-.72,1.15-1.3,2.63-1.31,2.64-.02.05-.06.07-.11.07Z"/>
            <path class="cls-24" d="m167.05,104.5c-.06,0-.11-.04-.12-.1,0-.06-.17-1.43.45-2.63.48-.93,1.01-2.08,1.36-2.84.09-.19.16-.36.22-.48.03-.06.1-.08.15-.06.06.03.08.1.06.15-.06.12-.13.29-.22.48-.35.76-.88,1.91-1.36,2.85-.58,1.13-.43,2.48-.43,2.49,0,.06-.04.12-.1.13,0,0,0,0-.01,0Z"/>
          </g>
          <g>
            <g>
              <path class="cls-26" d="m156.26,82.93s-.13-.73.71-1.92c.84-1.19,1.39-1.88,1.39-1.88,0,0,.8,1.58.03,2.76-.77,1.18-1.91,2.35-1.91,2.35l-.23-1.31Z"/>
              <path class="cls-26" d="m158.52,87.2s-.13-.73.71-1.92c.84-1.19,1.39-1.88,1.39-1.88,0,0,.8,1.58.03,2.76-.77,1.18-1.91,2.35-1.91,2.35l-.23-1.31Z"/>
              <path class="cls-26" d="m156.54,84.15s-.2-.71-1.47-1.42c-1.27-.71-2.07-1.09-2.07-1.09,0,0-.03,1.77,1.17,2.5,1.2.73,2.74,1.29,2.74,1.29l-.36-1.27Z"/>
              <path class="cls-26" d="m159.24,89.19s-.27-.68-1.62-1.25c-1.34-.57-2.17-.87-2.17-.87,0,0,.15,1.76,1.43,2.36s2.86.99,2.86.99l-.49-1.23Z"/>
              <path class="cls-26" d="m159.92,95.08s-.13-.73-1.32-1.56c-1.19-.84-1.94-1.31-1.94-1.31,0,0-.22,1.76.9,2.61,1.12.85,2.59,1.57,2.59,1.57l-.23-1.31Z"/>
              <path class="cls-26" d="m160.18,96.5s-.23-.7.43-2,1.11-2.06,1.11-2.06c0,0,1.01,1.45.42,2.73-.59,1.28-1.56,2.59-1.56,2.59l-.41-1.26Z"/>
              <path class="cls-26" d="m162.21,102.35s.08-.73,1.23-1.64c1.14-.91,1.87-1.42,1.87-1.42,0,0,.32,1.74-.75,2.65-1.07.91-2.49,1.71-2.49,1.71l.15-1.32Z"/>
              <path class="cls-26" d="m161.91,100.55s-.13-.73-1.32-1.56c-1.19-.84-1.94-1.31-1.94-1.31,0,0-.22,1.76.9,2.61,1.12.85,2.59,1.57,2.59,1.57l-.23-1.31Z"/>
              <path class="cls-26" d="m161.9,104.49s.06-.73-.88-1.85c-.94-1.11-1.55-1.76-1.55-1.76,0,0-.66,1.64.21,2.75.87,1.11,2.11,2.17,2.11,2.17l.11-1.32Z"/>
            </g>
            <path class="cls-24" d="m161.5,108.24s-.01,0-.02,0c-.06,0-.11-.07-.1-.13,0-.05.65-4.6.64-6.22,0-.93-.38-1.69-.85-2.65-.34-.7-.73-1.49-1.04-2.5-.37-1.19-.37-2.43-.36-3.62,0-1.16,0-2.25-.35-3.13-.34-.85-.79-1.54-1.26-2.28-.52-.8-1.05-1.63-1.46-2.69-.22-.58-.45-1.33-.67-2.22-.02-.06.02-.13.08-.14.06-.02.13.02.14.08.22.88.45,1.62.66,2.19.39,1.04.92,1.86,1.43,2.65.48.75.94,1.45,1.28,2.32.37.92.37,2.04.37,3.22,0,1.18,0,2.4.35,3.56.3.99.69,1.77,1.03,2.46.47.95.87,1.77.88,2.75.01,1.64-.62,6.07-.64,6.26,0,.06-.06.1-.11.1Z"/>
            <path class="cls-24" d="m156.63,84.75s-.04,0-.05-.01l-1.24-.65c-.06-.03-.08-.1-.05-.16.03-.06.1-.08.16-.05l1.24.65c.06.03.08.1.05.16-.02.04-.06.06-.1.06Z"/>
            <path class="cls-24" d="m156.41,83.79s-.03,0-.04,0c-.06-.02-.09-.09-.07-.15l.32-.89c.02-.06.09-.09.15-.07.06.02.09.09.07.15l-.32.89s-.06.08-.11.08Z"/>
            <path class="cls-24" d="m159.45,89.98s-.04,0-.05-.01c-.01,0-1.05-.53-2.09-1.05-.06-.03-.08-.1-.05-.16.03-.06.1-.08.16-.05,1.05.52,2.09,1.05,2.1,1.05.06.03.08.1.05.16-.02.04-.06.06-.1.06Z"/>
            <path class="cls-24" d="m158.74,88.63s-.02,0-.03,0c-.06-.02-.1-.08-.08-.15,0-.02.52-1.66,1.21-2.8.03-.05.11-.07.16-.04.05.03.07.1.04.16-.68,1.12-1.18,2.73-1.19,2.74-.02.05-.06.08-.11.08Z"/>
            <path class="cls-24" d="m160.06,96.24s-.07-.02-.09-.05c0-.01-.96-1.27-2.39-2.26-.05-.04-.07-.11-.03-.16.04-.05.11-.07.16-.03,1.46,1,2.43,2.29,2.44,2.31.04.05.03.12-.02.16-.02.02-.05.02-.07.02Z"/>
            <path class="cls-24" d="m160.41,97.22s-.02,0-.03,0c-.06-.01-.1-.08-.09-.14.01-.05.28-1.19.67-2.08.39-.87.46-1,.46-1,.03-.06.1-.08.16-.05.06.03.08.1.05.16,0,0-.07.13-.45.99-.39.86-.66,2.02-.66,2.03-.01.05-.06.09-.11.09Z"/>
            <path class="cls-24" d="m162.09,103.25s-.05,0-.07-.03c-.05-.04-.06-.11-.02-.16.03-.04.84-1.02,1.35-1.4.5-.37.85-.74.85-.74.04-.05.12-.05.16,0,.05.04.05.12,0,.16-.01.02-.37.39-.88.77-.49.36-1.3,1.35-1.31,1.36-.02.03-.06.04-.09.04Z"/>
            <path class="cls-24" d="m162.14,102s-.08-.02-.1-.06c0,0-.53-.87-1.1-1.51-.57-.64-1.29-1.19-1.29-1.2-.05-.04-.06-.11-.02-.16.04-.05.11-.06.16-.02.03.02.74.57,1.33,1.23.59.66,1.1,1.51,1.13,1.54.03.05.02.13-.04.16-.02.01-.04.02-.06.02Z"/>
            <path class="cls-24" d="m161.78,105.93c-.06,0-.11-.05-.12-.11,0,0-.05-.86-.53-1.49-.41-.54-.86-1.2-1.16-1.64l-.19-.28c-.04-.05-.02-.13.03-.16.05-.04.13-.02.16.03l.19.28c.3.44.76,1.1,1.16,1.63.52.69.57,1.59.58,1.62,0,.06-.05.12-.11.12,0,0,0,0,0,0Z"/>
          </g>
        </g>
        <g>
          <g>
            <polygon class="cls-26" points="90.22 72.8 89.2 69.89 90.22 71.13 89.42 66.77 90.66 69.89 91.09 63.78 91.82 69.6 92.62 68.44 92.62 69.89 93.57 67.93 93.06 71.35 93.93 70.77 92.55 72.66 90.22 72.8"/>
            <g>
              <polygon class="cls-24" points="93.42 72.08 89.64 72.08 90.32 79.71 92.74 79.71 93.42 72.08"/>
              <path class="cls-24" d="m92.74,79.83h-2.42c-.06,0-.11-.05-.12-.11l-.68-7.64s0-.06.03-.09.05-.04.09-.04h3.78s.06.01.09.04.03.06.03.09l-.68,7.64c0,.06-.06.11-.12.11Zm-2.31-.23h2.21l.66-7.41h-3.53l.66,7.41Z"/>
            </g>
          </g>
          <g>
            <rect class="cls-27" x="87.63" y="79.63" width="12.89" height="27.3"/>
            <path class="cls-24" d="m100.52,107.04h-12.89c-.06,0-.12-.05-.12-.12v-27.3c0-.06.05-.12.12-.12h12.89c.06,0,.12.05.12.12v27.3c0,.06-.05.12-.12.12Zm-12.77-.23h12.65v-27.06h-12.65v27.06Z"/>
          </g>
          <g>
            <rect class="cls-27" x="94.07" y="79.63" width="7.15" height="27.3"/>
            <path class="cls-24" d="m101.22,107.04h-7.15c-.06,0-.12-.05-.12-.12v-27.3c0-.06.05-.12.12-.12h7.15c.06,0,.12.05.12.12v27.3c0,.06-.05.12-.12.12Zm-7.03-.23h6.92v-27.06h-6.92v27.06Z"/>
          </g>
          <g>
            <rect class="cls-24" x="94.07" y="79.63" width="6.34" height="27.3"/>
            <path class="cls-24" d="m100.42,107.04h-6.34c-.06,0-.12-.05-.12-.12v-27.3c0-.06.05-.12.12-.12h6.34c.06,0,.12.05.12.12v27.3c0,.06-.05.12-.12.12Zm-6.23-.23h6.11v-27.06h-6.11v27.06Z"/>
          </g>
          <g>
            <g>
              <rect class="cls-26" x="94.07" y="100.58" width="5.63" height="5.59"/>
              <path class="cls-24" d="m99.7,106.28h-5.63c-.06,0-.12-.05-.12-.12v-5.59c0-.06.05-.12.12-.12h5.63c.06,0,.12.05.12.12v5.59c0,.06-.05.12-.12.12Zm-5.52-.23h5.4v-5.36h-5.4v5.36Z"/>
            </g>
            <g>
              <rect class="cls-27" x="94.07" y="100.88" width="5.63" height=".72"/>
              <path class="cls-24" d="m99.7,101.71h-5.63c-.06,0-.12-.05-.12-.12v-.72c0-.06.05-.12.12-.12h5.63c.06,0,.12.05.12.12v.72c0,.06-.05.12-.12.12Zm-5.52-.23h5.4v-.48h-5.4v.48Z"/>
            </g>
            <g>
              <rect class="cls-27" x="94.07" y="104.99" width="5.63" height=".72"/>
              <path class="cls-24" d="m99.7,105.83h-5.63c-.06,0-.12-.05-.12-.12v-.72c0-.06.05-.12.12-.12h5.63c.06,0,.12.05.12.12v.72c0,.06-.05.12-.12.12Zm-5.52-.23h5.4v-.48h-5.4v.48Z"/>
            </g>
            <path class="cls-24" d="m95.14,107.88c-.06,0-.12-.05-.12-.12v-7.07c0-.06.05-.12.12-.12s.12.05.12.12v7.07c0,.06-.05.12-.12.12Z"/>
            <path class="cls-24" d="m97.1,107.88c-.06,0-.12-.05-.12-.12v-7.07c0-.06.05-.12.12-.12s.12.05.12.12v7.07c0,.06-.05.12-.12.12Z"/>
            <path class="cls-24" d="m98.83,107.88c-.06,0-.12-.05-.12-.12v-7.07c0-.06.05-.12.12-.12s.12.05.12.12v7.07c0,.06-.05.12-.12.12Z"/>
          </g>
          <g>
            <g>
              <rect class="cls-26" x="94.07" y="80.64" width="5.63" height="8.22"/>
              <path class="cls-24" d="m99.7,88.98h-5.63c-.06,0-.12-.05-.12-.12v-8.22c0-.06.05-.12.12-.12h5.63c.06,0,.12.05.12.12v8.22c0,.06-.05.12-.12.12Zm-5.52-.23h5.4v-7.99h-5.4v7.99Z"/>
            </g>
            <g>
              <rect class="cls-27" x="94.07" y="80.98" width="5.63" height=".81"/>
              <path class="cls-24" d="m99.7,81.92h-5.63c-.06,0-.12-.05-.12-.12v-.81c0-.06.05-.12.12-.12h5.63c.06,0,.12.05.12.12v.81c0,.06-.05.12-.12.12Zm-5.52-.23h5.4v-.58h-5.4v.58Z"/>
            </g>
            <g>
              <rect class="cls-27" x="94.07" y="86.25" width="5.63" height=".81"/>
              <path class="cls-24" d="m99.7,87.18h-5.63c-.06,0-.12-.05-.12-.12v-.81c0-.06.05-.12.12-.12h5.63c.06,0,.12.05.12.12v.81c0,.06-.05.12-.12.12Zm-5.52-.23h5.4v-.58h-5.4v.58Z"/>
            </g>
            <path class="cls-24" d="m95.14,88.92c-.06,0-.12-.05-.12-.12v-8.03c0-.06.05-.12.12-.12s.12.05.12.12v8.03c0,.06-.05.12-.12.12Z"/>
            <path class="cls-24" d="m97.1,88.92c-.06,0-.12-.05-.12-.12v-8.03c0-.06.05-.12.12-.12s.12.05.12.12v8.03c0,.06-.05.12-.12.12Z"/>
            <path class="cls-24" d="m98.83,88.92c-.06,0-.12-.05-.12-.12v-8.03c0-.06.05-.12.12-.12s.12.05.12.12v8.03c0,.06-.05.12-.12.12Z"/>
          </g>
          <g>
            <g>
              <rect class="cls-26" x="94.07" y="90.55" width="5.63" height="8.22"/>
              <path class="cls-24" d="m99.7,98.88h-5.63c-.06,0-.12-.05-.12-.12v-8.22c0-.06.05-.12.12-.12h5.63c.06,0,.12.05.12.12v8.22c0,.06-.05.12-.12.12Zm-5.52-.23h5.4v-7.99h-5.4v7.99Z"/>
            </g>
            <g>
              <rect class="cls-27" x="94.07" y="90.89" width="5.63" height=".81"/>
              <path class="cls-24" d="m99.7,91.82h-5.63c-.06,0-.12-.05-.12-.12v-.81c0-.06.05-.12.12-.12h5.63c.06,0,.12.05.12.12v.81c0,.06-.05.12-.12.12Zm-5.52-.23h5.4v-.58h-5.4v.58Z"/>
            </g>
            <g>
              <rect class="cls-27" x="94.07" y="96.16" width="5.63" height=".81"/>
              <path class="cls-24" d="m99.7,97.09h-5.63c-.06,0-.12-.05-.12-.12v-.81c0-.06.05-.12.12-.12h5.63c.06,0,.12.05.12.12v.81c0,.06-.05.12-.12.12Zm-5.52-.23h5.4v-.58h-5.4v.58Z"/>
            </g>
            <path class="cls-24" d="m95.14,98.83c-.06,0-.12-.05-.12-.12v-8.03c0-.06.05-.12.12-.12s.12.05.12.12v8.03c0,.06-.05.12-.12.12Z"/>
            <path class="cls-24" d="m97.1,98.83c-.06,0-.12-.05-.12-.12v-8.03c0-.06.05-.12.12-.12s.12.05.12.12v8.03c0,.06-.05.12-.12.12Z"/>
            <path class="cls-24" d="m98.83,98.83c-.06,0-.12-.05-.12-.12v-8.03c0-.06.05-.12.12-.12s.12.05.12.12v8.03c0,.06-.05.12-.12.12Z"/>
          </g>
          <g>
            <rect class="cls-27" x="94.07" y="88.75" width="6.44" height=".93"/>
            <path class="cls-24" d="m100.52,89.8h-6.44c-.06,0-.12-.05-.12-.12v-.93c0-.06.05-.12.12-.12h6.44c.06,0,.12.05.12.12v.93c0,.06-.05.12-.12.12Zm-6.33-.23h6.21v-.7h-6.21v.7Z"/>
          </g>
          <g>
            <rect class="cls-27" x="94.07" y="98.71" width="6.44" height=".93"/>
            <path class="cls-24" d="m100.52,99.77h-6.44c-.06,0-.12-.05-.12-.12v-.93c0-.06.05-.12.12-.12h6.44c.06,0,.12.05.12.12v.93c0,.06-.05.12-.12.12Zm-6.33-.23h6.21v-.7h-6.21v.7Z"/>
          </g>
          <path class="cls-24" d="m100.52,107.04c-.06,0-.12-.05-.12-.12v-27.3c0-.06.05-.12.12-.12s.12.05.12.12v27.3c0,.06-.05.12-.12.12Z"/>
          <g>
            <polygon class="cls-27" points="93.16 79.63 93.16 106.92 94.07 106.92 94.07 80.64 100.4 80.64 100.4 79.62 93.16 79.63"/>
            <path class="cls-24" d="m94.07,107.04h-.91c-.06,0-.12-.05-.12-.12v-27.3c0-.06.05-.12.12-.12h7.24s.06,0,.08.02.03.05.03.08v1.02c0,.06-.05.12-.12.12h-6.22v26.16c0,.06-.05.12-.12.12Zm-.79-.23h.68v-26.16c0-.06.05-.12.12-.12h6.22v-.79h-7.01v27.07Z"/>
          </g>
          <path class="cls-24" d="m94.07,80.76c-.06,0-.12-.05-.12-.12v-1.01c0-.06.05-.12.12-.12s.12.05.12.12v1.01c0,.06-.05.12-.12.12Z"/>
        </g>
        <g>
          <g>
            <path class="cls-29" d="m100.47,67.09c-.68-1.3-.96-2.24-.96-2.45,0-.43.94-.68.94-.68,1.45-.77,8.27.34,11.35.85s5.2.51,5.2.51c0,0,.43-.34.94-.77s2.9-3.24,3.84-3.5c.94-.26,1.79.34,1.79.34,0,0,1.54.94,1.28,1.11-.26.17-4.01,3.41-4.95,4.01s-2.9.34-4.61.68c-1.47.29-7.42.66-8.79.77,0,0-1.36.43-3.07-.26"/>
            <path class="cls-31" d="m105.41,68.21c-.54,0-1.25-.09-2.03-.4-.06-.02-.09-.09-.06-.15s.09-.09.15-.06c1.64.66,2.98.26,2.99.25,0,0,.02,0,.02,0,.3-.02.83-.06,1.49-.11,2.3-.16,6.15-.43,7.28-.66.69-.14,1.42-.18,2.11-.22.99-.06,1.92-.11,2.45-.45.63-.4,2.53-2,3.8-3.06.63-.53.99-.83,1.12-.93-.09-.16-.69-.6-1.24-.94-.01,0-.83-.57-1.7-.33-.64.17-2.1,1.72-2.97,2.64-.37.4-.67.71-.82.83-.51.43-.94.77-.94.77-.02.02-.05.03-.07.03-.02,0-2.18,0-5.22-.51-2.43-.4-9.82-1.64-11.27-.86,0,0-.02,0-.02,0-.28.08-.85.32-.85.57,0,.2.29,1.13.95,2.4.03.06,0,.13-.05.16-.06.03-.13,0-.16-.05-.67-1.28-.98-2.25-.98-2.51,0-.49.86-.75,1.01-.79,1.39-.71,7.17.14,11.41.85,2.8.47,4.84.51,5.14.51.11-.09.48-.38.9-.74.14-.12.43-.42.8-.81,1-1.06,2.38-2.51,3.08-2.71.98-.27,1.85.33,1.89.36.5.31,1.35.87,1.36,1.15,0,.06-.03.12-.08.15-.08.05-.56.46-1.13.93-1.27,1.06-3.18,2.67-3.82,3.08-.59.37-1.55.43-2.57.48-.69.04-1.4.08-2.08.21-1.15.23-5.01.5-7.31.66-.65.05-1.17.08-1.48.11-.08.02-.49.13-1.11.14Z"/>
            <g class="cls-33">
              <path class="cls-26" d="m123.56,61.39s-.85-.6-1.79-.34c-.94.26-3.33,3.07-3.84,3.5-.51.43-.94.77-.94.77,0,0-2.13,0-5.2-.51s-9.9-1.62-11.35-.85c0,0-.94.26-.94.68,0,.1.06.34.19.7.08.03.13.05.13.05,0,0,1.7-.18,5.38-.09,3.68.09,12.19.59,12.73.79.25.09,1.88-.28,3.71-.93,1.39-1.14,3.03-2.55,3.2-2.66.26-.17-1.28-1.11-1.28-1.11Z"/>
              <g class="cls-52">
                <path class="cls-27" d="m123.56,61.39s-.85-.6-1.79-.34c-.94.26-3.33,3.07-3.84,3.5-.51.43-.94.77-.94.77,0,0-2.13,0-5.2-.51s-9.9-1.62-11.35-.85c0,0-.94.26-.94.68,0,.1.06.34.19.7.08.03.13.05.13.05,0,0,1.7-.18,5.38-.09,3.68.09,12.19.59,12.73.79.25.09,1.88-.28,3.71-.93,1.39-1.14,3.03-2.55,3.2-2.66.26-.17-1.28-1.11-1.28-1.11Z"/>
              </g>
            </g>
          </g>
          <g>
            <path class="cls-29" d="m134.16,74.67c.31-.6.93-.97,1.61-.97h15.51s1.12,0,.78,2.13c-.34,2.13-4.93,15.13-6.05,19.06-1.12,3.92-1.35,12.22-1.35,12.22h-18.61s1.49-19.81,8.11-32.44Z"/>
            <path class="cls-31" d="m144.66,107.23h-18.61s-.06-.01-.09-.04c-.02-.02-.03-.06-.03-.09.01-.2,1.57-19.98,8.12-32.48l.1.05-.1-.05c.33-.64.99-1.03,1.71-1.03h15.51s.35,0,.62.32c.33.38.42,1.04.28,1.94-.2,1.26-1.84,6.19-3.43,10.95-1.11,3.34-2.17,6.5-2.63,8.12-1.1,3.86-1.34,12.11-1.34,12.19,0,.06-.05.11-.12.11Zm-18.48-.23h18.37c.03-1.01.31-8.49,1.35-12.13.46-1.63,1.52-4.79,2.63-8.13,1.58-4.76,3.22-9.67,3.42-10.91.16-1.03-.03-1.52-.22-1.75-.2-.24-.44-.25-.45-.25h-15.51c-.64,0-1.21.35-1.51.91h0c-6.26,11.94-7.94,30.56-8.08,32.27Z"/>
            <g class="cls-36">
              <g class="cls-51">
                <path class="cls-10" d="m141.14,73.7h-5.38c-.67,0-1.3.37-1.61.97-6.62,12.63-8.11,32.44-8.11,32.44h8.34l2.06-7.81,8.58,1.77c.06-.66.13-1.32.21-1.98l-.19-2.1s-1.76-1.85-2.31-2.31-.19-1.3-.28-4.9c-.09-3.61-3.33-6.2-4.53-8.42-1.2-2.22.65-3.61,2.31-5.83.59-.79.83-1.38.9-1.82Z"/>
              </g>
            </g>
          </g>
          <g>
            <path class="cls-24" d="m148.59,77.4c-1.57,3.66-4.89,18.13-5.42,29.71h1.5s.22-8.3,1.35-12.22c1.12-3.92,5.72-16.93,6.05-19.06.34-2.13-.78-2.13-.78-2.13,0,0-1.43.77-2.69,3.7Z"/>
            <path class="cls-24" d="m144.66,107.23h-1.5s-.06-.01-.08-.04c-.02-.02-.03-.05-.03-.09.54-11.68,3.87-26.1,5.43-29.75h0c1.26-2.94,2.68-3.72,2.74-3.76.02,0,.04-.01.05-.01.01,0,.35,0,.62.32.33.38.42,1.04.28,1.94-.2,1.26-1.84,6.19-3.43,10.95-1.11,3.34-2.17,6.5-2.63,8.12-1.1,3.86-1.34,12.11-1.34,12.19,0,.06-.05.11-.12.11Zm-1.38-.23h1.26c.03-1.01.31-8.49,1.35-12.13.46-1.63,1.52-4.79,2.63-8.13,1.58-4.76,3.22-9.67,3.42-10.91.16-1.03-.03-1.52-.22-1.75-.16-.19-.35-.24-.42-.24-.2.12-1.48,1-2.61,3.63h0c-1.55,3.62-4.85,17.91-5.41,29.55Zm5.3-29.59h0,0Z"/>
          </g>
          <g>
            <g>
              <path class="cls-24" d="m121.34,70.09s-2.47-1.45-3.41-4.01c-.94-2.56,7.34-6.65,10.92-6.91,3.58-.26,4.61.68,6.74,4.35,2.13,3.67,3.58,8.7,2.47,11.17-1.11,2.47-2.99,3.07-1.62,5.12,1.36,2.05,5.2,7.85,4.95,10.58s-2.9,5.12-6.74,5.37c-3.84.26-8.96-2.05-13.22-5.8-4.27-3.75-3.16-9.3-1.62-11.09,1.54-1.79,3.84-2.47,4.01-4.27.17-1.79-2.47-4.52-2.47-4.52Z"/>
              <path class="cls-24" d="m134.05,95.91c-3.75,0-8.55-2.2-12.7-5.85-4.22-3.71-3.31-9.3-1.63-11.25.6-.7,1.32-1.24,1.96-1.72,1.03-.77,1.92-1.43,2.02-2.49.16-1.66-2.25-4.23-2.43-4.42-.21-.13-2.54-1.59-3.45-4.06-.17-.47-.07-1,.31-1.58.72-1.12,2.49-2.43,4.84-3.58,2.17-1.07,4.42-1.8,5.87-1.9,3.6-.26,4.7.71,6.85,4.41,2.06,3.55,3.63,8.71,2.48,11.28-.37.84-.83,1.45-1.23,1.99-.79,1.07-1.27,1.72-.4,3.01,1.29,1.94,5.23,7.84,4.97,10.65-.27,2.93-3.15,5.23-6.85,5.48-.2.01-.4.02-.61.02Zm-4.19-36.66c-.31,0-.64.01-1,.04-2.99.21-9.05,3.08-10.53,5.38-.33.52-.43.98-.28,1.38.91,2.49,3.34,3.93,3.36,3.95,0,0,.02.01.02.02.11.11,2.68,2.79,2.51,4.61-.11,1.16-1.04,1.85-2.11,2.65-.66.49-1.34,1-1.92,1.68-1.32,1.54-2.79,7.06,1.61,10.93,4.33,3.81,9.36,6.02,13.14,5.77,3.58-.24,6.37-2.45,6.63-5.27.26-2.73-3.65-8.58-4.93-10.5-.96-1.43-.38-2.21.41-3.28.39-.53.84-1.14,1.2-1.95,1.12-2.5-.43-7.57-2.47-11.07-1.91-3.28-2.91-4.33-5.63-4.33Z"/>
            </g>
            <g>
              <path class="cls-27" d="m132.92,81.17s-.07-.02-.09-.05c-.64-.84.05-1.77.86-2.84.95-1.26,2.03-2.7,1.55-4.51-.51-1.98-2.16-5.26-3.46-7.68-.03-.06,0-.13.05-.16.06-.03.13,0,.16.05,1.3,2.42,2.96,5.73,3.48,7.73.5,1.93-.66,3.47-1.59,4.71-.78,1.04-1.4,1.86-.86,2.56.04.05.03.12-.02.16-.02.02-.05.02-.07.02Z"/>
              <path class="cls-27" d="m131.32,65.11s-.08-.02-.1-.06c-.7-1.27-1.21-2.15-1.22-2.15-.03-.06-.01-.13.04-.16.06-.03.13-.01.16.04,0,0,.52.89,1.22,2.16.03.06.01.13-.05.16-.02,0-.04.01-.06.01Z"/>
              <path class="cls-27" d="m137.28,70.53c-.06,0-.11-.05-.12-.11-.04-.45-.14-.91-.29-1.39-.02-.06.01-.13.07-.15.06-.02.13.01.15.07.16.49.26.98.3,1.44,0,.06-.04.12-.11.13,0,0,0,0-.01,0Z"/>
              <path class="cls-27" d="m136.65,68.23s-.09-.03-.11-.07c-1.58-3.5-5.58-6.48-5.62-6.51-.05-.04-.06-.11-.02-.16.04-.05.11-.06.16-.02.04.03,4.08,3.05,5.69,6.61.03.06,0,.13-.06.15-.02,0-.03.01-.05.01Z"/>
              <path class="cls-27" d="m118.68,66.81s-.09-.03-.11-.07c-.04-.1-.04-.2.01-.31.3-.64,2.57-1.56,6.76-2.74.06-.02.13.02.14.08.02.06-.02.13-.08.14-3.94,1.11-6.35,2.06-6.61,2.61-.03.06-.02.09,0,.11.03.06,0,.13-.06.15-.02,0-.03,0-.05,0Z"/>
              <path class="cls-27" d="m126.51,63.61c-.05,0-.1-.03-.11-.09-.02-.06.02-.13.08-.14.91-.24,1.53-.4,1.54-.4.06-.02.13.02.14.08.02.06-.02.13-.08.14,0,0-.63.15-1.53.4-.01,0-.02,0-.03,0Z"/>
              <path class="cls-27" d="m124.47,61.71s-.09-.03-.11-.08c-.02-.06.01-.13.07-.15,1.07-.35,2.83-.76,5.15-.68.06,0,.11.06.11.12,0,.06-.05.11-.12.11h0c-2.29-.07-4.02.32-5.07.67-.01,0-.02,0-.04,0Z"/>
              <path class="cls-27" d="m123.3,62.19s-.08-.02-.1-.06c-.03-.06-.01-.13.05-.16.01,0,.29-.16.83-.36.06-.02.13,0,.15.07.02.06,0,.13-.07.15-.51.19-.79.34-.79.34-.02,0-.04.01-.06.01Z"/>
            </g>
          </g>
          <g>
            <path class="cls-29" d="m99.51,64.63s0,.03,0,.05c0-.02,0-.04,0-.05Zm.96,2.45c-.55-1.06-.84-1.87-.93-2.26.09.38.38,1.2.93,2.26Zm-.96-2.39s0,.03,0,.05c0-.02,0-.04,0-.05Zm.01.07s0,.04.01.07c0-.02-.01-.05-.01-.07Zm.95,2.33c.66,1.27,1.7,2.9,3.22,4.54,3.07,3.33,11.94,12.03,12.8,12.63.85.6.6,2.3,0,4.01-.6,1.71-2.82,4.18-2.73,6.91s.94,6.91.85,7.76c-.09.85-2.22,3.75-2.22,3.75h22.01s-2.74-3.48-2.74-4.68,3.77-16.48,3.94-17.59c.17-1.11-.51-1.88-1.88-1.96-1.36-.09-6.57-1.19-6.82-2.05s1.36-4.09,1.36-4.09l-5.12.26s-.26,2.22-.6,2.64-.85-.43-2.05-1.02c-1.19-.6-3.5-1.11-4.35-1.79-.85-.68-9.04-8.36-9.04-8.36"/>
            <path class="cls-31" d="m134.4,106.8h-22.01s-.08-.02-.1-.06-.02-.09,0-.12c.73-.99,2.13-3.05,2.2-3.7.04-.37-.12-1.46-.3-2.72-.23-1.57-.51-3.52-.55-5.03-.06-1.88.96-3.65,1.78-5.08.39-.68.76-1.33.95-1.87.41-1.17.96-3.23.04-3.88-.88-.62-9.7-9.26-12.81-12.64-1.63-1.76-2.66-3.45-3.23-4.56,0,0,0,0,0,0-.53-1.03-.83-1.84-.94-2.26,0,0,0-.02,0-.02h0s-.01-.05-.01-.07c0,0,0,0,0,0,0,0,0,0,0-.01,0-.02,0-.04,0-.06,0,0,0,0,0,0,0,0,0,0,0-.01h0s0,0,0,0c0-.02,0-.04,0-.05h0c0-.07.05-.12.12-.12s.12.05.12.12h0s0,.02,0,.03c0,0,0,0,0,0,0,0,0,0,0,0v.05s0,0,0,0c0,0,0,0,0,.01,0,.02,0,.04.01.06,0,0,0,0,0,0h0s0,0,0,0c.06.25.2.68.44,1.23.13.3.29.63.47.99,0,0,0,0,0,0,.57,1.1,1.59,2.77,3.2,4.51,3.01,3.26,11.93,12.02,12.78,12.61.99.69.57,2.64.04,4.14-.2.56-.57,1.22-.97,1.91-.85,1.48-1.81,3.15-1.75,4.96.05,1.49.33,3.44.55,5,.19,1.33.34,2.38.3,2.78-.08.76-1.63,2.96-2.11,3.63h21.54c-.58-.75-2.62-3.49-2.62-4.56,0-.77,1.49-7.09,2.69-12.17.64-2.7,1.19-5.04,1.25-5.44.07-.47-.02-.89-.27-1.19-.3-.37-.82-.59-1.5-.63-.67-.04-2.29-.33-3.85-.74-1.92-.5-2.95-.97-3.08-1.39-.24-.78.93-3.26,1.28-4l-4.82.24c-.06.47-.29,2.2-.61,2.61-.28.34-.62.08-1.06-.26-.29-.22-.65-.5-1.13-.73-.48-.24-1.14-.47-1.84-.7-.99-.34-2.01-.69-2.53-1.1-.85-.68-8.71-8.05-9.05-8.37-.05-.04-.05-.12,0-.16.04-.05.12-.05.16,0,.08.08,8.2,7.68,9.04,8.35.49.39,1.49.73,2.46,1.06.71.24,1.37.47,1.87.72.49.25.86.53,1.16.76.49.37.62.44.74.3.26-.33.5-1.98.57-2.59,0-.06.05-.1.11-.1l5.12-.26s.08.02.1.05c.02.03.02.08,0,.12-.45.89-1.56,3.35-1.36,4.01.04.12.35.56,2.91,1.23,1.55.41,3.15.69,3.81.73.75.05,1.33.3,1.67.72.29.36.4.84.32,1.37-.06.41-.59,2.63-1.25,5.46-1.13,4.8-2.68,11.36-2.68,12.11,0,1.14,2.69,4.57,2.72,4.61.03.04.03.08.01.12-.02.04-.06.07-.1.07Z"/>
            <g class="cls-35">
              <g>
                <path class="cls-26" d="m117.45,77.06c.43.74.85,1.42.85,1.42,0,0,1.44.81,1.79.81s2.51,1.17,2.51,1.17c0,0,1.79-.45,1.17-1.97-.11-.27-.38-.64-.75-1.07-.11.68-.28,1.56-.48,1.82-.34.43-.85-.43-2.05-1.02-.78-.39-2.03-.74-3.04-1.13Z"/>
                <path class="cls-26" d="m113.07,73.61c-2.64-2.44-5.97-5.57-5.97-5.57l-1.94-.28-.23.13s5.47,4.84,6.64,5.38c.72.33,1.1.29,1.5.33Z"/>
                <path class="cls-26" d="m115.83,76.14c-.06-.06-.13-.12-.21-.19.11.18.17.29.17.29,0,0,.02-.04.04-.1Z"/>
              </g>
              <g class="cls-52">
                <path class="cls-27" d="m117.45,77.06c.43.74.85,1.42.85,1.42,0,0,1.44.81,1.79.81s2.51,1.17,2.51,1.17c0,0,1.79-.45,1.17-1.97-.11-.27-.38-.64-.75-1.07-.11.68-.28,1.56-.48,1.82-.34.43-.85-.43-2.05-1.02-.78-.39-2.03-.74-3.04-1.13Z"/>
                <path class="cls-27" d="m113.07,73.61c-2.64-2.44-5.97-5.57-5.97-5.57l-1.94-.28-.23.13s5.47,4.84,6.64,5.38c.72.33,1.1.29,1.5.33Z"/>
                <path class="cls-27" d="m115.83,76.14c-.06-.06-.13-.12-.21-.19.11.18.17.29.17.29,0,0,.02-.04.04-.1Z"/>
              </g>
            </g>
          </g>
          <path class="cls-24" d="m107.04,68.16c-.43,0-2.83-.05-4.26-1.23-.05-.04-.06-.11-.02-.16.04-.05.11-.06.16-.02,1.47,1.21,4.14,1.18,4.17,1.18.06,0,.12.05.12.11,0,.06-.05.12-.11.12,0,0-.03,0-.06,0Z"/>
          <g>
            <path class="cls-29" d="m126.89,80.41c-.26-.85,1.36-4.09,1.36-4.09l-5.12.26s-.26,2.22-.6,2.64-.85-.43-2.05-1.02c-.09-.05-.19-.09-.29-.13l-.31,4.86s.45,4.71,5.83,3.81c2.18-.36,4.5-2.31,6.5-4.49-2.05-.38-5.13-1.18-5.33-1.83Z"/>
            <path class="cls-31" d="m124.42,86.97c-1.16,0-2.14-.3-2.92-.9-1.53-1.17-1.72-3.05-1.73-3.13l.31-4.88s.02-.07.06-.09c.03-.02.07-.02.11,0,.1.05.21.09.3.14.49.25.86.53,1.16.76.49.37.62.44.74.3.26-.33.5-1.98.57-2.59,0-.06.05-.1.11-.1l5.12-.26s.08.02.1.05c.02.03.02.08,0,.12-.45.89-1.56,3.35-1.36,4.01h0c.16.52,2.79,1.3,5.24,1.75.04,0,.08.04.09.08.01.04,0,.08-.02.12-2.46,2.69-4.66,4.21-6.57,4.53-.46.08-.9.12-1.32.12Zm-4.12-8.73l-.3,4.7s.2,1.84,1.64,2.95c1,.77,2.37,1.02,4.05.74,1.81-.3,3.93-1.75,6.29-4.3-.97-.19-4.96-1.02-5.21-1.87h0c-.24-.78.93-3.26,1.28-4l-4.82.24c-.06.47-.29,2.2-.61,2.61-.28.34-.62.08-1.06-.26-.29-.22-.65-.5-1.13-.73-.04-.02-.09-.04-.14-.06Z"/>
            <g class="cls-48">
              <path class="cls-26" d="m126.74,76.96s-.31,1.73-.56,3.65-.43,3.34-.43,3.34l1.14-3.55,1.28-3.76s-1.24,0-1.42.31Z"/>
              <g class="cls-52">
                <path class="cls-27" d="m126.74,76.96s-.31,1.73-.56,3.65-.43,3.34-.43,3.34l1.14-3.55,1.28-3.76s-1.24,0-1.42.31Z"/>
              </g>
            </g>
          </g>
          <g>
            <g>
              <path class="cls-30" d="m122.54,79.22c-.34.43-.85-.43-2.05-1.02-.75-.38-1.95-.72-2.95-1.1-.28-.67-.65-1.54-.89-2.06-.43-.94-1.11-.34-1.11-.34,0,0-.43-.43-.85-1.36s-1.11-.85-2.05-1.02c-.94-.17-2.9-1.96-2.9-1.96,0,0-.92-.69-1.3-1.04-.44.87-1.5,2.4-3.79,3.35,3.65,3.81,11.05,11.05,11.82,11.59.85.6.6,2.3,0,4.01-.6,1.71-2.82,4.18-2.73,6.91s.94,6.91.85,7.76c-.08.76-1.78,3.15-2.15,3.66l.87.1h4.51c-.02-2.29-.02-11.63,1.54-15.35,1.79-4.27,3.16-12.11,3.16-12.11Z"/>
              <path class="cls-31" d="m117.84,106.8h-4.51l-.88-.1s-.08-.03-.09-.07c-.02-.04-.01-.08.01-.12.94-1.31,2.07-3.03,2.13-3.6.04-.37-.12-1.46-.3-2.72-.23-1.57-.51-3.52-.55-5.03-.06-1.88.96-3.65,1.78-5.08.39-.68.76-1.33.95-1.87.41-1.17.96-3.23.04-3.88-.81-.57-8.34-7.95-11.84-11.61-.03-.03-.04-.07-.03-.1,0-.04.03-.07.07-.08,2.27-.95,3.31-2.47,3.73-3.3.02-.03.05-.06.08-.06.03,0,.07,0,.1.03.37.35,1.28,1.03,1.29,1.04.03.02,1.96,1.78,2.85,1.94.16.03.31.05.46.07.72.1,1.3.18,1.68,1.02.31.69.63,1.1.76,1.26.12-.08.35-.19.6-.13.25.05.45.25.6.58.19.41.48,1.09.87,2.02.33.12.69.25,1.04.37.71.24,1.37.47,1.87.72.49.25.86.53,1.16.76.49.37.62.44.74.3.03-.04.09-.05.14-.03.05.02.08.07.07.13-.01.08-1.39,7.91-3.16,12.14-1.58,3.75-1.55,13.41-1.53,15.31,0,.03-.01.06-.03.08s-.05.03-.08.03Zm-5.17-.31l.67.08h4.38c-.03-2.82.02-11.64,1.55-15.28,1.59-3.78,2.85-10.47,3.1-11.84-.23.03-.5-.17-.81-.42-.29-.22-.65-.5-1.13-.73-.48-.24-1.14-.47-1.84-.7-.37-.12-.74-.25-1.09-.39-.03-.01-.05-.03-.07-.06-.4-.95-.7-1.64-.89-2.06-.12-.26-.27-.41-.44-.45-.25-.05-.49.15-.49.15-.05.04-.12.04-.16,0-.02-.02-.45-.45-.88-1.4-.33-.72-.79-.79-1.5-.89-.15-.02-.3-.04-.47-.07-.96-.17-2.88-1.92-2.96-1.99-.03-.02-.77-.57-1.19-.94-.46.86-1.5,2.28-3.62,3.21,3.8,3.96,10.96,10.94,11.69,11.46.99.69.57,2.64.04,4.14-.2.56-.57,1.22-.97,1.91-.85,1.48-1.81,3.15-1.75,4.96.05,1.49.33,3.44.55,5,.19,1.33.34,2.38.3,2.78-.07.72-1.47,2.73-2.05,3.55Z"/>
              <g class="cls-47">
                <g class="cls-51">
                  <path class="cls-10" d="m120.49,78.2c-.75-.38-1.95-.72-2.95-1.09-.28-.67-.65-1.54-.89-2.06-.43-.94-1.11-.34-1.11-.34,0,0-.43-.43-.85-1.36s-1.11-.85-2.05-1.02c-.94-.17-2.9-1.96-2.9-1.96,0,0-.92-.69-1.3-1.04-.15.29-.36.65-.67,1.04,1.52,1.29,3.21,2.66,3.8,2.93,1.17.54,1.44.09,2.33.63.9.54,1.88,2.33,1.88,2.33,0,0,.54-1.44.99-.45.45.99,1.52,2.69,1.52,2.69,0,0,1.44.81,1.79.81.28,0,1.66.71,2.25,1.02.13-.68.2-1.09.2-1.09-.34.43-.85-.43-2.05-1.02Z"/>
                </g>
              </g>
            </g>
            <g>
              <path class="cls-30" d="m122.6,78.92s-1.06-.33-1.71.24c-.65.57-1.63,3.51-2.2,6.69-.57,3.18.7,5.48.7,5.48,0,0,1.34-3.52,1.75-5.23.41-1.71,1.47-7.18,1.47-7.18Z"/>
              <path class="cls-31" d="m119.38,91.45s-.08-.02-.1-.06c-.01-.02-1.28-2.37-.71-5.55.57-3.19,1.56-6.16,2.24-6.76.69-.61,1.78-.28,1.82-.27.06.02.09.07.08.13-.01.05-1.07,5.49-1.47,7.18-.4,1.7-1.74,5.21-1.75,5.25-.02.04-.06.07-.1.07,0,0,0,0,0,0Zm2.53-12.5c-.31,0-.68.07-.95.31-.64.56-1.61,3.53-2.16,6.62-.45,2.53.28,4.5.57,5.16.31-.84,1.31-3.54,1.65-4.96.37-1.56,1.3-6.29,1.45-7.07-.11-.03-.32-.06-.55-.06Z"/>
              <g class="cls-46">
                <g class="cls-51">
                  <path class="cls-10" d="m120.56,79.44s.77-.18,1.08-.08c.32.11.74.45.74.45l.21-.89s-.5-.28-1.03-.17c-.53.11-1,.69-1,.69Z"/>
                </g>
              </g>
            </g>
            <path class="cls-24" d="m116.82,84.86s-.09-.03-.11-.07l-3.07-7c-.03-.06,0-.13.06-.15.06-.02.13,0,.15.06l2.53,5.76-1.04-4.24c-.02-.06.02-.13.09-.14.06-.02.13.02.14.09l1.37,5.54c.01.06-.02.12-.08.14-.01,0-.02,0-.04,0Z"/>
          </g>
          <g>
            <g>
              <path class="cls-30" d="m124.45,106.69h9.95s-2.74-3.48-2.74-4.68,3.77-16.48,3.94-17.59c.17-1.11-.51-1.88-1.88-1.96-1.36-.09-6.57-1.19-6.82-2.05,0,0-1.96,6.91-2.64,11.6-.59,4.02.02,12.37.21,14.67Z"/>
              <path class="cls-31" d="m134.4,106.8h-9.95c-.06,0-.11-.05-.12-.11-.2-2.43-.79-10.69-.21-14.7.68-4.65,2.63-11.55,2.65-11.62.01-.05.06-.08.11-.08h0c.05,0,.1.03.11.08.22.74,5.2,1.87,6.72,1.96.75.05,1.33.3,1.67.72.29.36.4.84.32,1.37-.06.41-.59,2.63-1.25,5.46-1.13,4.8-2.68,11.36-2.68,12.11,0,1.14,2.69,4.57,2.72,4.61.03.03.03.08.01.12-.02.04-.06.07-.1.07Zm-9.84-.23h9.6c-.58-.75-2.62-3.49-2.62-4.56,0-.77,1.49-7.09,2.69-12.17.64-2.7,1.19-5.04,1.25-5.44.07-.47-.02-.89-.27-1.19-.3-.37-.82-.59-1.5-.63-1.16-.07-5.82-1.01-6.77-1.9-.34,1.24-1.97,7.2-2.58,11.36-.57,3.93,0,11.99.2,14.54Z"/>
              <g class="cls-49">
                <g class="cls-51">
                  <path class="cls-10" d="m133.71,82.46c-1.12-.07-4.81-.83-6.25-1.57l.52,1.21s1.3.74,3.03,1.05c1.73.31,3.34.25,4.4,1.8.02.03.03.05.05.08.07-.3.11-.51.12-.61.17-1.11-.51-1.88-1.88-1.96Z"/>
                </g>
              </g>
            </g>
            <g>
              <path class="cls-30" d="m126.89,80.41s-2.63,8.38-2.64,11.6c0,0,3.74-4.53,4.23-7.71.49-3.18-1.58-3.89-1.58-3.89Z"/>
              <path class="cls-31" d="m124.24,92.13s-.03,0-.04,0c-.05-.02-.08-.06-.08-.11.01-3.2,2.54-11.29,2.65-11.64,0-.03.03-.05.06-.07.03-.01.06-.02.09,0,.02,0,2.16.78,1.66,4.02-.49,3.18-4.1,7.58-4.25,7.76-.02.03-.06.04-.09.04Zm2.72-11.56c-.31,1.01-2.42,7.95-2.59,11.1.8-1.02,3.58-4.71,3.99-7.38.4-2.62-.99-3.51-1.4-3.72Z"/>
              <g class="cls-50">
                <g class="cls-51">
                  <path class="cls-10" d="m126.43,81.48s1.18-.12,2.04.99c0,0-.52-1.52-1.59-2.06l-.45,1.07Z"/>
                </g>
              </g>
            </g>
          </g>
          <g>
            <g>
              <path class="cls-29" d="m154.99,105.11s1.93.08,3.19.26c1.26.18,2.54.2,2.54.2,0,0-.69-1.41-1.44-1.8-.75-.4-2.09-1.11-3.22-.95-1.13.16-2.74,1.29-2.61,1.66.13.37.74.53,1.55.63Z"/>
              <path class="cls-31" d="m160.71,105.69h0s-1.3-.02-2.55-.2c-1.24-.18-3.16-.26-3.18-.26,0,0,0,0-.01,0-.88-.12-1.49-.28-1.64-.71-.03-.09,0-.19.06-.31.32-.53,1.69-1.37,2.64-1.5,1.16-.16,2.54.57,3.28.96.78.41,1.47,1.8,1.5,1.86.02.04.02.08,0,.11-.02.03-.06.05-.1.05Zm-5.72-.69c.11,0,1.97.09,3.19.26.95.14,1.92.18,2.33.19-.21-.38-.74-1.29-1.3-1.58-.73-.38-2.07-1.09-3.15-.94-.95.13-2.21.96-2.48,1.39-.05.08-.04.11-.04.11.12.34.8.47,1.45.56Z"/>
              <g class="cls-37">
                <path class="cls-26" d="m154.99,105.11s1.93.08,3.19.26c1.26.18,2.54.2,2.54.2,0,0-.69-1.41-1.44-1.8-.75-.4-2.09-1.11-3.22-.95-1.13.16-2.74,1.29-2.61,1.66.13.37.74.53,1.55.63Z"/>
                <g class="cls-52">
                  <path class="cls-27" d="m154.99,105.11s1.93.08,3.19.26c1.26.18,2.54.2,2.54.2,0,0-.69-1.41-1.44-1.8-.75-.4-2.09-1.11-3.22-.95-1.13.16-2.74,1.29-2.61,1.66.13.37.74.53,1.55.63Z"/>
                </g>
              </g>
            </g>
            <g>
              <path class="cls-29" d="m158.18,104.54s1.53-.79,1.91-.78c.38,0,2.92,1.73,2.79,2-.13.27-.61.39-.8.3-.28-.13-1.99-.86-1.99-.86l-1.12.26-.8-.92Z"/>
              <path class="cls-31" d="m162.25,106.2c-.08,0-.16-.01-.22-.04-.25-.12-1.7-.74-1.95-.84l-1.08.25s-.09,0-.11-.04l-.8-.92s-.03-.06-.03-.1c0-.03.03-.06.06-.08.16-.08,1.55-.8,1.96-.8h0c.41.01,2.57,1.48,2.86,1.95.02.03.08.13.03.22-.07.14-.21.26-.4.33-.11.04-.23.06-.33.06Zm-2.16-1.12s.03,0,.05,0c.07.03,1.71.73,1.99.86.06.03.22.03.37-.03.12-.05.22-.11.26-.19-.13-.32-2.32-1.85-2.68-1.86h0c-.25,0-1.13.41-1.72.7l.65.75,1.05-.25s.02,0,.03,0Z"/>
              <g class="cls-39">
                <path class="cls-26" d="m158.18,104.54s1.53-.79,1.91-.78c.38,0,2.92,1.73,2.79,2-.13.27-.73.5-.8.3-.07-.2-1.99-.86-1.99-.86l-1.12.26-.8-.92Z"/>
                <g class="cls-52">
                  <path class="cls-27" d="m158.18,104.54s1.53-.79,1.91-.78c.38,0,2.92,1.73,2.79,2-.13.27-.73.5-.8.3-.07-.2-1.99-.86-1.99-.86l-1.12.26-.8-.92Z"/>
                </g>
              </g>
            </g>
            <g>
              <path class="cls-29" d="m157.1,103.23s2.04-.07,2.44.14c.4.21,2.23,3.34,1.96,3.57-.28.23-1.03.16-1.01-.09.02-.25-1.68-1.93-1.68-1.93l-1.33-.29-.38-1.39Z"/>
              <path class="cls-31" d="m160.99,107.2c-.17,0-.33-.03-.45-.09-.16-.09-.18-.2-.17-.27-.03-.16-.85-1.05-1.63-1.82l-1.29-.28s-.08-.04-.09-.08l-.38-1.39s0-.07.02-.1.05-.05.09-.05c.21,0,2.08-.06,2.5.15.43.22,1.97,2.89,2.04,3.53,0,.04.02.16-.07.23-.14.11-.36.17-.58.17Zm-3.42-2.67l1.26.28s.04.02.06.03c.65.64,1.74,1.76,1.72,2.03,0,0,.03.04.11.07.2.07.54.05.69-.06.06-.36-1.55-3.19-1.92-3.38-.26-.13-1.43-.15-2.24-.13l.32,1.18Z"/>
              <g class="cls-38">
                <path class="cls-26" d="m157.1,103.23s2.04-.07,2.44.14c.4.21,2.23,3.34,1.96,3.57-.28.23-1.03.16-1.01-.09.02-.25-1.68-1.93-1.68-1.93l-1.33-.29-.38-1.39Z"/>
                <g class="cls-52">
                  <path class="cls-27" d="m157.1,103.23s2.04-.07,2.44.14c.4.21,2.23,3.34,1.96,3.57-.28.23-1.03.16-1.01-.09.02-.25-1.68-1.93-1.68-1.93l-1.33-.29-.38-1.39Z"/>
                </g>
              </g>
            </g>
            <g>
              <path class="cls-29" d="m155.89,102.81s2.06-.07,2.47.14c.41.21,2.26,3.38,1.98,3.61-.28.23-1.04.16-1.02-.09.02-.25-1.7-1.96-1.7-1.96l-1.34-.3-.38-1.41Z"/>
              <path class="cls-31" d="m159.83,106.82c-.17,0-.34-.03-.45-.09-.17-.09-.18-.21-.17-.27-.03-.16-.86-1.06-1.65-1.84l-1.31-.29s-.08-.04-.09-.08l-.38-1.41s0-.07.02-.1.05-.05.09-.05c.21,0,2.1-.06,2.53.16.43.22,2,2.92,2.07,3.57,0,.04.02.16-.07.23-.14.11-.37.17-.58.17Zm-3.46-2.7l1.27.28s.04.02.06.03c.66.65,1.76,1.78,1.74,2.05,0,0,.01.02.05.04.18.09.59.09.77-.04.06-.36-1.57-3.23-1.95-3.43-.26-.14-1.45-.15-2.27-.13l.33,1.2Z"/>
              <g class="cls-41">
                <path class="cls-26" d="m155.89,102.81s2.06-.07,2.47.14c.41.21,2.26,3.38,1.98,3.61-.28.23-1.04.16-1.02-.09.02-.25-1.7-1.96-1.7-1.96l-1.34-.3-.38-1.41Z"/>
                <g class="cls-52">
                  <path class="cls-27" d="m155.89,102.81s2.06-.07,2.47.14c.41.21,2.26,3.38,1.98,3.61-.28.23-1.04.16-1.02-.09.02-.25-1.7-1.96-1.7-1.96l-1.34-.3-.38-1.41Z"/>
                </g>
              </g>
            </g>
            <g>
              <g>
                <path class="cls-30" d="m132.44,91c1.49,2.3,4.49,8.13,5.36,8.78,1.36,1.02,10.49,3.51,11.37,4.19.88.68.82,1.36,1.65,1.61.83.25,3.95.96,5.14,1.07,1.19.11.66-.62.66-.62l-2.03-1.39,1.77-.44s1.77,2.13,2.11,2.25.92,0,.88-.26c-.06-.42-1.96-3.86-2.63-4.01-.67-.15-4.75.42-4.75.42,0,0-8.55-5.77-8.71-5.97,0,0-.51-1.45-.94-2.05s-.68-.43-.68-.43c0,0,.17-.77-.09-1.02-.26-.26-1.36-1.36-1.36-1.36l-.05.07c-.22-.47-.46-1-.72-1.6-.71-1.68-3.24-6.4-3.67-7.08-.32-.51-2.99-.87-4.34-1.03"/>
                <path class="cls-31" d="m156.19,106.78c-.07,0-.15,0-.23-.01-1.22-.11-4.36-.84-5.17-1.08-.51-.15-.71-.45-.94-.79-.18-.26-.37-.55-.75-.84-.38-.3-2.5-.98-4.73-1.71-2.89-.94-5.87-1.91-6.63-2.48-.56-.42-1.87-2.72-3.25-5.15-.81-1.43-1.58-2.79-2.15-3.66-.03-.05-.02-.13.03-.16.05-.03.13-.02.16.03.57.88,1.34,2.23,2.15,3.67,1.25,2.2,2.66,4.69,3.18,5.08.73.55,3.83,1.56,6.57,2.44,2.36.76,4.39,1.42,4.8,1.75.4.31.61.62.8.89.23.33.39.57.82.7.8.24,3.91.96,5.12,1.07.49.04.6-.06.63-.11.05-.09-.03-.25-.07-.31l-2.01-1.37s-.06-.07-.05-.12.04-.08.09-.09l1.77-.44s.09,0,.12.04c.73.88,1.85,2.14,2.05,2.21.21.07.56.04.69-.08.04-.03.04-.05.03-.06-.07-.46-1.97-3.79-2.54-3.92-.52-.11-3.31.23-4.71.42-.03,0-.06,0-.08-.02-1.43-.96-8.58-5.79-8.73-6,0,0-.01-.02-.02-.03,0-.01-.51-1.44-.92-2.02-.28-.4-.48-.42-.53-.39-.04.03-.09.02-.13,0-.04-.03-.06-.08-.04-.12.06-.27.1-.76-.05-.92l-1.28-1.28s-.04.01-.06.01c-.04,0-.08-.03-.09-.07-.23-.49-.47-1.01-.72-1.61-.73-1.72-3.26-6.42-3.66-7.06-.21-.33-1.8-.69-4.26-.97-.06,0-.11-.06-.1-.13s.07-.11.13-.1c1.84.21,4.11.57,4.43,1.08.4.64,2.94,5.37,3.68,7.1.23.53.44,1.02.66,1.46.03,0,.06.01.09.03l1.36,1.37c.22.22.19.71.15.97.15.02.37.12.63.5.41.57.88,1.86.95,2.05.3.27,5.29,3.66,8.63,5.91.47-.06,4.09-.55,4.75-.41.77.17,2.67,3.76,2.72,4.11.02.1-.03.2-.12.27-.19.16-.63.22-.92.12-.33-.12-1.73-1.77-2.11-2.23l-1.45.36,1.82,1.24s.02.02.03.03c.02.03.23.33.09.58-.09.16-.3.24-.62.24Z"/>
                <g class="cls-40">
                  <g class="cls-51">
                    <path class="cls-10" d="m138.39,91.14c1.11.99.74.99.5,1.86-.25.87.19-.31,1.24-.25,1.05.06.74,1.42.62,1.67s1.3.56,1.05,1.11c-.25.56-1.67,1.36-2.48,2.17-.81.81,2.11-1.3,3.1-1.36.3-.02.55.02.76.01-.17-.45-.53-1.35-.84-1.78-.43-.6-.68-.43-.68-.43,0,0,.17-.77-.09-1.02-.26-.26-1.36-1.36-1.36-1.36l-.05.07c-.22-.47-.46-1-.72-1.6-.71-1.68-3.24-6.4-3.67-7.08-.32-.51-2.99-.87-4.34-1.03l.12,1.08.03.02s1.67.31,2.23.37c.56.06,1.24.56,1.18.93-.06.37-1.67,2.04-1.18,2.17.5.12,1.05-1.24,1.61-1.05.56.19,1.86,4.52,2.97,5.51Z"/>
                  </g>
                </g>
              </g>
              <g>
                <path class="cls-24" d="m132.31,88.59s-.01,0-.02,0c-.06-.01-.1-.07-.09-.14.04-.21.09-.43.16-.65.02-.06.08-.1.15-.08.06.02.1.08.08.15-.06.21-.12.42-.16.62-.01.06-.06.09-.11.09Z"/>
                <path class="cls-24" d="m132.89,86.87s-.03,0-.05-.01c-.06-.03-.08-.1-.06-.15.74-1.56,1.84-2.77,1.85-2.78.04-.05.12-.05.16,0,.05.04.05.12,0,.16-.01.01-1.09,1.2-1.81,2.73-.02.04-.06.07-.11.07Z"/>
                <path class="cls-24" d="m138.14,97.31s-.05,0-.07-.02c-.05-.04-.07-.11-.03-.16.65-.95,1.66-2.15,2.79-2.49.06-.02.13.02.15.08s-.02.13-.08.15c-1.07.33-2.04,1.49-2.67,2.4-.02.03-.06.05-.1.05Z"/>
                <path class="cls-24" d="m137.45,98.46s-.04,0-.05-.01c-.06-.03-.08-.1-.05-.16,0,0,.12-.23.32-.55.03-.05.11-.07.16-.04.05.03.07.1.04.16-.2.32-.31.54-.31.54-.02.04-.06.06-.1.06Z"/>
                <path class="cls-24" d="m137.45,96.99s-.03,0-.04,0c-.06-.02-.09-.09-.06-.15.05-.12,1.17-2.9,2.33-3.64.23-.15.55-.32.75-.16.25.22,0,.85-.09,1.04-.03.06-.09.08-.15.06-.06-.03-.09-.09-.06-.15.15-.34.22-.7.15-.77-.03-.02-.16-.02-.47.18-1.1.71-2.23,3.51-2.24,3.53-.02.05-.06.07-.11.07Z"/>
              </g>
              <g>
                <path class="cls-29" d="m149.17,103.97c.88.68.82,1.36,1.65,1.61.83.25,3.95.96,5.14,1.07,1.19.11.66-.62.66-.62l-2.03-1.39,1.77-.44s1.77,2.13,2.11,2.25.96.16.88-.26c-.16-.82-1.96-3.86-2.63-4.01-.67-.15-4.75.42-4.75.42,0,0-7.79-5.35-8.64-5.93-3.31.32-4.89,2.05-5.54,3.09,0,0,.02.01.02.02,1.36,1.02,10.49,3.51,11.37,4.19Z"/>
                <path class="cls-31" d="m156.19,106.78c-.07,0-.15,0-.23-.01-1.22-.11-4.36-.84-5.17-1.08-.51-.15-.71-.45-.94-.79-.18-.26-.37-.55-.75-.84-.38-.3-2.5-.98-4.73-1.71-2.89-.94-5.87-1.91-6.63-2.48-.05-.04-.08-.12-.05-.17.65-1.03,2.26-2.82,5.63-3.14.03,0,.05,0,.08.02.81.55,8.02,5.5,8.61,5.9.47-.06,4.09-.55,4.75-.41.76.17,2.55,3.27,2.72,4.1.04.19-.04.3-.11.36-.22.19-.67.13-.93.04-.33-.12-1.73-1.77-2.11-2.23l-1.45.36,1.82,1.24s.02.02.03.03c.02.03.23.33.09.58-.09.16-.3.24-.62.24Zm-18.25-7.04c.84.56,3.84,1.53,6.5,2.4,2.36.76,4.39,1.42,4.8,1.75.4.31.61.62.8.89.23.33.39.57.82.7.8.24,3.91.96,5.12,1.07.49.04.6-.06.63-.11.05-.09-.03-.25-.07-.31l-2.01-1.37s-.06-.07-.05-.12.04-.08.09-.09l1.77-.44s.09,0,.12.04c.73.88,1.85,2.14,2.05,2.21.24.08.58.11.7,0,.02-.02.05-.05.03-.14-.16-.81-1.94-3.79-2.54-3.92-.51-.11-3.31.23-4.71.42-.03,0-.06,0-.08-.02-.08-.05-7.61-5.23-8.61-5.9-3.15.32-4.69,1.94-5.36,2.94Zm-.13.04h0s0,0,0,0h0Z"/>
                <g class="cls-45">
                  <path class="cls-26" d="m159.35,106.19c-.42-1.04-1.96-3.86-2.63-4.01-.67-.15-4.75.42-4.75.42,0,0-7.79-5.35-8.64-5.93-.99.1-1.83.32-2.53.61,1.23.69,9.43,5.34,10.46,5.55,1.1.23,4.76-.37,5.4.06.41.28,1.62,2.21,2.45,3.58.24-.04.32-.08.24-.29Z"/>
                  <g class="cls-52">
                    <path class="cls-27" d="m159.35,106.19c-.66-1.48-1.96-3.86-2.63-4.01-.67-.15-4.75.42-4.75.42,0,0-7.79-5.35-8.64-5.93-.99.1-1.83.32-2.53.61,1.23.69,9.43,5.34,10.46,5.55,1.1.23,4.76-.37,5.4.06.41.28,1.62,2.21,2.45,3.58.24-.04.33-.08.24-.29Z"/>
                  </g>
                </g>
              </g>
            </g>
          </g>
          <g>
            <g>
              <path class="cls-29" d="m128.62,63.37l-7,2.92s-.07,1.81-.9,3.56-.34,5.06.45,6.85c.79,1.79,4.3,1.09,5.59.87,1.29-.22,2.54-.74,2.54-.74,0,0,1.14.51,2.27-.32,0,0-3.76-10.52-2.95-13.14Z"/>
              <path class="cls-31" d="m123.94,78c-1.23,0-2.43-.27-2.87-1.26-.86-1.92-1.25-5.25-.45-6.95.81-1.71.89-3.5.89-3.51,0-.05.03-.09.07-.1l7-2.92s.09,0,.12.02c.03.03.05.08.03.12-.79,2.55,2.91,12.96,2.95,13.07.02.05,0,.1-.04.13-1.05.78-2.1.44-2.34.35-.24.09-1.37.53-2.52.73l-.17.03c-.64.11-1.66.29-2.67.29Zm-2.2-11.63c-.02.36-.17,1.98-.91,3.53-.77,1.64-.38,4.88.45,6.76.72,1.63,3.92,1.07,5.29.83l.17-.03c1.26-.22,2.51-.73,2.52-.73.03-.01.06-.01.09,0,.04.02,1.05.45,2.08-.25-.37-1.04-3.52-10.07-2.98-12.9l-6.72,2.81Z"/>
              <g class="cls-44">
                <path class="cls-26" d="m128.62,63.37l-7,2.92s-.07,1.81-.9,3.56-.34,5.06.45,6.85c.13.3.35.53.62.71v-.14s-1.3-3.22-1.05-5.08c.25-1.86,1.3-2.79,1.42-3.96.12-1.18.06-1.73,2.42-2.6,2.35-.87,3.34-1.67,3.59-.81.25.87,1.24,6.56,1.92,7.93s.62,2.79-.43,3.41c-.85.5-2.14,1.16-3.39,1.49.19-.03.35-.06.49-.09,1.29-.22,2.54-.74,2.54-.74,0,0,1.14.51,2.27-.32,0,0-3.76-10.52-2.95-13.14Z"/>
                <g class="cls-52">
                  <path class="cls-27" d="m128.62,63.37l-7,2.92s-.07,1.81-.9,3.56-.34,5.06.45,6.85c.13.3.35.53.62.71v-.14s-1.3-3.22-1.05-5.08c.25-1.86,1.3-2.79,1.42-3.96.12-1.18.06-1.73,2.42-2.6,2.35-.87,3.34-1.67,3.59-.81.25.87,1.24,6.56,1.92,7.93s.62,2.79-.43,3.41c-.85.5-2.14,1.16-3.39,1.49.19-.03.35-.06.49-.09,1.29-.22,2.54-.74,2.54-.74,0,0,1.14.51,2.27-.32,0,0-3.76-10.52-2.95-13.14Z"/>
                </g>
              </g>
            </g>
            <path class="cls-24" d="m123.57,72.67s-.02,0-.02,0c-.37-.07-.53-.69-.6-.95v-.03c-.04-.13.09-.32.88-1.26.43-.51.92-1.09,1-1.3.17-.44.14-1.16.14-1.17,0-.06.05-.12.11-.12.07,0,.12.05.12.11,0,.03.04.78-.16,1.27-.1.25-.56.79-1.04,1.37-.33.39-.79.93-.84,1.07h0c.13.5.27.76.42.79.06.01.1.07.09.14-.01.06-.06.09-.11.09Zm-.41-1.04h0s0,0,0,0Z"/>
            <path class="cls-24" d="m128.06,70.79h0c-.06,0-.12-.05-.12-.12,0-.7-.33-1.09-.57-1.15-.11-.03-.19.01-.24.12-.03.06-.1.08-.16.05-.06-.03-.08-.1-.05-.16.1-.2.29-.29.51-.24.37.09.76.6.75,1.38,0,.06-.05.12-.12.12Z"/>
            <path class="cls-24" d="m124.35,69.07s-.08-.02-.1-.06c-.55-.99-1.12-.77-1.15-.76-.06.02-.13,0-.15-.06s0-.13.06-.15c.03-.01.79-.33,1.44.86.03.06.01.13-.05.16-.02,0-.04.01-.06.01Z"/>
            <path class="cls-24" d="m128.18,72.14s-.03,0-.04-.02c-.94-.87-2.06-.87-2.08-.87h0s-.06-.03-.06-.06c0-.03.02-.06.06-.06.08,0,1.2.02,2.16.91.02.02.02.06,0,.08-.01.01-.03.02-.04.02Z"/>
            <path class="cls-24" d="m123.42,70.13s-.02,0-.03,0c-.4-.21-1.16-.32-1.16-.32-.03,0-.05-.03-.05-.07,0-.03.03-.05.07-.05.03,0,.78.11,1.2.33.03.01.04.05.02.08-.01.02-.03.03-.05.03Z"/>
            <path class="cls-24" d="m125.01,66.92s-.55-.33-1.18-.03-1.01.63-.97.25c.04-.39.78-.81,1-.86.22-.06,1.21-.21,1.15.64Z"/>
            <path class="cls-24" d="m126.76,66.05s1.05.81,1.51,1.97c.46,1.16.83-.11.46-.87-.37-.76-1.42-1.57-1.97-1.1Z"/>
            <g>
              <path class="cls-26" d="m131.67,78.5c0,.54-.31.98-.68.98s-.68-.44-.68-.98.31-1.92.68-1.92.68,1.38.68,1.92Z"/>
              <path class="cls-24" d="m130.98,79.59c-.44,0-.8-.49-.8-1.1,0-.4.26-2.04.8-2.04s.8,1.63.8,2.04c0,.6-.36,1.1-.8,1.1Zm0-2.9c-.23,0-.57,1.18-.57,1.8,0,.47.26.86.57.86s.57-.4.57-.86c0-.62-.34-1.8-.57-1.8Z"/>
            </g>
            <path class="cls-24" d="m127.09,69.37c-.03.07-.05.14-.06.22-.07.34-.14,1.06.01,1.09.15.03.45-.64.52-.99.01-.07.02-.14.02-.2-.17-.05-.34-.09-.5-.12Z"/>
            <path class="cls-24" d="m123.13,68.08c-.02.06-.04.12-.05.18-.07.34-.07,1.1.08,1.13.15.03.38-.68.45-1.02.02-.09.03-.17.03-.25-.19-.05-.36-.05-.51-.04Z"/>
            <path class="cls-24" d="m128.21,69.8s-.05-.01-.07-.03c-.26-.34-.68-.47-.83-.5l-.2.37s-.07.06-.12.04c-.04-.02-.06-.08-.04-.12l.23-.43s.05-.05.09-.05c.03,0,.64.11,1,.58.03.04.02.09-.02.12-.02.01-.03.02-.05.02Z"/>
            <path class="cls-24" d="m123.13,68.17s-.04,0-.06-.02c-.04-.03-.04-.09,0-.12l.24-.27s.02-.02.03-.02c.09-.05.34.02.72.2.04.02.06.07.04.12-.02.04-.07.06-.12.04-.37-.17-.52-.19-.57-.2l-.22.25s-.04.03-.07.03Z"/>
            <path class="cls-24" d="m124.07,74.96s-.09-.03-.11-.08c-.14-.42-.48-1.1-.8-1.1-.45,0-.81.65-.81.66-.03.06-.1.08-.16.05-.06-.03-.08-.1-.05-.16.02-.03.43-.78,1.02-.78s.98,1.13,1.02,1.25c.02.06-.01.13-.07.15-.01,0-.02,0-.04,0Z"/>
          </g>
        </g>
        <g>
          <g>
            <path class="cls-29" d="m105.42,105.37c-.59,0-1.22-.24-1.47-.35-.26-.11-.38-.41-.27-.67.11-.26.41-.38.67-.27.47.2,1.07.32,1.23.25.29-.33.75-2.33.16-3.29-.13-.21-.25-.25-.34-.26-.33-.05-.83.3-1,.46-.2.19-.53.18-.72-.02-.19-.2-.18-.53.02-.72.09-.09.93-.84,1.83-.72.3.04.73.2,1.06.74.86,1.4.27,4.08-.39,4.61-.22.17-.5.24-.8.24Z"/>
            <path class="cls-31" d="m105.42,105.48c-.61,0-1.26-.25-1.51-.36-.32-.14-.46-.5-.33-.82.14-.32.5-.46.82-.33.45.19.97.29,1.12.26.27-.37.66-2.26.13-3.13-.12-.19-.22-.2-.25-.21-.27-.04-.73.27-.91.43-.12.11-.28.17-.45.17-.17,0-.32-.08-.43-.2-.11-.12-.17-.28-.17-.45,0-.17.08-.32.2-.43.1-.09.97-.88,1.92-.75.33.04.79.22,1.15.79.91,1.48.29,4.2-.42,4.76-.22.17-.51.26-.87.26Zm-1.26-1.32c-.15,0-.3.09-.36.24-.04.1-.04.2,0,.3.04.1.11.17.21.21.24.1.85.34,1.42.34.31,0,.55-.07.72-.21.62-.5,1.18-3.13.36-4.46-.3-.5-.7-.64-.98-.68-.84-.11-1.64.61-1.73.69-.16.15-.17.39-.02.55.07.08.17.12.27.12.1,0,.2-.03.28-.1.19-.18.72-.54,1.1-.49.16.02.3.13.42.32.62,1.01.14,3.08-.17,3.43-.01.01-.03.02-.04.03-.21.09-.87-.06-1.32-.25-.05-.02-.1-.03-.15-.03Z"/>
            <g class="cls-42">
              <path class="cls-26" d="m106.09,100.9c-.21-.41-.49-.53-.69-.57-.58-.09-1.13.49-1.19.56-.12.13-.13.33-.05.48.09-.02.17-.06.24-.12.17-.16.67-.51,1-.46.08.01.2.05.34.26.59.95.13,2.96-.16,3.29-.16.07-.76-.05-1.23-.25-.06-.03-.12-.04-.18-.04.01.13.08.25.2.31.16.08.57.27.95.27.19,0,.38-.05.52-.18.43-.41.82-2.47.25-3.55Z"/>
              <g class="cls-52">
                <path class="cls-27" d="m106.09,100.9c-.21-.41-.49-.53-.69-.57-.58-.09-1.13.49-1.19.56-.12.13-.13.33-.05.48.09-.02.17-.06.24-.12.17-.16.67-.51,1-.46.08.01.2.05.34.26.59.95.13,2.96-.16,3.29-.16.07-.76-.05-1.23-.25-.06-.03-.12-.04-.18-.04.01.13.08.25.2.31.16.08.57.27.95.27.19,0,.38-.05.52-.18.43-.41.82-2.47.25-3.55Z"/>
              </g>
            </g>
          </g>
          <g>
            <rect class="cls-29" x="98.93" y="99.37" width="5.59" height="7.42"/>
            <path class="cls-31" d="m104.52,106.91h-5.59c-.06,0-.12-.05-.12-.12v-7.42c0-.06.05-.12.12-.12h5.59c.06,0,.12.05.12.12v7.42c0,.06-.05.12-.12.12Zm-5.48-.23h5.36v-7.19h-5.36v7.19Z"/>
            <g class="cls-43">
              <rect class="cls-26" x="98.93" y="99.37" width="2.29" height="7.42"/>
              <g class="cls-52">
                <rect class="cls-27" x="98.93" y="99.37" width="2.29" height="7.42"/>
              </g>
            </g>
          </g>
        </g>
        <g>
          <g>
            <path class="cls-24" d="m135.25,106.69h-23.89l-.78-13.13c-.09-.54.33-1.04.88-1.04h23.68c.55,0,.97.5.88,1.04l-.78,13.13Z"/>
            <path class="cls-24" d="m135.25,106.8h-23.89c-.06,0-.11-.05-.12-.11l-.78-13.13c-.05-.28.03-.58.23-.81.19-.23.47-.36.77-.36h23.68c.3,0,.58.13.77.36.19.23.27.53.23.82l-.78,13.12c0,.06-.05.11-.12.11Zm-23.78-.23h23.67l.77-13.02c.04-.24-.02-.47-.17-.64-.15-.17-.36-.28-.59-.28h-23.68c-.23,0-.45.1-.59.28-.15.17-.21.4-.17.63l.78,13.03Z"/>
          </g>
          <g>
            <path class="cls-27" d="m135.84,93.95s-.01,0-.02,0c-.06-.01-.11-.07-.1-.13.04-.21-.02-.43-.16-.6-.15-.17-.36-.27-.59-.27h-22.44c-.06,0-.12-.05-.12-.12s.05-.12.12-.12h22.44c.3,0,.58.13.77.35.19.22.26.51.22.79,0,.06-.06.1-.11.1Z"/>
            <path class="cls-27" d="m110.76,93.75s0,0,0,0c-.06,0-.11-.06-.11-.12.04-.51.47-.91.99-.91.06,0,.12.05.12.12s-.05.12-.12.12c-.4,0-.73.3-.76.69,0,.06-.06.11-.12.11Z"/>
          </g>
          <g>
            <rect class="cls-27" x="111.26" y="105.41" width="24.09" height="1.28"/>
            <path class="cls-24" d="m135.35,106.8h-24.09c-.06,0-.12-.05-.12-.12v-1.28c0-.06.05-.12.12-.12h24.09c.06,0,.12.05.12.12v1.28c0,.06-.05.12-.12.12Zm-23.97-.23h23.86v-1.05h-23.86v1.05Z"/>
          </g>
          <g>
            <ellipse class="cls-27" cx="123.22" cy="99.65" rx="1.71" ry="1.02"/>
            <path class="cls-24" d="m123.22,100.79c-1.02,0-1.82-.5-1.82-1.14s.8-1.14,1.82-1.14,1.82.5,1.82,1.14-.8,1.14-1.82,1.14Zm0-2.05c-.86,0-1.59.42-1.59.91s.73.91,1.59.91,1.59-.42,1.59-.91-.73-.91-1.59-.91Z"/>
          </g>
        </g>
        <rect class="cls-24" x="81.97" y="106.54" width="89.71" height="2.18"/>
      </g>
    </g>
  </g>
</svg>