<?xml version="1.0" encoding="UTF-8"?>
<svg xmlns="http://www.w3.org/2000/svg" xmlns:xlink="http://www.w3.org/1999/xlink" viewBox="0 0 216.22 128.04">
  <defs>
    <style>
      .cls-1 {
        clip-path: url(#clippath);
      }

      .cls-2 {
        fill: none;
      }

      .cls-2, .cls-3, .cls-4, .cls-5, .cls-6, .cls-7, .cls-8, .cls-9, .cls-10, .cls-11, .cls-12, .cls-13, .cls-14, .cls-15, .cls-16, .cls-17, .cls-18, .cls-19, .cls-20, .cls-21, .cls-22 {
        stroke-width: 0px;
      }

      .cls-23 {
        opacity: .1;
      }

      .cls-3 {
        filter: url(#drop-shadow-1);
        opacity: .35;
      }

      .cls-3, .cls-20 {
        fill: #e7e7e7;
      }

      .cls-4 {
        opacity: .05;
      }

      .cls-5 {
        opacity: .8;
      }

      .cls-5, .cls-17 {
        fill: #c4d600;
      }

      .cls-6 {
        fill: url(#linear-gradient);
        mix-blend-mode: multiply;
      }

      .cls-7, .cls-9 {
        opacity: .5;
      }

      .cls-8 {
        fill: url(#linear-gradient-2);
        mix-blend-mode: screen;
      }

      .cls-24 {
        clip-path: url(#clippath-1);
      }

      .cls-25 {
        clip-path: url(#clippath-2);
      }

      .cls-9, .cls-12 {
        fill: #fff;
      }

      .cls-10 {
        opacity: .4;
      }

      .cls-26 {
        opacity: .3;
      }

      .cls-27 {
        isolation: isolate;
      }

      .cls-12 {
        opacity: .6;
      }

      .cls-13 {
        opacity: .7;
      }

      .cls-14 {
        fill: #2b454e;
      }

      .cls-15 {
        fill: #1a2e35;
      }

      .cls-16 {
        fill: #375a64;
      }

      .cls-18 {
        fill: #b95a59;
      }

      .cls-19 {
        fill: #a13d3c;
      }

      .cls-21 {
        fill: #00dfbf;
      }

      .cls-22 {
        opacity: .2;
      }
    </style>
    <clipPath id="clippath">
      <path class="cls-2" d="m73.33,40.01h-25.24l-2.64,15c1.31-1.41,3.08-2.59,5.31-3.54,2.23-.95,4.53-1.43,6.9-1.43,5.17,0,8.93,1.33,11.27,3.99,2.34,2.66,3.5,6.03,3.5,10.1,0,1.31-.13,2.71-.38,4.22-1.01,5.73-3.45,10.36-7.35,13.9-3.89,3.54-8.91,5.31-15.03,5.31-5.48,0-9.62-1.36-12.43-4.07-2.81-2.71-4.17-6.3-4.07-10.78h8.36c.15,2.36,1.06,4.23,2.71,5.61,1.66,1.38,3.92,2.07,6.78,2.07,3.57,0,6.43-1.08,8.59-3.24,2.16-2.16,3.57-5.02,4.22-8.59.2-1,.3-2.04.3-3.09,0-2.61-.77-4.62-2.3-6.03-1.53-1.41-3.78-2.11-6.74-2.11-2.46,0-4.63.62-6.52,1.85s-3.4,2.9-4.56,5.01h-8.14l5.58-31.72h33.16l-1.28,7.54Z"/>
    </clipPath>
    <linearGradient id="linear-gradient" x1="-209.66" y1="1077.79" x2="-272.44" y2="1148.3" gradientTransform="translate(334 -1056)" gradientUnits="userSpaceOnUse">
      <stop offset=".08" stop-color="#c4d600"/>
      <stop offset="1" stop-color="#ffb700"/>
    </linearGradient>
    <linearGradient id="linear-gradient-2" x1="-240.1" y1="1123.11" x2="-188.72" y2="1025.16" gradientTransform="translate(334 -1056)" gradientUnits="userSpaceOnUse">
      <stop offset=".08" stop-color="#c4d600"/>
      <stop offset="1" stop-color="#007934"/>
    </linearGradient>
    <clipPath id="clippath-1">
      <path class="cls-2" d="m96.51,39.94c3.79-4.87,9.28-7.31,16.47-7.31,5.58,0,9.6,1.52,12.06,4.56,2.46,3.04,3.69,7.27,3.69,12.7,0,2.91-.33,6.28-.98,10.1-1.51,8.54-4.16,15.25-7.95,20.12-3.79,4.87-9.28,7.31-16.47,7.31-5.58,0-9.6-1.52-12.06-4.56-2.46-3.04-3.69-7.3-3.69-12.77,0-2.81.33-6.18.98-10.1,1.51-8.49,4.16-15.17,7.95-20.04Zm23.78,10.7c0-3.21-.65-5.71-1.96-7.5-1.31-1.78-3.54-2.68-6.71-2.68s-5.72.88-7.65,2.64c-1.93,1.76-3.4,4.02-4.41,6.78-1.01,2.76-1.86,6.13-2.56,10.1-.7,3.87-1.06,6.98-1.06,9.34,0,3.27.65,5.79,1.96,7.57,1.31,1.78,3.57,2.68,6.78,2.68s5.71-.88,7.65-2.64c1.93-1.76,3.4-4.02,4.41-6.78,1-2.76,1.86-6.15,2.56-10.17.65-4.02.98-7.13.98-9.34Z"/>
    </clipPath>
    <filter id="drop-shadow-1" filterUnits="userSpaceOnUse">
      <feOffset dx="-3" dy="4"/>
      <feGaussianBlur result="blur" stdDeviation="5"/>
      <feFlood flood-color="#000" flood-opacity=".75"/>
      <feComposite in2="blur" operator="in"/>
      <feComposite in="SourceGraphic"/>
    </filter>
    <clipPath id="clippath-2">
      <path class="cls-2" d="m150.84,39.94c3.79-4.87,9.28-7.31,16.47-7.31,5.58,0,9.6,1.52,12.06,4.56,2.46,3.04,3.69,7.27,3.69,12.7,0,2.91-.33,6.28-.98,10.1-1.51,8.54-4.16,15.25-7.95,20.12-3.79,4.87-9.28,7.31-16.47,7.31-5.58,0-9.6-1.52-12.06-4.56-2.46-3.04-3.69-7.3-3.69-12.77,0-2.81.33-6.18.98-10.1,1.51-8.49,4.15-15.17,7.95-20.04Zm23.78,10.7c0-3.21-.65-5.71-1.96-7.5s-3.54-2.68-6.71-2.68-5.72.88-7.65,2.64c-1.94,1.76-3.4,4.02-4.41,6.78-1,2.76-1.86,6.13-2.56,10.1-.7,3.87-1.05,6.98-1.05,9.34,0,3.27.65,5.79,1.96,7.57,1.31,1.78,3.57,2.68,6.78,2.68s5.71-.88,7.65-2.64c1.93-1.76,3.4-4.02,4.41-6.78,1-2.76,1.86-6.15,2.56-10.17.65-4.02.98-7.13.98-9.34Z"/>
    </clipPath>
  </defs>
  <g class="cls-27">
    <g id="Layer_1" data-name="Layer 1">
      <g class="cls-23">
        <path class="cls-17" d="m2.67,48.81C7.7,25.99,25.18,7.98,48.99,1.95,55.25.36,61.9-.44,68.53.24c27.07,2.79,59.37,21.01,76.13,24.83,16.76,3.82,36.41-11.46,58.69,12,22.28,23.46,17.14,77.75-27.42,88.39-44.56,10.64-69.36-15.55-89.15-9.82-19.79,5.73-55.23,3.27-76.15-13.64C-1.79,91.97-1.69,68.61,2.67,48.81Z"/>
        <path class="cls-5" d="m2.67,48.81C7.7,25.99,25.18,7.98,48.99,1.95,55.25.36,61.9-.44,68.53.24c27.07,2.79,59.37,21.01,76.13,24.83,16.76,3.82,36.41-11.46,58.69,12,22.28,23.46,17.14,77.75-27.42,88.39-44.56,10.64-69.36-15.55-89.15-9.82-19.79,5.73-55.23,3.27-76.15-13.64C-1.79,91.97-1.69,68.61,2.67,48.81Z"/>
      </g>
      <g class="cls-1">
        <g>
          <g>
            <rect class="cls-6" x="-.58" y="-26.98" width="217.38" height="134" transform="translate(216.22 80.04) rotate(180)"/>
            <rect class="cls-8" x="-.58" y="-26.98" width="217.38" height="134" transform="translate(216.22 80.04) rotate(180)"/>
          </g>
          <g>
            <rect class="cls-6" x="-.58" y="-26.98" width="217.38" height="134" transform="translate(216.22 80.04) rotate(180)"/>
            <rect class="cls-8" x="-.58" y="-26.98" width="217.38" height="134" transform="translate(216.22 80.04) rotate(180)"/>
          </g>
          <g>
            <rect class="cls-6" x="-.58" y="-26.98" width="217.38" height="134" transform="translate(216.22 80.04) rotate(180)"/>
            <rect class="cls-8" x="-.58" y="-26.98" width="217.38" height="134" transform="translate(216.22 80.04) rotate(180)"/>
          </g>
          <g>
            <rect class="cls-6" x="-.58" y="-26.98" width="217.38" height="134" transform="translate(216.22 80.04) rotate(180)"/>
            <rect class="cls-8" x="-.58" y="-26.98" width="217.38" height="134" transform="translate(216.22 80.04) rotate(180)"/>
          </g>
        </g>
      </g>
      <g class="cls-24">
        <g>
          <g>
            <rect class="cls-6" x="-.58" y="-26.98" width="217.38" height="134" transform="translate(216.22 80.04) rotate(180)"/>
            <rect class="cls-8" x="-.58" y="-26.98" width="217.38" height="134" transform="translate(216.22 80.04) rotate(180)"/>
          </g>
          <g>
            <rect class="cls-6" x="-.58" y="-26.98" width="217.38" height="134" transform="translate(216.22 80.04) rotate(180)"/>
            <rect class="cls-8" x="-.58" y="-26.98" width="217.38" height="134" transform="translate(216.22 80.04) rotate(180)"/>
          </g>
          <g>
            <rect class="cls-6" x="-.58" y="-26.98" width="217.38" height="134" transform="translate(216.22 80.04) rotate(180)"/>
            <rect class="cls-8" x="-.58" y="-26.98" width="217.38" height="134" transform="translate(216.22 80.04) rotate(180)"/>
          </g>
          <g>
            <rect class="cls-6" x="-.58" y="-26.98" width="217.38" height="134" transform="translate(216.22 80.04) rotate(180)"/>
            <rect class="cls-8" x="-.58" y="-26.98" width="217.38" height="134" transform="translate(216.22 80.04) rotate(180)"/>
          </g>
        </g>
      </g>
      <path id="Shadow" class="cls-20" d="m106.99,85.02l-13.89-8.02c-.55-.32-.55-.83,0-1.15,3.46-2.01,14.74-8.56,14.89-8.59.14-.03,11.47,6.58,14.92,8.61.55.32.55.84,0,1.15l-13.92,8c-.55.32-1.44.32-1.99,0Z"/>
      <g id="Lines">
        <path class="cls-21" d="m118.94,97.59c-.24,0-.47-.05-.65-.16l-21.22-12.25c-.2-.11-.3-.27-.3-.44s.11-.33.3-.44l5-2.89.11.2-5,2.89c-.12.07-.19.16-.19.25s.07.18.19.25l21.22,12.25c.29.17.79.17,1.08,0l4.07-2.35.11.2-4.07,2.35c-.18.11-.42.16-.65.16Z"/>
        <path class="cls-21" d="m118.94,99.75c-.24,0-.47-.05-.65-.16l-24.96-14.41c-.2-.11-.3-.27-.3-.44s.11-.33.3-.44l6.88-3.97.11.2-6.88,3.97c-.12.07-.19.16-.19.25s.07.18.19.25l24.96,14.41c.29.17.79.17,1.08,0l5.94-3.43.11.2-5.94,3.43c-.18.11-.42.16-.65.16Z"/>
        <path class="cls-21" d="m118.94,101.91c-.24,0-.47-.05-.65-.16l-28.7-16.57c-.2-.11-.3-.27-.3-.44,0-.17.11-.33.3-.44l8.74-5.05.11.2-8.74,5.05c-.12.07-.19.16-.19.25,0,.09.07.18.19.25l28.7,16.57c.29.17.79.17,1.08,0l7.81-4.51.11.2-7.81,4.51c-.18.11-.42.16-.65.16Z"/>
      </g>
      <g id="Server">
        <g>
          <polygon class="cls-15" points="93.04 71.71 107.99 80.34 122.94 71.71 107.99 63.09 93.04 71.71"/>
          <path class="cls-16" d="m107.99,80.34v3.98c-.36,0-.72-.08-.99-.24h0l-6.48-3.74-6.88-3.97c-.33-.19-.6-.65-.6-1.03v-3.62l14.53,8.39.41.24Z"/>
          <path class="cls-14" d="m122.94,71.71v3.62c0,.38-.27.84-.6,1.03l-5.94,3.43-7.41,4.28c-.28.16-.63.24-1,.24v-3.98l.46-.27,14.48-8.36Z"/>
          <g>
            <g>
              <path class="cls-21" d="m93.98,73.45v.49c0,.06.04.14.1.17l.11.06c.06.03.1,0,.1-.06v-.49c0-.06-.04-.14-.1-.17l-.11-.06c-.05-.03-.1,0-.1.06Z"/>
              <path class="cls-21" d="m94.48,73.74v.49c0,.06.04.14.1.17l.11.06c.05.03.1,0,.1-.06v-.49c0-.06-.04-.14-.1-.17l-.11-.06c-.05-.03-.1,0-.1.06Z"/>
              <path class="cls-21" d="m94.99,74.03v.49c0,.06.04.14.1.17l.11.06c.05.03.1,0,.1-.06v-.49c0-.06-.04-.14-.1-.17l-.11-.06c-.06-.03-.1,0-.1.06Z"/>
              <path class="cls-21" d="m95.49,74.32v.49c0,.06.04.14.1.17l.11.06c.06.03.1,0,.1-.06v-.49c0-.06-.04-.14-.1-.17l-.11-.06c-.05-.03-.1,0-.1.06Z"/>
              <path class="cls-15" d="m95.99,74.61v.49c0,.06.04.14.1.17l.11.06c.05.03.1,0,.1-.06v-.49c0-.06-.04-.14-.1-.17l-.11-.06c-.06-.03-.1,0-.1.06Z"/>
              <path class="cls-21" d="m96.49,74.9v.49c0,.06.04.14.1.17l.11.06c.06.03.1,0,.1-.06v-.49c0-.06-.04-.14-.1-.17l-.11-.06c-.06-.03-.1,0-.1.06Z"/>
              <path class="cls-15" d="m97,75.19v.49c0,.06.04.14.1.17l.11.06c.06.03.1,0,.1-.06v-.49c0-.06-.04-.14-.1-.17l-.11-.06c-.05-.03-.1,0-.1.06Z"/>
              <path class="cls-15" d="m97.5,75.48v.49c0,.06.04.14.1.17l.11.06c.05.03.1,0,.1-.06v-.49c0-.06-.04-.14-.1-.17l-.11-.06c-.06-.03-.1,0-.1.06Z"/>
              <path class="cls-15" d="m98,75.77v.49c0,.06.04.14.1.17l.11.06c.06.03.1,0,.1-.06v-.49c0-.06-.04-.14-.1-.17l-.11-.06c-.05-.03-.1,0-.1.06Z"/>
              <path class="cls-21" d="m98.51,76.06v.49c0,.06.04.14.1.17l.11.06c.06.03.1,0,.1-.06v-.49c0-.06-.04-.14-.1-.17l-.11-.06c-.05-.03-.1,0-.1.06Z"/>
              <path class="cls-21" d="m99.01,76.35v.49c0,.06.04.14.1.17l.11.06c.05.03.1,0,.1-.06v-.49c0-.06-.04-.14-.1-.17l-.11-.06c-.06-.03-.1,0-.1.06Z"/>
              <path class="cls-15" d="m99.51,76.64v.49c0,.06.04.14.1.17l.11.06c.06.03.1,0,.1-.06v-.49c0-.06-.04-.14-.1-.17l-.11-.06c-.05-.03-.1,0-.1.06Z"/>
              <path class="cls-15" d="m100.02,76.93v.49c0,.06.04.14.1.17l.11.06c.05.03.1,0,.1-.06v-.49c0-.06-.04-.14-.1-.17l-.11-.06c-.05-.03-.1,0-.1.06Z"/>
              <path class="cls-21" d="m100.52,77.22v.49c0,.06.04.14.1.17l.11.06c.05.03.1,0,.1-.06v-.49c0-.06-.04-.14-.1-.17l-.11-.06c-.06-.03-.1,0-.1.06Z"/>
              <path class="cls-21" d="m101.02,77.51v.49c0,.06.04.14.1.17l.11.06c.06.03.1,0,.1-.06v-.49c0-.06-.04-.14-.1-.17l-.11-.06c-.05-.03-.1,0-.1.06Z"/>
              <path class="cls-21" d="m101.53,77.8v.49c0,.06.04.14.1.17l.11.06c.05.03.1,0,.1-.06v-.49c0-.06-.04-.14-.1-.17l-.11-.06c-.06-.03-.1,0-.1.06Z"/>
              <path class="cls-21" d="m102.03,78.09v.49c0,.06.04.14.1.17l.11.06c.05.03.1,0,.1-.06v-.49c0-.06-.04-.14-.1-.17l-.11-.06c-.06-.03-.1,0-.1.06Z"/>
            </g>
            <g>
              <path class="cls-21" d="m93.98,74.9v.49c0,.06.04.14.1.17l.11.06c.06.03.1,0,.1-.06v-.49c0-.06-.04-.14-.1-.17l-.11-.06c-.05-.03-.1,0-.1.06Z"/>
              <path class="cls-15" d="m94.48,75.19v.49c0,.06.04.14.1.17l.11.06c.05.03.1,0,.1-.06v-.49c0-.06-.04-.14-.1-.17l-.11-.06c-.05-.03-.1,0-.1.06Z"/>
              <path class="cls-21" d="m94.99,75.48v.49c0,.06.04.14.1.17l.11.06c.05.03.1,0,.1-.06v-.49c0-.06-.04-.14-.1-.17l-.11-.06c-.06-.03-.1,0-.1.06Z"/>
              <path class="cls-15" d="m95.49,75.77v.49c0,.06.04.14.1.17l.11.06c.06.03.1,0,.1-.06v-.49c0-.06-.04-.14-.1-.17l-.11-.06c-.05-.03-.1,0-.1.06Z"/>
              <path class="cls-15" d="m95.99,76.06v.49c0,.06.04.14.1.17l.11.06c.05.03.1,0,.1-.06v-.49c0-.06-.04-.14-.1-.17l-.11-.06c-.06-.03-.1,0-.1.06Z"/>
              <path class="cls-21" d="m96.49,76.35v.49c0,.06.04.14.1.17l.11.06c.06.03.1,0,.1-.06v-.49c0-.06-.04-.14-.1-.17l-.11-.06c-.06-.03-.1,0-.1.06Z"/>
              <path class="cls-21" d="m97,76.64v.49c0,.06.04.14.1.17l.11.06c.06.03.1,0,.1-.06v-.49c0-.06-.04-.14-.1-.17l-.11-.06c-.05-.03-.1,0-.1.06Z"/>
              <path class="cls-21" d="m97.5,76.93v.49c0,.06.04.14.1.17l.11.06c.05.03.1,0,.1-.06v-.49c0-.06-.04-.14-.1-.17l-.11-.06c-.06-.03-.1,0-.1.06Z"/>
              <path class="cls-21" d="m98,77.22v.49c0,.06.04.14.1.17l.11.06c.06.03.1,0,.1-.06v-.49c0-.06-.04-.14-.1-.17l-.11-.06c-.05-.03-.1,0-.1.06Z"/>
              <path class="cls-15" d="m98.51,77.51v.49c0,.06.04.14.1.17l.11.06c.06.03.1,0,.1-.06v-.49c0-.06-.04-.14-.1-.17l-.11-.06c-.05-.03-.1,0-.1.06Z"/>
              <path class="cls-15" d="m99.01,77.8v.49c0,.06.04.14.1.17l.11.06c.05.03.1,0,.1-.06v-.49c0-.06-.04-.14-.1-.17l-.11-.06c-.06-.03-.1,0-.1.06Z"/>
              <path class="cls-21" d="m99.51,78.09v.49c0,.06.04.14.1.17l.11.06c.06.03.1,0,.1-.06v-.49c0-.06-.04-.14-.1-.17l-.11-.06c-.05-.03-.1,0-.1.06Z"/>
              <path class="cls-21" d="m100.02,78.38v.49c0,.06.04.14.1.17l.11.06c.05.03.1,0,.1-.06v-.49c0-.06-.04-.14-.1-.17l-.11-.06c-.05-.03-.1,0-.1.06Z"/>
              <path class="cls-15" d="m100.52,78.67v.49c0,.06.04.14.1.17l.11.06c.05.03.1,0,.1-.06v-.49c0-.06-.04-.14-.1-.17l-.11-.06c-.06-.03-.1,0-.1.06Z"/>
              <path class="cls-15" d="m101.02,78.96v.49c0,.06.04.14.1.17l.11.06c.06.03.1,0,.1-.06v-.49c0-.06-.04-.14-.1-.17l-.11-.06c-.05-.03-.1,0-.1.06Z"/>
              <path class="cls-15" d="m101.53,79.25v.49c0,.06.04.14.1.17l.11.06c.05.03.1,0,.1-.06v-.49c0-.06-.04-.14-.1-.17l-.11-.06c-.06-.03-.1,0-.1.06Z"/>
              <path class="cls-15" d="m102.03,79.54v.49c0,.06.04.14.1.17l.11.06c.05.03.1,0,.1-.06v-.49c0-.06-.04-.14-.1-.17l-.11-.06c-.06-.03-.1,0-.1.06Z"/>
            </g>
          </g>
          <g>
            <path class="cls-21" d="m103.71,79.74l.23-.13h0s0,0,0,0h0c.08-.04.19-.04.3.03.24.14.43.47.43.75,0,.14-.05.23-.13.28h0s0,0,0,0h0s-.21.12-.21.12l-.04-.06s-.08-.02-.12-.05c-.24-.14-.43-.47-.43-.75,0-.04,0-.08.01-.11l-.05-.08Z"/>
            <path class="cls-22" d="m103.71,79.74l.23-.13h0s0,0,0,0h0c.08-.04.19-.04.3.03.24.14.43.47.43.75,0,.14-.05.23-.13.28h0s0,0,0,0h0s-.21.12-.21.12l-.04-.06s-.08-.02-.12-.05c-.24-.14-.43-.47-.43-.75,0-.04,0-.08.01-.11l-.05-.08Z"/>
            <path class="cls-21" d="m104.03,79.77c.24.14.43.47.43.75s-.19.39-.43.25c-.24-.14-.43-.47-.43-.75,0-.28.19-.39.43-.25Z"/>
          </g>
          <g>
            <path class="cls-21" d="m105.59,80.83l.23-.13h0s0,0,0,0h0c.08-.04.19-.04.3.03.24.14.43.47.43.75,0,.14-.05.23-.13.28h0s0,0,0,0h0s-.21.12-.21.12l-.04-.06s-.08-.02-.12-.05c-.24-.14-.43-.47-.43-.75,0-.04,0-.08.01-.11l-.05-.08Z"/>
            <path class="cls-22" d="m105.59,80.83l.23-.13h0s0,0,0,0h0c.08-.04.19-.04.3.03.24.14.43.47.43.75,0,.14-.05.23-.13.28h0s0,0,0,0h0s-.21.12-.21.12l-.04-.06s-.08-.02-.12-.05c-.24-.14-.43-.47-.43-.75,0-.04,0-.08.01-.11l-.05-.08Z"/>
            <path class="cls-21" d="m105.9,80.85c.24.14.43.47.43.75,0,.28-.19.39-.43.25-.24-.14-.43-.47-.43-.75,0-.28.19-.39.43-.25Z"/>
          </g>
        </g>
        <g>
          <polygon class="cls-15" points="93.04 65.24 107.99 73.87 122.94 65.24 107.99 56.61 93.04 65.24"/>
          <polygon class="cls-16" points="93.04 69.56 107.99 78.19 107.99 73.87 93.04 65.24 93.04 69.56"/>
          <polygon class="cls-14" points="107.99 78.19 122.94 69.56 122.94 65.24 107.99 73.87 107.99 78.19"/>
          <polygon class="cls-21" points="94.91 71.71 94.91 70.64 107.99 78.19 107.99 79.26 94.91 71.71"/>
          <g>
            <polygon class="cls-21" points="122 70.1 122 71.17 107.99 79.26 107.99 78.19 122 70.1"/>
            <polygon class="cls-22" points="122 70.1 122 71.17 107.99 79.26 107.99 78.19 122 70.1"/>
          </g>
          <g>
            <g>
              <path class="cls-15" d="m93.98,66.98v.49c0,.06.04.14.1.17l.11.06c.06.03.1,0,.1-.06v-.49c0-.06-.04-.14-.1-.17l-.11-.06c-.05-.03-.1,0-.1.06Z"/>
              <path class="cls-21" d="m94.48,67.27v.49c0,.06.04.14.1.17l.11.06c.05.03.1,0,.1-.06v-.49c0-.06-.04-.14-.1-.17l-.11-.06c-.05-.03-.1,0-.1.06Z"/>
              <path class="cls-21" d="m94.99,67.56v.49c0,.06.04.14.1.17l.11.06c.05.03.1,0,.1-.06v-.49c0-.06-.04-.14-.1-.17l-.11-.06c-.06-.03-.1,0-.1.06Z"/>
              <path class="cls-15" d="m95.49,67.85v.49c0,.06.04.14.1.17l.11.06c.06.03.1,0,.1-.06v-.49c0-.06-.04-.14-.1-.17l-.11-.06c-.05-.03-.1,0-.1.06Z"/>
              <path class="cls-15" d="m95.99,68.14v.49c0,.06.04.14.1.17l.11.06c.05.03.1,0,.1-.06v-.49c0-.06-.04-.14-.1-.17l-.11-.06c-.06-.03-.1,0-.1.06Z"/>
              <path class="cls-21" d="m96.49,68.43v.49c0,.06.04.14.1.17l.11.06c.06.03.1,0,.1-.06v-.49c0-.06-.04-.14-.1-.17l-.11-.06c-.06-.03-.1,0-.1.06Z"/>
              <path class="cls-21" d="m97,68.72v.49c0,.06.04.14.1.17l.11.06c.06.03.1,0,.1-.06v-.49c0-.06-.04-.14-.1-.17l-.11-.06c-.05-.03-.1,0-.1.06Z"/>
              <path class="cls-21" d="m97.5,69.01v.49c0,.06.04.14.1.17l.11.06c.05.03.1,0,.1-.06v-.49c0-.06-.04-.14-.1-.17l-.11-.06c-.06-.03-.1,0-.1.06Z"/>
              <path class="cls-21" d="m98,69.3v.49c0,.06.04.14.1.17l.11.06c.06.03.1,0,.1-.06v-.49c0-.06-.04-.14-.1-.17l-.11-.06c-.05-.03-.1,0-.1.06Z"/>
              <path class="cls-15" d="m98.51,69.59v.49c0,.06.04.14.1.17l.11.06c.06.03.1,0,.1-.06v-.49c0-.06-.04-.14-.1-.17l-.11-.06c-.05-.03-.1,0-.1.06Z"/>
              <path class="cls-15" d="m99.01,69.88v.49c0,.06.04.14.1.17l.11.06c.05.03.1,0,.1-.06v-.49c0-.06-.04-.14-.1-.17l-.11-.06c-.06-.03-.1,0-.1.06Z"/>
              <path class="cls-15" d="m99.51,70.17v.49c0,.06.04.14.1.17l.11.06c.06.03.1,0,.1-.06v-.49c0-.06-.04-.14-.1-.17l-.11-.06c-.05-.03-.1,0-.1.06Z"/>
              <path class="cls-21" d="m100.02,70.46v.49c0,.06.04.14.1.17l.11.06c.05.03.1,0,.1-.06v-.49c0-.06-.04-.14-.1-.17l-.11-.06c-.05-.03-.1,0-.1.06Z"/>
              <path class="cls-21" d="m100.52,70.75v.49c0,.06.04.14.1.17l.11.06c.05.03.1,0,.1-.06v-.49c0-.06-.04-.14-.1-.17l-.11-.06c-.06-.03-.1,0-.1.06Z"/>
              <path class="cls-21" d="m101.02,71.04v.49c0,.06.04.14.1.17l.11.06c.06.03.1,0,.1-.06v-.49c0-.06-.04-.14-.1-.17l-.11-.06c-.05-.03-.1,0-.1.06Z"/>
              <path class="cls-15" d="m101.53,71.33v.49c0,.06.04.14.1.17l.11.06c.05.03.1,0,.1-.06v-.49c0-.06-.04-.14-.1-.17l-.11-.06c-.06-.03-.1,0-.1.06Z"/>
              <path class="cls-21" d="m102.03,71.62v.49c0,.06.04.14.1.17l.11.06c.05.03.1,0,.1-.06v-.49c0-.06-.04-.14-.1-.17l-.11-.06c-.06-.03-.1,0-.1.06Z"/>
            </g>
            <g>
              <path class="cls-21" d="m93.98,68.43v.49c0,.06.04.14.1.17l.11.06c.06.03.1,0,.1-.06v-.49c0-.06-.04-.14-.1-.17l-.11-.06c-.05-.03-.1,0-.1.06Z"/>
              <path class="cls-21" d="m94.48,68.72v.49c0,.06.04.14.1.17l.11.06c.05.03.1,0,.1-.06v-.49c0-.06-.04-.14-.1-.17l-.11-.06c-.05-.03-.1,0-.1.06Z"/>
              <path class="cls-21" d="m94.99,69.01v.49c0,.06.04.14.1.17l.11.06c.05.03.1,0,.1-.06v-.49c0-.06-.04-.14-.1-.17l-.11-.06c-.06-.03-.1,0-.1.06Z"/>
              <path class="cls-21" d="m95.49,69.3v.49c0,.06.04.14.1.17l.11.06c.06.03.1,0,.1-.06v-.49c0-.06-.04-.14-.1-.17l-.11-.06c-.05-.03-.1,0-.1.06Z"/>
              <path class="cls-15" d="m95.99,69.59v.49c0,.06.04.14.1.17l.11.06c.05.03.1,0,.1-.06v-.49c0-.06-.04-.14-.1-.17l-.11-.06c-.06-.03-.1,0-.1.06Z"/>
              <path class="cls-15" d="m96.49,69.88v.49c0,.06.04.14.1.17l.11.06c.06.03.1,0,.1-.06v-.49c0-.06-.04-.14-.1-.17l-.11-.06c-.06-.03-.1,0-.1.06Z"/>
              <path class="cls-21" d="m97,70.17v.49c0,.06.04.14.1.17l.11.06c.06.03.1,0,.1-.06v-.49c0-.06-.04-.14-.1-.17l-.11-.06c-.05-.03-.1,0-.1.06Z"/>
              <path class="cls-21" d="m97.5,70.46v.49c0,.06.04.14.1.17l.11.06c.05.03.1,0,.1-.06v-.49c0-.06-.04-.14-.1-.17l-.11-.06c-.06-.03-.1,0-.1.06Z"/>
              <path class="cls-21" d="m98,70.75v.49c0,.06.04.14.1.17l.11.06c.06.03.1,0,.1-.06v-.49c0-.06-.04-.14-.1-.17l-.11-.06c-.05-.03-.1,0-.1.06Z"/>
              <path class="cls-21" d="m98.51,71.04v.49c0,.06.04.14.1.17l.11.06c.06.03.1,0,.1-.06v-.49c0-.06-.04-.14-.1-.17l-.11-.06c-.05-.03-.1,0-.1.06Z"/>
              <path class="cls-21" d="m99.01,71.33v.49c0,.06.04.14.1.17l.11.06c.05.03.1,0,.1-.06v-.49c0-.06-.04-.14-.1-.17l-.11-.06c-.06-.03-.1,0-.1.06Z"/>
              <path class="cls-15" d="m99.51,71.62v.49c0,.06.04.14.1.17l.11.06c.06.03.1,0,.1-.06v-.49c0-.06-.04-.14-.1-.17l-.11-.06c-.05-.03-.1,0-.1.06Z"/>
              <path class="cls-21" d="m100.02,71.91v.49c0,.06.04.14.1.17l.11.06c.05.03.1,0,.1-.06v-.49c0-.06-.04-.14-.1-.17l-.11-.06c-.05-.03-.1,0-.1.06Z"/>
              <path class="cls-21" d="m100.52,72.2v.49c0,.06.04.14.1.17l.11.06c.05.03.1,0,.1-.06v-.49c0-.06-.04-.14-.1-.17l-.11-.06c-.06-.03-.1,0-.1.06Z"/>
              <path class="cls-21" d="m101.02,72.49v.49c0,.06.04.14.1.17l.11.06c.06.03.1,0,.1-.06v-.49c0-.06-.04-.14-.1-.17l-.11-.06c-.05-.03-.1,0-.1.06Z"/>
              <path class="cls-21" d="m101.53,72.78v.49c0,.06.04.14.1.17l.11.06c.05.03.1,0,.1-.06v-.49c0-.06-.04-.14-.1-.17l-.11-.06c-.06-.03-.1,0-.1.06Z"/>
              <path class="cls-21" d="m102.03,73.07v.49c0,.06.04.14.1.17l.11.06c.05.03.1,0,.1-.06v-.49c0-.06-.04-.14-.1-.17l-.11-.06c-.06-.03-.1,0-.1.06Z"/>
            </g>
          </g>
          <g>
            <path class="cls-21" d="m103.71,73.27l.23-.13s0,0,0,0h0s0,0,0,0c.08-.04.19-.04.3.03.24.14.43.47.43.75,0,.14-.05.23-.13.28h0s0,0,0,0h0s-.21.12-.21.12l-.04-.06s-.08-.02-.12-.05c-.24-.14-.43-.47-.43-.75,0-.04,0-.08.01-.11l-.05-.08Z"/>
            <path class="cls-22" d="m103.71,73.27l.23-.13s0,0,0,0h0s0,0,0,0c.08-.04.19-.04.3.03.24.14.43.47.43.75,0,.14-.05.23-.13.28h0s0,0,0,0h0s-.21.12-.21.12l-.04-.06s-.08-.02-.12-.05c-.24-.14-.43-.47-.43-.75,0-.04,0-.08.01-.11l-.05-.08Z"/>
            <path class="cls-21" d="m104.03,73.3c.24.14.43.47.43.75s-.19.39-.43.25c-.24-.14-.43-.47-.43-.75,0-.28.19-.39.43-.25Z"/>
          </g>
          <g>
            <path class="cls-21" d="m105.59,74.36l.23-.13h0s0,0,0,0h0c.08-.04.19-.04.3.03.24.14.43.47.43.75,0,.14-.05.23-.13.28h0s0,0,0,0h0s-.21.12-.21.12l-.04-.06s-.08-.02-.12-.05c-.24-.14-.43-.47-.43-.75,0-.04,0-.08.01-.11l-.05-.08Z"/>
            <path class="cls-22" d="m105.59,74.36l.23-.13h0s0,0,0,0h0c.08-.04.19-.04.3.03.24.14.43.47.43.75,0,.14-.05.23-.13.28h0s0,0,0,0h0s-.21.12-.21.12l-.04-.06s-.08-.02-.12-.05c-.24-.14-.43-.47-.43-.75,0-.04,0-.08.01-.11l-.05-.08Z"/>
            <path class="cls-21" d="m105.9,74.38c.24.14.43.47.43.75,0,.28-.19.39-.43.25-.24-.14-.43-.47-.43-.75,0-.28.19-.39.43-.25Z"/>
          </g>
        </g>
        <g>
          <polygon class="cls-15" points="93.04 58.77 107.99 67.4 122.94 58.77 107.99 50.14 93.04 58.77"/>
          <polygon class="cls-16" points="93.04 63.09 107.99 71.71 107.99 67.4 93.04 58.77 93.04 63.09"/>
          <polygon class="cls-14" points="107.99 71.71 122.94 63.09 122.94 58.77 107.99 67.4 107.99 71.71"/>
          <polygon class="cls-21" points="94.91 65.24 94.91 64.16 107.99 71.71 107.99 72.79 94.91 65.24"/>
          <g>
            <polygon class="cls-21" points="122 63.62 122 64.7 107.99 72.79 107.99 71.71 122 63.62"/>
            <polygon class="cls-22" points="122 63.62 122 64.7 107.99 72.79 107.99 71.71 122 63.62"/>
          </g>
          <g>
            <g>
              <path class="cls-21" d="m93.98,60.5v.49c0,.06.04.14.1.17l.11.06c.06.03.1,0,.1-.06v-.49c0-.06-.04-.14-.1-.17l-.11-.06c-.05-.03-.1,0-.1.06Z"/>
              <path class="cls-21" d="m94.48,60.79v.49c0,.06.04.14.1.17l.11.06c.05.03.1,0,.1-.06v-.49c0-.06-.04-.14-.1-.17l-.11-.06c-.05-.03-.1,0-.1.06Z"/>
              <path class="cls-21" d="m94.99,61.08v.49c0,.06.04.14.1.17l.11.06c.05.03.1,0,.1-.06v-.49c0-.06-.04-.14-.1-.17l-.11-.06c-.06-.03-.1,0-.1.06Z"/>
              <path class="cls-15" d="m95.49,61.37v.49c0,.06.04.14.1.17l.11.06c.06.03.1,0,.1-.06v-.49c0-.06-.04-.14-.1-.17l-.11-.06c-.05-.03-.1,0-.1.06Z"/>
              <path class="cls-15" d="m95.99,61.66v.49c0,.06.04.14.1.17l.11.06c.05.03.1,0,.1-.06v-.49c0-.06-.04-.14-.1-.17l-.11-.06c-.06-.03-.1,0-.1.06Z"/>
              <path class="cls-21" d="m96.49,61.95v.49c0,.06.04.14.1.17l.11.06c.06.03.1,0,.1-.06v-.49c0-.06-.04-.14-.1-.17l-.11-.06c-.06-.03-.1,0-.1.06Z"/>
              <path class="cls-21" d="m97,62.24v.49c0,.06.04.14.1.17l.11.06c.06.03.1,0,.1-.06v-.49c0-.06-.04-.14-.1-.17l-.11-.06c-.05-.03-.1,0-.1.06Z"/>
              <path class="cls-21" d="m97.5,62.53v.49c0,.06.04.14.1.17l.11.06c.05.03.1,0,.1-.06v-.49c0-.06-.04-.14-.1-.17l-.11-.06c-.06-.03-.1,0-.1.06Z"/>
              <path class="cls-21" d="m98,62.82v.49c0,.06.04.14.1.17l.11.06c.06.03.1,0,.1-.06v-.49c0-.06-.04-.14-.1-.17l-.11-.06c-.05-.03-.1,0-.1.06Z"/>
              <path class="cls-21" d="m98.51,63.11v.49c0,.06.04.14.1.17l.11.06c.06.03.1,0,.1-.06v-.49c0-.06-.04-.14-.1-.17l-.11-.06c-.05-.03-.1,0-.1.06Z"/>
              <path class="cls-21" d="m99.01,63.4v.49c0,.06.04.14.1.17l.11.06c.05.03.1,0,.1-.06v-.49c0-.06-.04-.14-.1-.17l-.11-.06c-.06-.03-.1,0-.1.06Z"/>
              <path class="cls-21" d="m99.51,63.69v.49c0,.06.04.14.1.17l.11.06c.06.03.1,0,.1-.06v-.49c0-.06-.04-.14-.1-.17l-.11-.06c-.05-.03-.1,0-.1.06Z"/>
              <path class="cls-15" d="m100.02,63.98v.49c0,.06.04.14.1.17l.11.06c.05.03.1,0,.1-.06v-.49c0-.06-.04-.14-.1-.17l-.11-.06c-.05-.03-.1,0-.1.06Z"/>
              <path class="cls-21" d="m100.52,64.28v.49c0,.06.04.14.1.17l.11.06c.05.03.1,0,.1-.06v-.49c0-.06-.04-.14-.1-.17l-.11-.06c-.06-.03-.1,0-.1.06Z"/>
              <path class="cls-21" d="m101.02,64.57v.49c0,.06.04.14.1.17l.11.06c.06.03.1,0,.1-.06v-.49c0-.06-.04-.14-.1-.17l-.11-.06c-.05-.03-.1,0-.1.06Z"/>
              <path class="cls-21" d="m101.53,64.86v.49c0,.06.04.14.1.17l.11.06c.05.03.1,0,.1-.06v-.49c0-.06-.04-.14-.1-.17l-.11-.06c-.06-.03-.1,0-.1.06Z"/>
              <path class="cls-21" d="m102.03,65.15v.49c0,.06.04.14.1.17l.11.06c.05.03.1,0,.1-.06v-.49c0-.06-.04-.14-.1-.17l-.11-.06c-.06-.03-.1,0-.1.06Z"/>
            </g>
            <g>
              <path class="cls-21" d="m93.98,61.95v.49c0,.06.04.14.1.17l.11.06c.06.03.1,0,.1-.06v-.49c0-.06-.04-.14-.1-.17l-.11-.06c-.05-.03-.1,0-.1.06Z"/>
              <path class="cls-15" d="m94.48,62.24v.49c0,.06.04.14.1.17l.11.06c.05.03.1,0,.1-.06v-.49c0-.06-.04-.14-.1-.17l-.11-.06c-.05-.03-.1,0-.1.06Z"/>
              <path class="cls-15" d="m94.99,62.53v.49c0,.06.04.14.1.17l.11.06c.05.03.1,0,.1-.06v-.49c0-.06-.04-.14-.1-.17l-.11-.06c-.06-.03-.1,0-.1.06Z"/>
              <path class="cls-21" d="m95.49,62.82v.49c0,.06.04.14.1.17l.11.06c.06.03.1,0,.1-.06v-.49c0-.06-.04-.14-.1-.17l-.11-.06c-.05-.03-.1,0-.1.06Z"/>
              <path class="cls-21" d="m95.99,63.11v.49c0,.06.04.14.1.17l.11.06c.05.03.1,0,.1-.06v-.49c0-.06-.04-.14-.1-.17l-.11-.06c-.06-.03-.1,0-.1.06Z"/>
              <path class="cls-15" d="m96.49,63.4v.49c0,.06.04.14.1.17l.11.06c.06.03.1,0,.1-.06v-.49c0-.06-.04-.14-.1-.17l-.11-.06c-.06-.03-.1,0-.1.06Z"/>
              <path class="cls-21" d="m97,63.69v.49c0,.06.04.14.1.17l.11.06c.06.03.1,0,.1-.06v-.49c0-.06-.04-.14-.1-.17l-.11-.06c-.05-.03-.1,0-.1.06Z"/>
              <path class="cls-21" d="m97.5,63.98v.49c0,.06.04.14.1.17l.11.06c.05.03.1,0,.1-.06v-.49c0-.06-.04-.14-.1-.17l-.11-.06c-.06-.03-.1,0-.1.06Z"/>
              <path class="cls-21" d="m98,64.28v.49c0,.06.04.14.1.17l.11.06c.06.03.1,0,.1-.06v-.49c0-.06-.04-.14-.1-.17l-.11-.06c-.05-.03-.1,0-.1.06Z"/>
              <path class="cls-21" d="m98.51,64.57v.49c0,.06.04.14.1.17l.11.06c.06.03.1,0,.1-.06v-.49c0-.06-.04-.14-.1-.17l-.11-.06c-.05-.03-.1,0-.1.06Z"/>
              <path class="cls-15" d="m99.01,64.86v.49c0,.06.04.14.1.17l.11.06c.05.03.1,0,.1-.06v-.49c0-.06-.04-.14-.1-.17l-.11-.06c-.06-.03-.1,0-.1.06Z"/>
              <path class="cls-15" d="m99.51,65.15v.49c0,.06.04.14.1.17l.11.06c.06.03.1,0,.1-.06v-.49c0-.06-.04-.14-.1-.17l-.11-.06c-.05-.03-.1,0-.1.06Z"/>
              <path class="cls-21" d="m100.02,65.44v.49c0,.06.04.14.1.17l.11.06c.05.03.1,0,.1-.06v-.49c0-.06-.04-.14-.1-.17l-.11-.06c-.05-.03-.1,0-.1.06Z"/>
              <path class="cls-21" d="m100.52,65.73v.49c0,.06.04.14.1.17l.11.06c.05.03.1,0,.1-.06v-.49c0-.06-.04-.14-.1-.17l-.11-.06c-.06-.03-.1,0-.1.06Z"/>
              <path class="cls-21" d="m101.02,66.02v.49c0,.06.04.14.1.17l.11.06c.06.03.1,0,.1-.06v-.49c0-.06-.04-.14-.1-.17l-.11-.06c-.05-.03-.1,0-.1.06Z"/>
              <path class="cls-15" d="m101.53,66.31v.49c0,.06.04.14.1.17l.11.06c.05.03.1,0,.1-.06v-.49c0-.06-.04-.14-.1-.17l-.11-.06c-.06-.03-.1,0-.1.06Z"/>
              <path class="cls-21" d="m102.03,66.6v.49c0,.06.04.14.1.17l.11.06c.05.03.1,0,.1-.06v-.49c0-.06-.04-.14-.1-.17l-.11-.06c-.06-.03-.1,0-.1.06Z"/>
            </g>
          </g>
          <g>
            <path class="cls-21" d="m103.71,66.8l.23-.13h0s0,0,0,0h0c.08-.04.19-.04.3.03.24.14.43.47.43.75,0,.14-.05.23-.13.28h0s0,0,0,0h0s-.21.12-.21.12l-.04-.06s-.08-.02-.12-.05c-.24-.14-.43-.47-.43-.75,0-.04,0-.08.01-.11l-.05-.08Z"/>
            <path class="cls-22" d="m103.71,66.8l.23-.13h0s0,0,0,0h0c.08-.04.19-.04.3.03.24.14.43.47.43.75,0,.14-.05.23-.13.28h0s0,0,0,0h0s-.21.12-.21.12l-.04-.06s-.08-.02-.12-.05c-.24-.14-.43-.47-.43-.75,0-.04,0-.08.01-.11l-.05-.08Z"/>
            <path class="cls-21" d="m104.03,66.82c.24.14.43.47.43.75s-.19.39-.43.25c-.24-.14-.43-.47-.43-.75,0-.28.19-.39.43-.25Z"/>
          </g>
          <g>
            <path class="cls-21" d="m105.59,67.88l.23-.13h0s0,0,0,0h0c.08-.04.19-.04.3.03.24.14.43.47.43.75,0,.14-.05.23-.13.28h0s0,0,0,0h0s-.21.12-.21.12l-.04-.06s-.08-.02-.12-.05c-.24-.14-.43-.47-.43-.75,0-.04,0-.08.01-.11l-.05-.08Z"/>
            <path class="cls-22" d="m105.59,67.88l.23-.13h0s0,0,0,0h0c.08-.04.19-.04.3.03.24.14.43.47.43.75,0,.14-.05.23-.13.28h0s0,0,0,0h0s-.21.12-.21.12l-.04-.06s-.08-.02-.12-.05c-.24-.14-.43-.47-.43-.75,0-.04,0-.08.01-.11l-.05-.08Z"/>
            <path class="cls-21" d="m105.9,67.91c.24.14.43.47.43.75,0,.28-.19.39-.43.25-.24-.14-.43-.47-.43-.75,0-.28.19-.39.43-.25Z"/>
          </g>
        </g>
        <g>
          <polygon class="cls-15" points="93.04 52.3 107.99 60.93 122.94 52.3 107.99 43.67 93.04 52.3"/>
          <polygon class="cls-16" points="93.04 56.61 107.99 65.24 107.99 60.93 93.04 52.3 93.04 56.61"/>
          <polygon class="cls-14" points="107.99 65.24 122.94 56.61 122.94 52.3 107.99 60.93 107.99 65.24"/>
          <polygon class="cls-21" points="94.91 58.77 94.91 57.69 107.99 65.24 107.99 66.32 94.91 58.77"/>
          <g>
            <polygon class="cls-21" points="122 57.15 122 58.23 107.99 66.32 107.99 65.24 122 57.15"/>
            <polygon class="cls-22" points="122 57.15 122 58.23 107.99 66.32 107.99 65.24 122 57.15"/>
          </g>
          <g>
            <g>
              <path class="cls-21" d="m93.98,54.03v.49c0,.06.04.14.1.17l.11.06c.06.03.1,0,.1-.06v-.49c0-.06-.04-.14-.1-.17l-.11-.06c-.05-.03-.1,0-.1.06Z"/>
              <path class="cls-15" d="m94.48,54.32v.49c0,.06.04.14.1.17l.11.06c.05.03.1,0,.1-.06v-.49c0-.06-.04-.14-.1-.17l-.11-.06c-.05-.03-.1,0-.1.06Z"/>
              <path class="cls-21" d="m94.99,54.61v.49c0,.06.04.14.1.17l.11.06c.05.03.1,0,.1-.06v-.49c0-.06-.04-.14-.1-.17l-.11-.06c-.06-.03-.1,0-.1.06Z"/>
              <path class="cls-15" d="m95.49,54.9v.49c0,.06.04.14.1.17l.11.06c.06.03.1,0,.1-.06v-.49c0-.06-.04-.14-.1-.17l-.11-.06c-.05-.03-.1,0-.1.06Z"/>
              <path class="cls-15" d="m95.99,55.19v.49c0,.06.04.14.1.17l.11.06c.05.03.1,0,.1-.06v-.49c0-.06-.04-.14-.1-.17l-.11-.06c-.06-.03-.1,0-.1.06Z"/>
              <path class="cls-15" d="m96.49,55.48v.49c0,.06.04.14.1.17l.11.06c.06.03.1,0,.1-.06v-.49c0-.06-.04-.14-.1-.17l-.11-.06c-.06-.03-.1,0-.1.06Z"/>
              <path class="cls-15" d="m97,55.77v.49c0,.06.04.14.1.17l.11.06c.06.03.1,0,.1-.06v-.49c0-.06-.04-.14-.1-.17l-.11-.06c-.05-.03-.1,0-.1.06Z"/>
              <path class="cls-21" d="m97.5,56.06v.49c0,.06.04.14.1.17l.11.06c.05.03.1,0,.1-.06v-.49c0-.06-.04-.14-.1-.17l-.11-.06c-.06-.03-.1,0-.1.06Z"/>
              <path class="cls-21" d="m98,56.35v.49c0,.06.04.14.1.17l.11.06c.06.03.1,0,.1-.06v-.49c0-.06-.04-.14-.1-.17l-.11-.06c-.05-.03-.1,0-.1.06Z"/>
              <path class="cls-21" d="m98.51,56.64v.49c0,.06.04.14.1.17l.11.06c.06.03.1,0,.1-.06v-.49c0-.06-.04-.14-.1-.17l-.11-.06c-.05-.03-.1,0-.1.06Z"/>
              <path class="cls-21" d="m99.01,56.93v.49c0,.06.04.14.1.17l.11.06c.05.03.1,0,.1-.06v-.49c0-.06-.04-.14-.1-.17l-.11-.06c-.06-.03-.1,0-.1.06Z"/>
              <path class="cls-15" d="m99.51,57.22v.49c0,.06.04.14.1.17l.11.06c.06.03.1,0,.1-.06v-.49c0-.06-.04-.14-.1-.17l-.11-.06c-.05-.03-.1,0-.1.06Z"/>
              <path class="cls-15" d="m100.02,57.51v.49c0,.06.04.14.1.17l.11.06c.05.03.1,0,.1-.06v-.49c0-.06-.04-.14-.1-.17l-.11-.06c-.05-.03-.1,0-.1.06Z"/>
              <path class="cls-15" d="m100.52,57.8v.49c0,.06.04.14.1.17l.11.06c.05.03.1,0,.1-.06v-.49c0-.06-.04-.14-.1-.17l-.11-.06c-.06-.03-.1,0-.1.06Z"/>
              <path class="cls-21" d="m101.02,58.09v.49c0,.06.04.14.1.17l.11.06c.06.03.1,0,.1-.06v-.49c0-.06-.04-.14-.1-.17l-.11-.06c-.05-.03-.1,0-.1.06Z"/>
              <path class="cls-15" d="m101.53,58.38v.49c0,.06.04.14.1.17l.11.06c.05.03.1,0,.1-.06v-.49c0-.06-.04-.14-.1-.17l-.11-.06c-.06-.03-.1,0-.1.06Z"/>
              <path class="cls-15" d="m102.03,58.67v.49c0,.06.04.14.1.17l.11.06c.05.03.1,0,.1-.06v-.49c0-.06-.04-.14-.1-.17l-.11-.06c-.06-.03-.1,0-.1.06Z"/>
            </g>
            <g>
              <path class="cls-15" d="m93.98,55.48v.49c0,.06.04.14.1.17l.11.06c.06.03.1,0,.1-.06v-.49c0-.06-.04-.14-.1-.17l-.11-.06c-.05-.03-.1,0-.1.06Z"/>
              <path class="cls-15" d="m94.48,55.77v.49c0,.06.04.14.1.17l.11.06c.05.03.1,0,.1-.06v-.49c0-.06-.04-.14-.1-.17l-.11-.06c-.05-.03-.1,0-.1.06Z"/>
              <path class="cls-21" d="m94.99,56.06v.49c0,.06.04.14.1.17l.11.06c.05.03.1,0,.1-.06v-.49c0-.06-.04-.14-.1-.17l-.11-.06c-.06-.03-.1,0-.1.06Z"/>
              <path class="cls-15" d="m95.49,56.35v.49c0,.06.04.14.1.17l.11.06c.06.03.1,0,.1-.06v-.49c0-.06-.04-.14-.1-.17l-.11-.06c-.05-.03-.1,0-.1.06Z"/>
              <path class="cls-15" d="m95.99,56.64v.49c0,.06.04.14.1.17l.11.06c.05.03.1,0,.1-.06v-.49c0-.06-.04-.14-.1-.17l-.11-.06c-.06-.03-.1,0-.1.06Z"/>
              <path class="cls-15" d="m96.49,56.93v.49c0,.06.04.14.1.17l.11.06c.06.03.1,0,.1-.06v-.49c0-.06-.04-.14-.1-.17l-.11-.06c-.06-.03-.1,0-.1.06Z"/>
              <path class="cls-15" d="m97,57.22v.49c0,.06.04.14.1.17l.11.06c.06.03.1,0,.1-.06v-.49c0-.06-.04-.14-.1-.17l-.11-.06c-.05-.03-.1,0-.1.06Z"/>
              <path class="cls-21" d="m97.5,57.51v.49c0,.06.04.14.1.17l.11.06c.05.03.1,0,.1-.06v-.49c0-.06-.04-.14-.1-.17l-.11-.06c-.06-.03-.1,0-.1.06Z"/>
              <path class="cls-15" d="m98,57.8v.49c0,.06.04.14.1.17l.11.06c.06.03.1,0,.1-.06v-.49c0-.06-.04-.14-.1-.17l-.11-.06c-.05-.03-.1,0-.1.06Z"/>
              <path class="cls-15" d="m98.51,58.09v.49c0,.06.04.14.1.17l.11.06c.06.03.1,0,.1-.06v-.49c0-.06-.04-.14-.1-.17l-.11-.06c-.05-.03-.1,0-.1.06Z"/>
              <path class="cls-15" d="m99.01,58.38v.49c0,.06.04.14.1.17l.11.06c.05.03.1,0,.1-.06v-.49c0-.06-.04-.14-.1-.17l-.11-.06c-.06-.03-.1,0-.1.06Z"/>
              <path class="cls-21" d="m99.51,58.67v.49c0,.06.04.14.1.17l.11.06c.06.03.1,0,.1-.06v-.49c0-.06-.04-.14-.1-.17l-.11-.06c-.05-.03-.1,0-.1.06Z"/>
              <path class="cls-21" d="m100.02,58.96v.49c0,.06.04.14.1.17l.11.06c.05.03.1,0,.1-.06v-.49c0-.06-.04-.14-.1-.17l-.11-.06c-.05-.03-.1,0-.1.06Z"/>
              <path class="cls-15" d="m100.52,59.25v.49c0,.06.04.14.1.17l.11.06c.05.03.1,0,.1-.06v-.49c0-.06-.04-.14-.1-.17l-.11-.06c-.06-.03-.1,0-.1.06Z"/>
              <path class="cls-15" d="m101.02,59.54v.49c0,.06.04.14.1.17l.11.06c.06.03.1,0,.1-.06v-.49c0-.06-.04-.14-.1-.17l-.11-.06c-.05-.03-.1,0-.1.06Z"/>
              <path class="cls-15" d="m101.53,59.83v.49c0,.06.04.14.1.17l.11.06c.05.03.1,0,.1-.06v-.49c0-.06-.04-.14-.1-.17l-.11-.06c-.06-.03-.1,0-.1.06Z"/>
              <path class="cls-15" d="m102.03,60.12v.49c0,.06.04.14.1.17l.11.06c.05.03.1,0,.1-.06v-.49c0-.06-.04-.14-.1-.17l-.11-.06c-.06-.03-.1,0-.1.06Z"/>
            </g>
          </g>
          <g>
            <path class="cls-21" d="m103.71,60.33l.23-.13h0s0,0,0,0h0c.08-.04.19-.04.3.03.24.14.43.47.43.75,0,.14-.05.23-.13.28h0s0,0,0,0h0s-.21.12-.21.12l-.04-.06s-.08-.02-.12-.05c-.24-.14-.43-.47-.43-.75,0-.04,0-.08.01-.11l-.05-.08Z"/>
            <path class="cls-22" d="m103.71,60.33l.23-.13h0s0,0,0,0h0c.08-.04.19-.04.3.03.24.14.43.47.43.75,0,.14-.05.23-.13.28h0s0,0,0,0h0s-.21.12-.21.12l-.04-.06s-.08-.02-.12-.05c-.24-.14-.43-.47-.43-.75,0-.04,0-.08.01-.11l-.05-.08Z"/>
            <path class="cls-21" d="m104.03,60.35c.24.14.43.47.43.75s-.19.39-.43.25c-.24-.14-.43-.47-.43-.75,0-.28.19-.39.43-.25Z"/>
          </g>
          <g>
            <path class="cls-21" d="m105.59,61.41l.23-.13h0s0,0,0,0h0c.08-.04.19-.04.3.03.24.14.43.47.43.75,0,.14-.05.23-.13.28h0s0,0,0,0h0s-.21.12-.21.12l-.04-.06s-.08-.02-.12-.05c-.24-.14-.43-.47-.43-.75,0-.04,0-.08.01-.11l-.05-.08Z"/>
            <path class="cls-22" d="m105.59,61.41l.23-.13h0s0,0,0,0h0c.08-.04.19-.04.3.03.24.14.43.47.43.75,0,.14-.05.23-.13.28h0s0,0,0,0h0s-.21.12-.21.12l-.04-.06s-.08-.02-.12-.05c-.24-.14-.43-.47-.43-.75,0-.04,0-.08.01-.11l-.05-.08Z"/>
            <path class="cls-21" d="m105.9,61.44c.24.14.43.47.43.75,0,.28-.19.39-.43.25-.24-.14-.43-.47-.43-.75,0-.28.19-.39.43-.25Z"/>
          </g>
        </g>
        <g>
          <polygon class="cls-15" points="93.04 45.83 107.99 54.46 122.94 45.83 107.99 37.2 93.04 45.83"/>
          <polygon class="cls-16" points="93.04 50.14 107.99 58.77 107.99 54.46 93.04 45.83 93.04 50.14"/>
          <polygon class="cls-14" points="107.99 58.77 122.94 50.14 122.94 45.83 107.99 54.46 107.99 58.77"/>
          <polygon class="cls-21" points="94.91 52.3 94.91 51.22 107.99 58.77 107.99 59.85 94.91 52.3"/>
          <g>
            <polygon class="cls-21" points="122 50.68 122 51.76 107.99 59.85 107.99 58.77 122 50.68"/>
            <polygon class="cls-22" points="122 50.68 122 51.76 107.99 59.85 107.99 58.77 122 50.68"/>
          </g>
          <g>
            <g>
              <path class="cls-21" d="m93.98,47.56v.49c0,.06.04.14.1.17l.11.06c.06.03.1,0,.1-.06v-.49c0-.06-.04-.14-.1-.17l-.11-.06c-.05-.03-.1,0-.1.06Z"/>
              <path class="cls-21" d="m94.48,47.85v.49c0,.06.04.14.1.17l.11.06c.05.03.1,0,.1-.06v-.49c0-.06-.04-.14-.1-.17l-.11-.06c-.05-.03-.1,0-.1.06Z"/>
              <path class="cls-15" d="m94.99,48.14v.49c0,.06.04.14.1.17l.11.06c.05.03.1,0,.1-.06v-.49c0-.06-.04-.14-.1-.17l-.11-.06c-.06-.03-.1,0-.1.06Z"/>
              <path class="cls-21" d="m95.49,48.43v.49c0,.06.04.14.1.17l.11.06c.06.03.1,0,.1-.06v-.49c0-.06-.04-.14-.1-.17l-.11-.06c-.05-.03-.1,0-.1.06Z"/>
              <path class="cls-21" d="m95.99,48.72v.49c0,.06.04.14.1.17l.11.06c.05.03.1,0,.1-.06v-.49c0-.06-.04-.14-.1-.17l-.11-.06c-.06-.03-.1,0-.1.06Z"/>
              <path class="cls-15" d="m96.49,49.01v.49c0,.06.04.14.1.17l.11.06c.06.03.1,0,.1-.06v-.49c0-.06-.04-.14-.1-.17l-.11-.06c-.06-.03-.1,0-.1.06Z"/>
              <path class="cls-15" d="m97,49.3v.49c0,.06.04.14.1.17l.11.06c.06.03.1,0,.1-.06v-.49c0-.06-.04-.14-.1-.17l-.11-.06c-.05-.03-.1,0-.1.06Z"/>
              <path class="cls-21" d="m97.5,49.59v.49c0,.06.04.14.1.17l.11.06c.05.03.1,0,.1-.06v-.49c0-.06-.04-.14-.1-.17l-.11-.06c-.06-.03-.1,0-.1.06Z"/>
              <path class="cls-15" d="m98,49.88v.49c0,.06.04.14.1.17l.11.06c.06.03.1,0,.1-.06v-.49c0-.06-.04-.14-.1-.17l-.11-.06c-.05-.03-.1,0-.1.06Z"/>
              <path class="cls-21" d="m98.51,50.17v.49c0,.06.04.14.1.17l.11.06c.06.03.1,0,.1-.06v-.49c0-.06-.04-.14-.1-.17l-.11-.06c-.05-.03-.1,0-.1.06Z"/>
              <path class="cls-21" d="m99.01,50.46v.49c0,.06.04.14.1.17l.11.06c.05.03.1,0,.1-.06v-.49c0-.06-.04-.14-.1-.17l-.11-.06c-.06-.03-.1,0-.1.06Z"/>
              <path class="cls-21" d="m99.51,50.75v.49c0,.06.04.14.1.17l.11.06c.06.03.1,0,.1-.06v-.49c0-.06-.04-.14-.1-.17l-.11-.06c-.05-.03-.1,0-.1.06Z"/>
              <path class="cls-21" d="m100.02,51.04v.49c0,.06.04.14.1.17l.11.06c.05.03.1,0,.1-.06v-.49c0-.06-.04-.14-.1-.17l-.11-.06c-.05-.03-.1,0-.1.06Z"/>
              <path class="cls-15" d="m100.52,51.33v.49c0,.06.04.14.1.17l.11.06c.05.03.1,0,.1-.06v-.49c0-.06-.04-.14-.1-.17l-.11-.06c-.06-.03-.1,0-.1.06Z"/>
              <path class="cls-15" d="m101.02,51.62v.49c0,.06.04.14.1.17l.11.06c.06.03.1,0,.1-.06v-.49c0-.06-.04-.14-.1-.17l-.11-.06c-.05-.03-.1,0-.1.06Z"/>
              <path class="cls-15" d="m101.53,51.91v.49c0,.06.04.14.1.17l.11.06c.05.03.1,0,.1-.06v-.49c0-.06-.04-.14-.1-.17l-.11-.06c-.06-.03-.1,0-.1.06Z"/>
              <path class="cls-21" d="m102.03,52.2v.49c0,.06.04.14.1.17l.11.06c.05.03.1,0,.1-.06v-.49c0-.06-.04-.14-.1-.17l-.11-.06c-.06-.03-.1,0-.1.06Z"/>
            </g>
            <g>
              <path class="cls-21" d="m93.98,49.01v.49c0,.06.04.14.1.17l.11.06c.06.03.1,0,.1-.06v-.49c0-.06-.04-.14-.1-.17l-.11-.06c-.05-.03-.1,0-.1.06Z"/>
              <path class="cls-21" d="m94.48,49.3v.49c0,.06.04.14.1.17l.11.06c.05.03.1,0,.1-.06v-.49c0-.06-.04-.14-.1-.17l-.11-.06c-.05-.03-.1,0-.1.06Z"/>
              <path class="cls-21" d="m94.99,49.59v.49c0,.06.04.14.1.17l.11.06c.05.03.1,0,.1-.06v-.49c0-.06-.04-.14-.1-.17l-.11-.06c-.06-.03-.1,0-.1.06Z"/>
              <path class="cls-15" d="m95.49,49.88v.49c0,.06.04.14.1.17l.11.06c.06.03.1,0,.1-.06v-.49c0-.06-.04-.14-.1-.17l-.11-.06c-.05-.03-.1,0-.1.06Z"/>
              <path class="cls-15" d="m95.99,50.17v.49c0,.06.04.14.1.17l.11.06c.05.03.1,0,.1-.06v-.49c0-.06-.04-.14-.1-.17l-.11-.06c-.06-.03-.1,0-.1.06Z"/>
              <path class="cls-21" d="m96.49,50.46v.49c0,.06.04.14.1.17l.11.06c.06.03.1,0,.1-.06v-.49c0-.06-.04-.14-.1-.17l-.11-.06c-.06-.03-.1,0-.1.06Z"/>
              <path class="cls-21" d="m97,50.75v.49c0,.06.04.14.1.17l.11.06c.06.03.1,0,.1-.06v-.49c0-.06-.04-.14-.1-.17l-.11-.06c-.05-.03-.1,0-.1.06Z"/>
              <path class="cls-21" d="m97.5,51.04v.49c0,.06.04.14.1.17l.11.06c.05.03.1,0,.1-.06v-.49c0-.06-.04-.14-.1-.17l-.11-.06c-.06-.03-.1,0-.1.06Z"/>
              <path class="cls-15" d="m98,51.33v.49c0,.06.04.14.1.17l.11.06c.06.03.1,0,.1-.06v-.49c0-.06-.04-.14-.1-.17l-.11-.06c-.05-.03-.1,0-.1.06Z"/>
              <path class="cls-15" d="m98.51,51.62v.49c0,.06.04.14.1.17l.11.06c.06.03.1,0,.1-.06v-.49c0-.06-.04-.14-.1-.17l-.11-.06c-.05-.03-.1,0-.1.06Z"/>
              <path class="cls-15" d="m99.01,51.91v.49c0,.06.04.14.1.17l.11.06c.05.03.1,0,.1-.06v-.49c0-.06-.04-.14-.1-.17l-.11-.06c-.06-.03-.1,0-.1.06Z"/>
              <path class="cls-15" d="m99.51,52.2v.49c0,.06.04.14.1.17l.11.06c.06.03.1,0,.1-.06v-.49c0-.06-.04-.14-.1-.17l-.11-.06c-.05-.03-.1,0-.1.06Z"/>
              <path class="cls-21" d="m100.02,52.49v.49c0,.06.04.14.1.17l.11.06c.05.03.1,0,.1-.06v-.49c0-.06-.04-.14-.1-.17l-.11-.06c-.05-.03-.1,0-.1.06Z"/>
              <path class="cls-21" d="m100.52,52.78v.49c0,.06.04.14.1.17l.11.06c.05.03.1,0,.1-.06v-.49c0-.06-.04-.14-.1-.17l-.11-.06c-.06-.03-.1,0-.1.06Z"/>
              <path class="cls-21" d="m101.02,53.07v.49c0,.06.04.14.1.17l.11.06c.06.03.1,0,.1-.06v-.49c0-.06-.04-.14-.1-.17l-.11-.06c-.05-.03-.1,0-.1.06Z"/>
              <path class="cls-21" d="m101.53,53.36v.49c0,.06.04.14.1.17l.11.06c.05.03.1,0,.1-.06v-.49c0-.06-.04-.14-.1-.17l-.11-.06c-.06-.03-.1,0-.1.06Z"/>
              <path class="cls-21" d="m102.03,53.65v.49c0,.06.04.14.1.17l.11.06c.05.03.1,0,.1-.06v-.49c0-.06-.04-.14-.1-.17l-.11-.06c-.06-.03-.1,0-.1.06Z"/>
            </g>
          </g>
          <g>
            <path class="cls-21" d="m103.71,53.86l.23-.13s0,0,0,0h0s0,0,0,0c.08-.04.19-.04.3.03.24.14.43.47.43.75,0,.14-.05.23-.13.28h0s0,0,0,0h0s-.21.12-.21.12l-.04-.06s-.08-.02-.12-.05c-.24-.14-.43-.47-.43-.75,0-.04,0-.08.01-.11l-.05-.08Z"/>
            <path class="cls-22" d="m103.71,53.86l.23-.13s0,0,0,0h0s0,0,0,0c.08-.04.19-.04.3.03.24.14.43.47.43.75,0,.14-.05.23-.13.28h0s0,0,0,0h0s-.21.12-.21.12l-.04-.06s-.08-.02-.12-.05c-.24-.14-.43-.47-.43-.75,0-.04,0-.08.01-.11l-.05-.08Z"/>
            <path class="cls-21" d="m104.03,53.88c.24.14.43.47.43.75s-.19.39-.43.25c-.24-.14-.43-.47-.43-.75,0-.28.19-.39.43-.25Z"/>
          </g>
          <g>
            <path class="cls-21" d="m105.59,54.94l.23-.13h0s0,0,0,0h0c.08-.04.19-.04.3.03.24.14.43.47.43.75,0,.14-.05.23-.13.28h0s0,0,0,0h0s-.21.12-.21.12l-.04-.06s-.08-.02-.12-.05c-.24-.14-.43-.47-.43-.75,0-.04,0-.08.01-.11l-.05-.08Z"/>
            <path class="cls-22" d="m105.59,54.94l.23-.13h0s0,0,0,0h0c.08-.04.19-.04.3.03.24.14.43.47.43.75,0,.14-.05.23-.13.28h0s0,0,0,0h0s-.21.12-.21.12l-.04-.06s-.08-.02-.12-.05c-.24-.14-.43-.47-.43-.75,0-.04,0-.08.01-.11l-.05-.08Z"/>
            <path class="cls-21" d="m105.9,54.97c.24.14.43.47.43.75,0,.28-.19.39-.43.25-.24-.14-.43-.47-.43-.75,0-.28.19-.39.43-.25Z"/>
          </g>
        </g>
        <g>
          <path class="cls-14" d="m122.34,39.01l-13.76-7.94c-.33-.19-.87-.19-1.19,0l-13.74,7.94c-.33.19-.6.66-.6,1.03v3.62l14.95,8.63h0l14.94-8.63v-3.62c0-.38-.27-.85-.6-1.03Z"/>
          <path class="cls-16" d="m108,47.78v4.52l-14.95-8.63v-3.62c0-.34.21-.74.49-.96-.22.19-.18.45.11.61l13.76,7.94c.16.09.38.14.6.14Z"/>
          <path class="cls-15" d="m93.64,39.7l13.76,7.94c.33.19.86.19,1.19,0l13.74-7.94c.33-.19.33-.5,0-.69l-13.76-7.94c-.33-.19-.86-.19-1.19,0l-13.74,7.94c-.33.19-.33.5,0,.69Z"/>
          <polygon class="cls-21" points="94.91 45.83 94.91 44.75 107.99 52.3 107.99 53.38 94.91 45.83"/>
          <g>
            <polygon class="cls-21" points="122 44.21 122 45.29 107.99 53.38 107.99 52.3 122 44.21"/>
            <polygon class="cls-22" points="122 44.21 122 45.29 107.99 53.38 107.99 52.3 122 44.21"/>
          </g>
          <g>
            <g>
              <path class="cls-15" d="m93.98,41.09v.49c0,.06.04.14.1.17l.11.06c.06.03.1,0,.1-.06v-.49c0-.06-.04-.14-.1-.17l-.11-.06c-.05-.03-.1,0-.1.06Z"/>
              <path class="cls-15" d="m94.48,41.38v.49c0,.06.04.14.1.17l.11.06c.05.03.1,0,.1-.06v-.49c0-.06-.04-.14-.1-.17l-.11-.06c-.05-.03-.1,0-.1.06Z"/>
              <path class="cls-15" d="m94.99,41.67v.49c0,.06.04.14.1.17l.11.06c.05.03.1,0,.1-.06v-.49c0-.06-.04-.14-.1-.17l-.11-.06c-.06-.03-.1,0-.1.06Z"/>
              <path class="cls-21" d="m95.49,41.96v.49c0,.06.04.14.1.17l.11.06c.06.03.1,0,.1-.06v-.49c0-.06-.04-.14-.1-.17l-.11-.06c-.05-.03-.1,0-.1.06Z"/>
              <path class="cls-21" d="m95.99,42.25v.49c0,.06.04.14.1.17l.11.06c.05.03.1,0,.1-.06v-.49c0-.06-.04-.14-.1-.17l-.11-.06c-.06-.03-.1,0-.1.06Z"/>
              <path class="cls-15" d="m96.49,42.54v.49c0,.06.04.14.1.17l.11.06c.06.03.1,0,.1-.06v-.49c0-.06-.04-.14-.1-.17l-.11-.06c-.06-.03-.1,0-.1.06Z"/>
              <path class="cls-15" d="m97,42.83v.49c0,.06.04.14.1.17l.11.06c.06.03.1,0,.1-.06v-.49c0-.06-.04-.14-.1-.17l-.11-.06c-.05-.03-.1,0-.1.06Z"/>
              <path class="cls-15" d="m97.5,43.12v.49c0,.06.04.14.1.17l.11.06c.05.03.1,0,.1-.06v-.49c0-.06-.04-.14-.1-.17l-.11-.06c-.06-.03-.1,0-.1.06Z"/>
              <path class="cls-15" d="m98,43.41v.49c0,.06.04.14.1.17l.11.06c.06.03.1,0,.1-.06v-.49c0-.06-.04-.14-.1-.17l-.11-.06c-.05-.03-.1,0-.1.06Z"/>
              <path class="cls-15" d="m98.51,43.7v.49c0,.06.04.14.1.17l.11.06c.06.03.1,0,.1-.06v-.49c0-.06-.04-.14-.1-.17l-.11-.06c-.05-.03-.1,0-.1.06Z"/>
              <path class="cls-21" d="m99.01,43.99v.49c0,.06.04.14.1.17l.11.06c.05.03.1,0,.1-.06v-.49c0-.06-.04-.14-.1-.17l-.11-.06c-.06-.03-.1,0-.1.06Z"/>
              <path class="cls-21" d="m99.51,44.28v.49c0,.06.04.14.1.17l.11.06c.06.03.1,0,.1-.06v-.49c0-.06-.04-.14-.1-.17l-.11-.06c-.05-.03-.1,0-.1.06Z"/>
              <path class="cls-15" d="m100.02,44.57v.49c0,.06.04.14.1.17l.11.06c.05.03.1,0,.1-.06v-.49c0-.06-.04-.14-.1-.17l-.11-.06c-.05-.03-.1,0-.1.06Z"/>
              <path class="cls-21" d="m100.52,44.86v.49c0,.06.04.14.1.17l.11.06c.05.03.1,0,.1-.06v-.49c0-.06-.04-.14-.1-.17l-.11-.06c-.06-.03-.1,0-.1.06Z"/>
              <path class="cls-15" d="m101.02,45.15v.49c0,.06.04.14.1.17l.11.06c.06.03.1,0,.1-.06v-.49c0-.06-.04-.14-.1-.17l-.11-.06c-.05-.03-.1,0-.1.06Z"/>
              <path class="cls-15" d="m101.53,45.44v.49c0,.06.04.14.1.17l.11.06c.05.03.1,0,.1-.06v-.49c0-.06-.04-.14-.1-.17l-.11-.06c-.06-.03-.1,0-.1.06Z"/>
              <path class="cls-15" d="m102.03,45.73v.49c0,.06.04.14.1.17l.11.06c.05.03.1,0,.1-.06v-.49c0-.06-.04-.14-.1-.17l-.11-.06c-.06-.03-.1,0-.1.06Z"/>
            </g>
            <g>
              <path class="cls-21" d="m93.98,42.54v.49c0,.06.04.14.1.17l.11.06c.06.03.1,0,.1-.06v-.49c0-.06-.04-.14-.1-.17l-.11-.06c-.05-.03-.1,0-.1.06Z"/>
              <path class="cls-15" d="m94.48,42.83v.49c0,.06.04.14.1.17l.11.06c.05.03.1,0,.1-.06v-.49c0-.06-.04-.14-.1-.17l-.11-.06c-.05-.03-.1,0-.1.06Z"/>
              <path class="cls-15" d="m94.99,43.12v.49c0,.06.04.14.1.17l.11.06c.05.03.1,0,.1-.06v-.49c0-.06-.04-.14-.1-.17l-.11-.06c-.06-.03-.1,0-.1.06Z"/>
              <path class="cls-15" d="m95.49,43.41v.49c0,.06.04.14.1.17l.11.06c.06.03.1,0,.1-.06v-.49c0-.06-.04-.14-.1-.17l-.11-.06c-.05-.03-.1,0-.1.06Z"/>
              <path class="cls-15" d="m95.99,43.7v.49c0,.06.04.14.1.17l.11.06c.05.03.1,0,.1-.06v-.49c0-.06-.04-.14-.1-.17l-.11-.06c-.06-.03-.1,0-.1.06Z"/>
              <path class="cls-21" d="m96.49,43.99v.49c0,.06.04.14.1.17l.11.06c.06.03.1,0,.1-.06v-.49c0-.06-.04-.14-.1-.17l-.11-.06c-.06-.03-.1,0-.1.06Z"/>
              <path class="cls-15" d="m97,44.28v.49c0,.06.04.14.1.17l.11.06c.06.03.1,0,.1-.06v-.49c0-.06-.04-.14-.1-.17l-.11-.06c-.05-.03-.1,0-.1.06Z"/>
              <path class="cls-21" d="m97.5,44.57v.49c0,.06.04.14.1.17l.11.06c.05.03.1,0,.1-.06v-.49c0-.06-.04-.14-.1-.17l-.11-.06c-.06-.03-.1,0-.1.06Z"/>
              <path class="cls-15" d="m98,44.86v.49c0,.06.04.14.1.17l.11.06c.06.03.1,0,.1-.06v-.49c0-.06-.04-.14-.1-.17l-.11-.06c-.05-.03-.1,0-.1.06Z"/>
              <path class="cls-21" d="m98.51,45.15v.49c0,.06.04.14.1.17l.11.06c.06.03.1,0,.1-.06v-.49c0-.06-.04-.14-.1-.17l-.11-.06c-.05-.03-.1,0-.1.06Z"/>
              <path class="cls-15" d="m99.01,45.44v.49c0,.06.04.14.1.17l.11.06c.05.03.1,0,.1-.06v-.49c0-.06-.04-.14-.1-.17l-.11-.06c-.06-.03-.1,0-.1.06Z"/>
              <path class="cls-15" d="m99.51,45.73v.49c0,.06.04.14.1.17l.11.06c.06.03.1,0,.1-.06v-.49c0-.06-.04-.14-.1-.17l-.11-.06c-.05-.03-.1,0-.1.06Z"/>
              <path class="cls-15" d="m100.02,46.02v.49c0,.06.04.14.1.17l.11.06c.05.03.1,0,.1-.06v-.49c0-.06-.04-.14-.1-.17l-.11-.06c-.05-.03-.1,0-.1.06Z"/>
              <path class="cls-15" d="m100.52,46.31v.49c0,.06.04.14.1.17l.11.06c.05.03.1,0,.1-.06v-.49c0-.06-.04-.14-.1-.17l-.11-.06c-.06-.03-.1,0-.1.06Z"/>
              <path class="cls-15" d="m101.02,46.6v.49c0,.06.04.14.1.17l.11.06c.06.03.1,0,.1-.06v-.49c0-.06-.04-.14-.1-.17l-.11-.06c-.05-.03-.1,0-.1.06Z"/>
              <path class="cls-21" d="m101.53,46.89v.49c0,.06.04.14.1.17l.11.06c.05.03.1,0,.1-.06v-.49c0-.06-.04-.14-.1-.17l-.11-.06c-.06-.03-.1,0-.1.06Z"/>
              <path class="cls-15" d="m102.03,47.18v.49c0,.06.04.14.1.17l.11.06c.05.03.1,0,.1-.06v-.49c0-.06-.04-.14-.1-.17l-.11-.06c-.06-.03-.1,0-.1.06Z"/>
            </g>
          </g>
          <g>
            <path class="cls-21" d="m103.71,47.39l.23-.13h0s0,0,0,0h0c.08-.04.19-.04.3.03.24.14.43.47.43.75,0,.14-.05.23-.13.28h0s0,0,0,0h0s-.21.12-.21.12l-.04-.06s-.08-.02-.12-.05c-.24-.14-.43-.47-.43-.75,0-.04,0-.08.01-.11l-.05-.08Z"/>
            <path class="cls-22" d="m103.71,47.39l.23-.13h0s0,0,0,0h0c.08-.04.19-.04.3.03.24.14.43.47.43.75,0,.14-.05.23-.13.28h0s0,0,0,0h0s-.21.12-.21.12l-.04-.06s-.08-.02-.12-.05c-.24-.14-.43-.47-.43-.75,0-.04,0-.08.01-.11l-.05-.08Z"/>
            <path class="cls-21" d="m104.03,47.41c.24.14.43.47.43.75s-.19.39-.43.25c-.24-.14-.43-.47-.43-.75,0-.28.19-.39.43-.25Z"/>
          </g>
          <g>
            <path class="cls-21" d="m105.59,48.47l.23-.13h0s0,0,0,0h0c.08-.04.19-.04.3.03.24.14.43.47.43.75,0,.14-.05.23-.13.28h0s0,0,0,0h0s-.21.12-.21.12l-.04-.06s-.08-.02-.12-.05c-.24-.14-.43-.47-.43-.75,0-.04,0-.08.01-.11l-.05-.08Z"/>
            <path class="cls-22" d="m105.59,48.47l.23-.13h0s0,0,0,0h0c.08-.04.19-.04.3.03.24.14.43.47.43.75,0,.14-.05.23-.13.28h0s0,0,0,0h0s-.21.12-.21.12l-.04-.06s-.08-.02-.12-.05c-.24-.14-.43-.47-.43-.75,0-.04,0-.08.01-.11l-.05-.08Z"/>
            <path class="cls-21" d="m105.9,48.49c.24.14.43.47.43.75,0,.28-.19.39-.43.25-.24-.14-.43-.47-.43-.75,0-.28.19-.39.43-.25Z"/>
          </g>
        </g>
      </g>
      <path id="Shadow-2" data-name="Shadow" class="cls-3" d="m112.86,88.91l27.56,15.91c.54.31,1.42.31,1.97,0l35.95-20.71c.54-.31.54-.82,0-1.13l-27.68-15.93c-.54-.31-1.42-.31-1.97,0l-35.83,20.72c-.54.31-.54.82,0,1.14Z"/>
      <g>
        <path id="Shadow-3" data-name="Shadow" class="cls-20" d="m119.76,84.32c3.07-1.77,8.04-1.77,11.11,0,2.6,1.5,3,3.79,1.19,5.54.1.03.2.07.29.12l9.69,5.6c.41.24.41.62,0,.86l-.61.35c-.41.24-1.07.22-1.47-.04l-9.03-5.91s-.07-.05-.1-.08c-3.07,1.75-8.02,1.75-11.08-.02-3.07-1.77-3.07-4.64,0-6.42Z"/>
        <g id="Magnifying_glass" data-name="Magnifying glass">
          <g>
            <path class="cls-21" d="m118.43,85.47v1.91c0,1.04.68,2.07,2.05,2.86,2.74,1.58,7.18,1.58,9.92,0,1.37-.79,2.05-1.83,2.05-2.86v-1.91h0c0-1.04-.68-2.07-2.05-2.86-2.74-1.58-7.18-1.58-9.92,0-1.37.79-2.05,1.83-2.05,2.86h0Zm13.35,0c0,.83-.61,1.64-1.71,2.28-1.22.71-2.86,1.1-4.62,1.1s-3.4-.39-4.62-1.1c-1.11-.64-1.71-1.45-1.71-2.28s.61-1.64,1.71-2.28c1.22-.71,2.86-1.1,4.62-1.1s3.4.39,4.62,1.1c1.11.64,1.71,1.45,1.71,2.28Z"/>
            <path class="cls-4" d="m125.67,89.52v1.91c-1.87.03-3.76-.36-5.19-1.18-1.37-.79-2.05-1.83-2.05-2.86v-1.91c0-.06,0-.13,0-.2-.09,1.1.59,2.22,2.05,3.06,1.43.82,3.32,1.22,5.19,1.18Z"/>
            <path class="cls-12" d="m130.41,82.61c-2.74-1.58-7.18-1.58-9.92,0-2.74,1.58-2.74,4.14,0,5.73,2.74,1.58,7.18,1.58,9.92,0,2.74-1.58,2.74-4.14,0-5.73Zm-.34,5.14c-1.22.71-2.86,1.1-4.62,1.1s-3.4-.39-4.62-1.1c-1.11-.64-1.71-1.45-1.71-2.28s.61-1.64,1.71-2.28c1.22-.71,2.86-1.1,4.62-1.1s3.4.39,4.62,1.1c1.11.64,1.71,1.45,1.71,2.28s-.61,1.64-1.71,2.28Z"/>
            <path class="cls-21" d="m131.78,85.47c0,.33-.09.65-.27.95-.28-.48-.77-.93-1.44-1.32-1.22-.71-2.86-1.1-4.62-1.1s-3.4.39-4.62,1.1c-.67.39-1.16.84-1.44,1.32-.18-.31-.27-.63-.27-.95,0-.83.61-1.64,1.72-2.28,1.22-.71,2.86-1.09,4.62-1.09s3.4.39,4.62,1.09c1.11.64,1.72,1.45,1.72,2.28Z"/>
            <path class="cls-9" d="m130.07,84.06c-1.22-.71-2.86-1.1-4.62-1.1s-3.4.39-4.62,1.1c-.91.53-1.49,1.17-1.66,1.84.17.67.75,1.32,1.66,1.84,1.22.71,2.86,1.1,4.62,1.1s3.4-.39,4.62-1.1c.91-.53,1.49-1.17,1.66-1.84-.17-.67-.75-1.32-1.66-1.84Z"/>
          </g>
          <g>
            <g>
              <path class="cls-14" d="m130.2,89.55c0-.31.22-.7.49-.85.13-.08.26-.09.35-.04h0s0,0,0,0h0s2.36,1.35,2.36,1.35c0,0,0,0,0,0h0s0,0,0,0c.09.05.14.16.14.32,0,.31-.22.7-.49.85-.14.08-.26.09-.35.04h0l-2.36-1.35h0c-.09-.05-.15-.16-.15-.32Z"/>
              <path class="cls-15" d="m130.34,89.87c-.09-.05-.15-.16-.15-.32,0-.12.03-.25.08-.37l3.04,1.74c-.08.11-.17.2-.27.26-.14.08-.26.09-.35.04l-2.36-1.35h0Z"/>
            </g>
            <path class="cls-11" d="m132.87,90.5h0s-.03.05-.05.08c.02-.03.03-.05.05-.08Z"/>
            <path class="cls-21" d="m141,95.2l-8.13-4.7c.11-.18.26-.34.42-.44.17-.1.33-.11.44-.05h0s0,0,0,0l7.83,4.18-.57,1Z"/>
            <path class="cls-12" d="m141,95.2l-8.13-4.7c.11-.18.26-.34.42-.44.17-.1.33-.11.44-.05h0s0,0,0,0l7.83,4.18-.57,1Z"/>
            <path class="cls-21" d="m141,95.2l-.6,1.06-7.56-4.67c-.12-.07-.19-.21-.19-.41,0-.12.02-.24.06-.36,0-.02.02-.05.03-.07.02-.06.05-.11.08-.17.02-.03.03-.05.05-.08l8.14,4.7Z"/>
            <path class="cls-4" d="m141,95.2l-.6,1.06-7.56-4.67c-.12-.07-.19-.21-.19-.41,0-.12.02-.24.06-.36,0-.02.02-.05.03-.07.02-.06.05-.11.08-.17.02-.03.03-.05.05-.08l8.14,4.7Z"/>
            <path class="cls-21" d="m140.99,96.2c.46-.27.83-.92.83-1.46,0-.54-.38-.75-.84-.48s-.83.92-.83,1.46c0,.53.38.75.84.48Z"/>
            <g class="cls-26">
              <path class="cls-11" d="m140.99,96.2c.46-.27.83-.92.83-1.46,0-.54-.38-.75-.84-.48s-.83.92-.83,1.46c0,.53.38.75.84.48Z"/>
            </g>
          </g>
        </g>
      </g>
      <g class="cls-25">
        <g>
          <g>
            <rect class="cls-6" x="-.58" y="-26.98" width="217.38" height="134" transform="translate(216.22 80.04) rotate(180)"/>
            <rect class="cls-8" x="-.58" y="-26.98" width="217.38" height="134" transform="translate(216.22 80.04) rotate(180)"/>
          </g>
          <g>
            <rect class="cls-6" x="-.58" y="-26.98" width="217.38" height="134" transform="translate(216.22 80.04) rotate(180)"/>
            <rect class="cls-8" x="-.58" y="-26.98" width="217.38" height="134" transform="translate(216.22 80.04) rotate(180)"/>
          </g>
          <g>
            <rect class="cls-6" x="-.58" y="-26.98" width="217.38" height="134" transform="translate(216.22 80.04) rotate(180)"/>
            <rect class="cls-8" x="-.58" y="-26.98" width="217.38" height="134" transform="translate(216.22 80.04) rotate(180)"/>
          </g>
          <g>
            <rect class="cls-6" x="-.58" y="-26.98" width="217.38" height="134" transform="translate(216.22 80.04) rotate(180)"/>
            <rect class="cls-8" x="-.58" y="-26.98" width="217.38" height="134" transform="translate(216.22 80.04) rotate(180)"/>
          </g>
        </g>
      </g>
      <g>
        <g>
          <path class="cls-18" d="m152.58,60.6c.33-6.62-.17-8.22-1.9-9.48l-.77,3.82s.7,4.54.58,6.05c-.11,1.32-.27,2.98-.61,4.04-.06.19-.19.35-.36.45-.46.27-.64.56-.99.9-.27.27-.5.34-.47.42.04.11.23.3.55.21.16-.05.38-.17.65-.33,0,0-.2.55-.68,1.11-.65.76-.69,1.23.59,1.27.8.03,1.44-.45,2.08-2.19.18-.5.47-1.29.6-1.96.34-1.73.67-3.24.72-4.31Z"/>
          <path class="cls-21" d="m149.21,50.59c.84-.1,1.99.1,2.69,1.44.71,1.34.84,3.62.87,5.88,0,0-1.5,1.2-3.24.55l-.32-7.87Z"/>
          <path class="cls-7" d="m149.21,50.59c.84-.1,1.99.1,2.69,1.44.71,1.34.84,3.62.87,5.88,0,0-1.5,1.2-3.24.55l-.32-7.87Z"/>
        </g>
        <g>
          <g>
            <path class="cls-15" d="m150.83,85.28c.13.05.15.29.16.78,0,.36.07,1-.36,1.12-.43.12-1.05.04-1.32-.31-.33-.44-.55-.82-1.03-1.35-.41-.46-.86-.9-1.02-1.54-.14-.58,0-.82.39-.98.54-.22,1.37.55,1.79.68.36.11,1.25,1.56,1.38,1.61Z"/>
            <path class="cls-18" d="m150.84,84.83v.59s-.64.46-1.51,0c-.02-.06-.14-.85-.14-.85l1.64.25Z"/>
          </g>
          <g>
            <path class="cls-15" d="m145.97,88.58s.16.52.24.97c.06.36.16.96.02,1.22-.13.27-.62.43-1.38.41-.49-.01-1.26.3-1.79.58-.55.29-1.67.38-2.24.3-.67-.09-1.36-.5-1.46-.78-.1-.28.05-.57,1.65-1.21.01,0,2.22-.67,3.01-1.5h1.95Z"/>
            <path class="cls-18" d="m145.98,87.94s-.01.44-.02.69c0,.25-.31.62-1.07.57-.54-.03-.91-.18-.88-.63v-.64s1.97,0,1.97,0Z"/>
          </g>
          <g>
            <path class="cls-21" d="m151.4,77c-.23-1.94-.63-3.09-.63-3.09,0,0,.27-2.65.43-5.17.17-2.72.13-6.14.2-6.82,0,0-8.74-1.97-8.96,1.17-.23,3.14.1,11.16.17,12.54.07,1.38.28,2.61.52,4.86.23,2.22.9,7.45.9,7.45.99.56,1.95,0,1.95,0,0,0,.76-6.27.73-7.87-.04-1.95-.53-3.49-.53-3.49,0,0,.22-2.59.42-4.84.2-2.25.38-3.33.43-4.31l.19-.09s.1,3.89.18,5.28c.07,1.38.26,2.71.6,5.29.3,2.23,1.22,6.97,1.22,6.97.99.56,1.6-.03,1.6-.03,0,0,.79-5.9.56-7.84Z"/>
            <path class="cls-13" d="m151.4,77c-.23-1.94-.63-3.09-.63-3.09,0,0,.27-2.65.43-5.17.17-2.72.13-6.14.2-6.82,0,0-8.74-1.97-8.96,1.17-.23,3.14.1,11.16.17,12.54.07,1.38.28,2.61.52,4.86.23,2.22.9,7.45.9,7.45.99.56,1.95,0,1.95,0,0,0,.76-6.27.73-7.87-.04-1.95-.53-3.49-.53-3.49,0,0,.22-2.59.42-4.84.2-2.25.38-3.33.43-4.31l.19-.09s.1,3.89.18,5.28c.07,1.38.26,2.71.6,5.29.3,2.23,1.22,6.97,1.22,6.97.99.56,1.6-.03,1.6-.03,0,0,.79-5.9.56-7.84Z"/>
            <path class="cls-10" d="m147.04,67.43s2.15-1,3.24-1.92c0,0-1.02,1.37-2.33,1.96,0,0-.57,4.82-.57,4.73l-.16-4.77h-.18Z"/>
          </g>
        </g>
        <g>
          <g>
            <polygon class="cls-18" points="145.55 49.5 146.01 52.37 148.59 52.24 148.29 48.88 145.55 49.5"/>
            <path class="cls-15" d="m151.32,52.09c-.24-.78-1.21-1.65-2.2-1.49-.23.04-.45.08-.67.11-.12.48-1.36.86-2.62.56-.38.1-.73.2-1.05.31-.91.3-1.75,1.06-1.89,4.03,0,0-.46,6.92-.49,8.26,2.25.95,4.61.97,5.92.72,2.73-.53,3.08-1.65,3.08-1.65,0,0,.15-4.98.11-7.13-.03-1.83-.02-3.18-.19-3.72Z"/>
          </g>
          <g>
            <path class="cls-19" d="m143.64,45.98s-.68,1.03-.6,1.13c.08.1.58.19.58.19l.02-1.32Z"/>
            <path class="cls-15" d="m143.95,46.64c-.45,0-.81-.36-.81-.81s.36-.81.81-.81.81.36.81.81-.36.81-.81.81Zm0-1.44c-.35,0-.63.28-.63.63s.28.63.63.63.63-.28.63-.63-.28-.63-.63-.63Z"/>
            <path class="cls-18" d="m145.52,43.13c-1.37.29-1.77.89-1.9,3.07-.14,2.28.1,2.99.4,3.3.2.21,1.32.24,1.89.09.71-.2,2.31-.76,3.06-1.91.88-1.35,1.11-3.18.17-3.93-1.33-1.06-3.06-.75-3.62-.63Z"/>
            <path class="cls-19" d="m144.27,49.62c.33.08.88.09,1.31.04.34-.21.44-.5.44-.5,0,0-.26.36-1.75.47Z"/>
            <polygon class="cls-15" points="143.22 45.66 145.66 45.98 145.56 46.15 143.22 45.85 143.22 45.66"/>
          </g>
          <g>
            <path class="cls-15" d="m142.98,44.21c.2.31.45.58.78.75.34.18.68.19,1.07.56.11.11.28.33.33.48.02.04.31.43.32.37,0,0,.22-.84.93-.74.71.11.81,1.02.36,1.57-.45.55-.87.34-.87.34,0,0,.02,1.2.56,1.89,0,0,.61.2,1.72-.04.69-.15,1.66-1,2.06-1.91.86-1.92.92-3.65-.3-4.17-.13-.89-.83-1.28-1.62-1.46-.41-.1-.86-.06-1.28-.02-.48.05-.97,0-1.43-.13-.25-.08-.5-.18-.76-.16-.26.02-.53.24-.49.5-.41-.28-.99-.27-1.39.03-.49.36-.5.91-.32,1.45.08.24.19.48.33.7Z"/>
            <path class="cls-15" d="m149.96,43.6l.82-.48c-.13-.23-.43-.3-.65-.17-.23.13-.3.43-.17.65Z"/>
            <path class="cls-15" d="m145.47,46.84l.03-.95c-.26,0-.48.2-.49.46,0,.26.2.48.46.49Z"/>
          </g>
          <g>
            <path class="cls-18" d="m144.64,52.15c-1.73-1.17-5.15-3.69-5.56-3.94-.57-.35-1.46-.43-2-.15-.5.27-.22.94.75,2.09.94,1.11,5.03,5.28,5.03,5.28l1.78-3.28Z"/>
            <path class="cls-21" d="m144.74,51.74c-1.2-.76-3.67-2.3-3.67-2.3,0,0-1.7,1.23-1.31,3.28,0,0,2.48,2.37,3.23,2.98.5.41,1.95-.22,2.15-1.68.25-1.78-.4-2.28-.4-2.28Z"/>
            <path class="cls-7" d="m144.74,51.74c-1.2-.76-3.67-2.3-3.67-2.3,0,0-1.7,1.23-1.31,3.28,0,0,2.48,2.37,3.23,2.98.5.41,1.95-.22,2.15-1.68.25-1.78-.4-2.28-.4-2.28Z"/>
            <path class="cls-18" d="m136.88,48.45c.13-.95,3.05-2.96,4.05-3.58.45-.28.87-.59,1.25-.96.15-.15.29-.31.44-.46.16-.16.28-.35.45-.51.22-.2.46-.4.73-.53.49-.24,1.07-.23,1.6-.11.13.03.25.06.38.08.27.03.58,0,.79.17.04.04.08.08.08.14,0,.09-.09.14-.16.18-.61.3-1.34.4-1.85.85-.04.03-.28.35-.15.38.11.03.58-.15,1.06-.13.58.02.2.35,0,.47-.21.12-.5.26-1.01.39-.54.13-1.01.19-1.37.43-.36.24-3.6,3.51-3.6,3.51l-2.67-.31Z"/>
          </g>
        </g>
      </g>
    </g>
  </g>
</svg>