<?xml version="1.0" encoding="UTF-8"?><svg id="Layer_1" xmlns="http://www.w3.org/2000/svg" viewBox="0 0 200 200"><defs><style>.cls-1{fill:#fd191a;}</style></defs><g id="J0jP24.tif"><path class="cls-1" d="m161.14,156.59c-1.87-.16-3.78-.14-5.61-.52-4.31-.89-6.74-3.75-6.77-8.13-.08-10.82-.02-21.64-.01-32.45,0-.08.03-.15.09-.4,2.27-.4,4.6-.81,7.19-1.27,0,1.26,0,2.39,0,3.51-.02,5.74-.05,11.49-.05,17.23,0,4.21.04,8.42.05,12.63.01,2.75.75,3.63,3.48,4.06.54.09,1.09.1,1.63.15v5.19Z"/><path class="cls-1" d="m129.81,185.15c-1.86-.76-2.12-1.09-2.05-2.76.52-.06,1.05-.12,1.59-.18,2.09-.23,2.9-1.79,1.94-3.64-1.84-3.53-3.22-7.23-4.07-11.12,2.26-.75,3.24-.15,3.84,2.02.63,2.28,1.44,4.51,2.17,6.76.21,0,.43,0,.64,0,.85-2.94,1.69-5.89,2.57-8.94-.05.02.05-.05.16-.05,2.47-.15,3.15.52,2.33,2.84-1.35,3.85-2.87,7.64-4.43,11.4-.74,1.78-1.98,3.21-3.99,3.69h-.71Z"/><path class="cls-1" d="m117.18,15.13c4.74.05,9.29.95,13.52,3.14,7.97,4.14,11.6,10.95,11.83,19.74.17,6.33-1.65,12.17-4.47,17.77-4.69,9.3-11.68,16.59-19.87,22.82-5.38,4.09-10.91,7.97-17.07,10.83-2.97,1.38-6.09,2.19-9.38,2.53-6.68.68-10.64-5.8-9.51-10.7,1.29-5.57,3.62-10.65,8.07-14.47,2.77-2.37,5.96-3.43,9.61-2.72.64.12,1.28.39,1.86.7,2.48,1.34,3.13,3.69,1.4,5.91-1.71,2.19-3.7,4.16-5.54,6.25-2.1,2.38-4.21,4.76-6.21,7.22-.55.67-.84,1.6-1.06,2.46-.4,1.56.44,2.75,2.04,2.69,1.3-.05,2.64-.39,3.87-.85,4-1.48,7.61-3.71,11.05-6.22,6.14-4.48,12.01-9.27,16.77-15.27,3.79-4.78,6.69-10.03,7.47-16.17.26-2.09.08-4.36-.45-6.4-1.28-4.96-4.96-7.09-10.15-6.25-3.83.62-7.21,2.36-10.51,4.29-8.1,4.75-16,9.8-23.38,15.65-2.75,2.17-5.69,4.07-9.07,5.15-5.95,1.91-11.65-.68-13.68-6.22-1.07-2.92-.46-5.76.63-8.5,1.78-4.5,4.65-8.3,7.98-11.72,9.71-9.95,21.4-16.62,34.72-20.4,3.06-.87,6.32-1.05,9.49-1.55.01.09.03.19.04.28Z"/><path class="cls-1" d="m57.56,134.66c.42-3.74-1.63-6.06-5.33-6.14-2.38-.05-4.54.8-6.67,1.71-.57.24-1.14.5-1.82.79-.7-1.72-1.38-3.37-2.09-5.11,4.16-2.36,8.47-3.63,13.21-3.3,2.56.18,4.81,1.11,6.7,2.83,2.02,1.83,3.1,4.06,3.09,6.86-.03,5.46.03,10.93.11,16.39.02,1.5-.54,2.6-1.67,3.55-3.67,3.08-7.92,4.33-12.64,4.31-4.98-.02-8.45-2.45-10.55-6.8-3.1-6.44,1.12-14.02,8.2-14.82,2.33-.26,4.7-.2,7.05-.27.81-.02,1.62,0,2.42,0Zm-.24,5.71c-2.39.12-4.72.03-6.98.4-2.66.43-4.03,2.63-3.6,5.18.35,2.09,1.38,3.69,3.44,4.4,2.29.79,4.5.58,6.44-.97.37-.3.66-.92.67-1.4.07-2.43.03-4.86.03-7.6Z"/><path class="cls-1" d="m126.3,140.37c.16,2.93.65,5.53,2.34,7.74,1.95,2.55,4.62,3.18,7.58,2.47,2.12-.51,4.16-1.34,6.37-2.07.67,1.41,1.38,2.92,2.14,4.51-2.6,1.67-5.36,2.73-8.31,3.27-2.34.43-4.69.46-7.01-.11-5.25-1.3-8.08-5.07-9.64-9.9-1.83-5.68-1.28-11.28,1.4-16.6,2.86-5.68,8.17-7.96,14.39-6.46,5.23,1.26,7.55,5.02,8.53,9.88.4,1.99.47,4.06.72,6.08.12.93-.21,1.23-1.15,1.22-5.22-.04-10.44-.02-15.67-.02-.5,0-1,0-1.68,0Zm11-5.58c-.43-1.39-.69-2.62-1.19-3.75-.94-2.13-3.01-3.01-5.27-2.39-2.28.63-3.93,3.2-3.88,6.14h10.34Z"/><path class="cls-1" d="m111.54,128.85c-.05.45-.1.68-.1.9,0,5.74-.04,11.48,0,17.22.03,3.1.75,3.82,3.83,4.25.38.05.76.15,1.19.23v4.84c-3.29.19-6.46.12-9.26-1.86-2.25-1.59-3.19-3.89-3.21-6.52-.05-10.82-.02-21.63,0-32.45,0-.08.04-.15.1-.41,2.34-.36,4.76-.74,7.35-1.14,0,1.64,0,3.12,0,4.61,0,1.18.08,2.36.05,3.54-.02.84.31,1.1,1.11,1.07,1.17-.05,2.34-.01,3.59-.01v5.74h-4.65Z"/><path class="cls-1" d="m101.73,122.78c-.98,2.11-1.83,4-2.77,5.84-.14.26-.8.37-1.21.35-2.42-.11-4.76.18-7.02,1.12-.82.34-1.07.81-1.07,1.69.03,7.67,0,15.33.04,23,0,1.06-.28,1.31-1.34,1.23-1.68-.12-3.37-.06-5.05.02-.79.04-1.02-.19-1.02-.97.01-8.06-.01-16.12-.02-24.17,0-1.32.45-2.43,1.46-3.34,5.1-4.57,11.05-5.9,18-4.76Z"/><path class="cls-1" d="m70.01,155.95c-.02-.46-.05-.88-.05-1.3,0-9.64.01-19.27-.02-28.91,0-1.01.22-1.45,1.31-1.55,1.87-.17,3.72-.54,5.73-.84.04.57.12,1.09.12,1.61,0,9.32,0,18.64,0,27.97,0,.39-.02.79,0,1.18.14,1.84.44,1.85-1.73,1.84-1.75,0-3.51,0-5.37,0Z"/><path class="cls-1" d="m81.16,180.52c-2.3.39-3.23-.36-3.26-2.58-.02-1.92,0-3.85-.12-5.77-.11-1.56-1.19-2.46-2.56-2.33-1.18.11-1.95.83-2.02,2.21-.11,2.27-.08,4.56-.1,6.84,0,.54,0,1.08,0,1.59-2.15.46-3.27-.39-3.31-2.4-.03-1.69.02-3.38-.02-5.07-.02-.62-.11-1.26-.34-1.83-.37-.94-1.19-1.35-2.16-1.33-1,.03-1.73.57-2.01,1.53-.19.67-.26,1.39-.27,2.09-.03,2.35-.01,4.7-.01,7.03-2.1.4-3.22-.46-3.25-2.46-.03-1.85-.05-3.7.02-5.54.08-2.33.92-4.29,3.25-5.13,2.35-.85,4.64-.78,6.5,1.24.07.08.18.13.35.24,1.42-1.85,3.33-2.24,5.48-1.76,2.13.48,3.67,2.09,3.81,4.41.18,3.01.04,6.03.04,9.04Z"/><path class="cls-1" d="m83.91,174c0-3.78,2.1-6.54,5.31-7.01,4.27-.62,7.34,1.9,7.63,6.26.32,4.89-2.91,8.16-7.55,7.63-3.26-.37-5.4-3.1-5.39-6.88Zm9.54-.19c-.08-.41-.14-1.21-.38-1.94-.53-1.64-2.17-2.4-3.79-1.85-1.41.48-2.13,2.18-1.92,4.53.17,1.95,1.05,3.12,2.55,3.36,2.14.35,3.51-1.09,3.54-4.1Z"/><path class="cls-1" d="m117.57,175.45c.66,2.88,4.06,3.54,7.7,1.6.43,1.42.03,2.72-1.22,3.24-2.54,1.05-5.07,1.04-7.37-.65-2.43-1.79-3.01-4.32-2.54-7.14.45-2.64,1.84-4.58,4.51-5.35,3.74-1.09,7.22,1.2,7.29,4.77.03,1.65-.61,2.7-2.22,2.99-1.8.32-3.66.34-5.49.49-.19.02-.39.03-.67.06Zm-.05-2.58c1.32,0,2.61.09,3.87-.05.5-.06,1.35-.66,1.33-.97-.04-.64-.41-1.47-.91-1.81-.91-.62-2.02-.57-2.99.06-.96.62-1.38,1.54-1.29,2.76Z"/><path class="cls-1" d="m111.31,180.59c-2.42.2-3.23-.53-3.25-2.78-.02-1.81.02-3.61-.1-5.41-.11-1.7-1.11-2.59-2.63-2.57-1.43.02-2.41,1.06-2.44,2.76-.05,2.62-.01,5.25-.01,7.85-2.01.58-3.33-.3-3.36-2.23-.04-1.88-.06-3.77,0-5.65.09-2.59,1.42-4.59,3.62-5.27,2.46-.76,4.9-.7,6.71,1.4.73.84,1.33,2.05,1.4,3.14.19,2.88.07,5.79.07,8.76Z"/><path class="cls-1" d="m73.27,120.19c-2.72,0-4.73-1.97-4.73-4.64,0-2.87,2-4.85,4.92-4.91,2.49-.04,4.7,2.21,4.7,4.78,0,2.78-2.03,4.76-4.89,4.77Z"/></g></svg>