<?xml version="1.0" encoding="UTF-8"?><svg id="Layer_1" xmlns="http://www.w3.org/2000/svg" viewBox="0 0 200 200"><defs><style>.cls-1{fill:none;stroke:#c1794b;stroke-miterlimit:2.61;stroke-width:1.72px;}.cls-2{fill:#6e1616;}.cls-2,.cls-3,.cls-4,.cls-5,.cls-6{fill-rule:evenodd;}.cls-3{fill:#e4001e;}.cls-4{fill:#c9df75;}.cls-5{fill:#7cbe31;}.cls-6{fill:#fff;}</style></defs><path class="cls-6" d="m59.41,70.56h14.46c4.6,0,8.36,3.76,8.36,8.36v24.04c0,4.6-3.76,8.36-8.36,8.36h-14.46c-4.6,0-8.36-3.76-8.36-8.36v-24.04c0-4.6,3.76-8.36,8.36-8.36h0Z"/><path class="cls-4" d="m59.41,70.56h14.46c4.6,0,8.36,3.76,8.36,8.36v24.04c0,4.6-3.76,8.36-8.36,8.36h-14.46c-4.6,0-8.36-3.76-8.36-8.36v-24.04c0-4.6,3.76-8.36,8.36-8.36h0Zm19.68,76.64h-24.91c-3.64,0-6.62-2.98-6.62-6.62v-72.99c0-3.64,2.98-6.62,6.62-6.62h24.91c.3,0,.59.02.87.06v-5.37c0-1.58,1.29-2.87,2.87-2.87h0c1.58,0,2.87,1.29,2.87,2.87v9.06c0,.4-.08.79-.23,1.13.15.56.23,1.14.23,1.74v72.99c0,3.64-2.98,6.62-6.62,6.62h0Z"/><path class="cls-5" d="m100.11,76.06c3.92-.56,6.94.53,7.14,6.71-.13,5.52-3.06,6.91-7.14,6.62v-13.33h0Zm-8.54-3.97l15.9-.06c5.8.74,8.47,5.07,8.23,11.38-.44,6.36-4.05,9.47-10.07,10.01l-5.77-.11.16,17.45h-8.45v-38.67h0Z"/><path class="cls-5" d="m130.46,71.61l10.06-.05-.08,4.32-7.88-.04c-4.55.84-3.53,5.7-3.75,9.2l10.61-.2.04,5.3-10.27-.11-.05,12.84c.4,3.33,2.15,5,5.11,5.2l5.65-.06,1.72.04-.05,4.01-1.76.07-10.73-.11c-3.7-.12-6.68-1.96-8.06-7.66l-.26-24.91c.15-5.11,3.52-7.61,9.71-7.84h0Z"/><path class="cls-5" d="m144.22,82.54c-.63-8.34,4.01-10.23,9.67-10.89,6.62-.39,10.77,2.37,11.58,9.41l-7.81-.02c-.49-3.55-3.26-4.92-5.79-3.23-3.6,4.41,7.64,12.17,11.01,15.04,5.83,4.61,4.84,17.39-4.14,19.75l-5.47.19c-5.56.13-8.87-3.38-9.83-9.89l7.87-.14c.43,2.78,1.61,4.51,4.13,4.39,3.92-.74,5-4.19,2.21-8.6-5.83-4.95-12.74-9.6-13.45-16.02h0Z"/><path class="cls-5" d="m5.85,70.35h8.27l.09,2.57c5-2.16,8.77-3.69,12.72-.13,7.06-3.33,12.4-2.95,15.05,3.23l.37,34.74h-8.34v-33.14c-.62-2.84-2.86-3.32-5.57-3.14v36.27h-8.54v-33.14c-.62-2.84-2.86-3.32-5.57-3.14v36.27H5.85v-40.41h0Z"/><path class="cls-5" d="m178.69,79.12c.28-2.28,1.02-3.19,3.53-3.44,2.54.07,3.44,1.53,3.61,3.79v6.18h-7.14v-6.53h0Zm-8.58,32.66h8.58v-21.34h7.14v21.34h8.32v-30.48c-.17-6.2-4.93-10.08-11.67-10.1-7.69-.07-12.08,3.58-12.37,9.75v30.83h0Z"/><path class="cls-2" d="m57.71,86.83c1.43,3.35,3.38,4.88,5.74,4.98-3.68,2.75-7.66,4.42-11.81,5.48-2.61-.17-5.1-.83-7.52-1.49,6.11-1.21,10.67-4.16,13.59-8.97h0Z"/><path class="cls-1" d="m57.71,86.83c1.43,3.35,3.38,4.88,5.74,4.98-3.68,2.75-7.66,4.42-11.81,5.48-2.61-.17-5.1-.83-7.52-1.49,6.11-1.21,10.67-4.16,13.59-8.97h0Z"/><path class="cls-3" d="m73.74,78.2l17.24,8.71c-8.78,11.56-23.59,11.86-39.37,10.36,10.55-2.6,17.85-9.04,22.12-19.07h0Z"/><path class="cls-1" d="m73.74,78.2l17.24,8.71c-8.78,11.56-23.59,11.86-39.37,10.36,10.55-2.6,17.85-9.04,22.12-19.07h0Z"/></svg>