<?xml version="1.0" encoding="UTF-8"?>
<svg id="Layer_1" data-name="Layer 1" xmlns="http://www.w3.org/2000/svg" viewBox="0 0 291.62 150">
  <defs>
    <style>
      .cls-1 {
        fill: #2abcee;
      }

      .cls-1, .cls-2, .cls-3 {
        stroke-width: 0px;
      }

      .cls-2 {
        fill: #e71e70;
      }

      .cls-3 {
        fill: #212751;
      }
    </style>
  </defs>
  <g>
    <path class="cls-1" d="M129.83,34.69h-8.01c-4.42,0-8.01,3.59-8.01,8.01v7.01h-7.01c-4.42,0-8.01,3.59-8.01,8.01v8.01h15.02v15.02h8.01c3.38,0,6.27-2.1,7.44-5.07.37-.91.56-1.9.56-2.94v-7.01h7.01c4.42,0,8.01-3.59,8.01-8.01v-8.01h-15.02v-15.02Z"/>
    <path class="cls-3" d="M238.74,1.26h-14.86c-7.79,0-14.09,6.31-14.09,14.09v98.35h28.65v-29.91c0-7.92,6.43-14.35,14.35-14.35h10.71c7.6,0,13.76-6.16,13.76-13.76v-14.38h-38.82c0-3.29,1.34-6.26,3.49-8.42s5.13-3.49,8.42-3.49h22.85c7.51,0,13.61-6.09,13.61-13.61V1.26h-48.06Z"/>
    <path class="cls-3" d="M181.59,41.72h-13.09v57.66c0,8.25,6.69,14.94,14.94,14.94h13.09v-57.66c0-8.25-6.69-14.94-14.94-14.94Z"/>
    <path class="cls-3" d="M182.67,2.49h-14.17v19.82c0,7.66,6.2,13.86,13.86,13.86h14.17v-19.82c0-7.66-6.2-13.86-13.86-13.86Z"/>
    <path class="cls-3" d="M129.27,18.02v8.91h-15.45V2.34h-13.43c-8.66,0-15.69,7.03-15.69,15.69v95.68h15.17c7.7,0,13.94-6.24,13.94-13.94v-9.16h15.45v23.1h15.17c7.7,0,13.94-6.24,13.94-13.94V2.34h-13.43c-8.66,0-15.69,7.03-15.69,15.69ZM144.85,57.71c0,4.42-3.59,8.01-8.01,8.01h-7.01v7.01c0,1.04-.2,2.04-.56,2.94-1.17,2.97-4.06,5.07-7.44,5.07h-8.01v-15.02h-15.02v-8.01c0-4.42,3.59-8.01,8.01-8.01h7.01v-7.01c0-4.42,3.59-8.01,8.01-8.01h8.01v15.02h15.02v8.01Z"/>
    <path class="cls-3" d="M61.29,8.24h-12.84c-.76,0-1.51.02-2.26.05v.36h-3.95c-4.03.54-7.9,1.6-11.53,3.11C15.52,18.07,4.4,32.24,2.45,49.2v48.18c0,9.36,7.58,16.94,16.94,16.94h12.01v-.31h-.31v-63.15c0-.74.11-1.46.31-2.14.92-3.1,3.79-5.36,7.19-5.36,4.14,0,7.5,3.35,7.5,7.5v7.09h.1v39.95c0,9.07,7.36,16.43,16.43,16.43h12.53V22h-.1c0-7.6-6.16-13.76-13.76-13.76Z"/>
    <path class="cls-3" d="M29.56,9.11c-2.43-4.32-7.06-7.23-12.37-7.23H2.45v35.14c1.95-14.23,13.01-25.56,27.11-27.91Z"/>
  </g>
  <g>
    <path class="cls-2" d="M16.3,144.91h-2.89l-1.15-2.96h-5.25l-1.09,2.96h-2.82l5.12-13.01h2.81l5.26,13.01ZM11.41,139.77l-1.81-4.83-1.78,4.83h3.59Z"/>
    <path class="cls-2" d="M22.13,135.49h1.4v-.71c0-.79.09-1.38.26-1.78.17-.39.48-.71.94-.95s1.04-.37,1.73-.37,1.42.11,2.11.32l-.34,1.74c-.4-.09-.79-.14-1.16-.14s-.63.08-.78.25-.24.49-.24.97v.67h1.88v1.96h-1.88v7.47h-2.52v-7.47h-1.4v-1.96Z"/>
    <path class="cls-2" d="M33.7,135.49h2.68l2.28,6.69,2.22-6.69h2.61l-3.36,9.07-.6,1.64c-.22.55-.43.97-.63,1.26-.2.29-.43.53-.69.7-.26.18-.58.32-.96.42-.38.1-.81.15-1.29.15s-.96-.05-1.43-.15l-.22-1.95c.39.08.75.11,1.07.11.59,0,1.02-.17,1.3-.51.28-.34.5-.77.65-1.3l-3.62-9.45Z"/>
    <path class="cls-2" d="M52.53,138.36l-2.29-.41c.26-.91.7-1.59,1.33-2.02.63-.44,1.56-.66,2.8-.66,1.12,0,1.96.13,2.51.4.55.26.94.6,1.16,1,.22.41.34,1.15.34,2.23l-.03,2.91c0,.83.04,1.44.12,1.83.08.39.23.82.45,1.27h-2.49c-.07-.17-.15-.41-.24-.74-.04-.15-.07-.25-.09-.29-.43.41-.89.72-1.38.93s-1.01.31-1.57.31c-.98,0-1.75-.26-2.32-.79-.56-.53-.85-1.19-.85-2,0-.53.13-1.01.39-1.42s.62-.74,1.08-.96c.46-.22,1.13-.42,2-.58,1.18-.22,1.99-.42,2.45-.61v-.25c0-.48-.12-.82-.36-1.03-.24-.2-.69-.31-1.35-.31-.45,0-.8.09-1.05.26-.25.17-.45.48-.61.92ZM55.9,140.39c-.32.11-.83.23-1.53.38-.7.15-1.16.29-1.37.44-.33.23-.49.52-.49.88s.13.65.39.91.6.38,1,.38c.45,0,.89-.15,1.3-.44.3-.22.51-.5.6-.82.07-.21.1-.62.1-1.22v-.5Z"/>
    <path class="cls-2" d="M80.19,144.91v-5.48l-4.81-7.54h3.11l3.09,5.15,3.03-5.15h3.06l-4.83,7.55v5.46h-2.64Z"/>
    <path class="cls-2" d="M99.02,141.91l2.51.42c-.32.91-.83,1.61-1.53,2.08-.7.48-1.57.72-2.61.72-1.66,0-2.88-.54-3.68-1.61-.63-.86-.94-1.94-.94-3.25,0-1.56.41-2.79,1.24-3.67s1.87-1.33,3.13-1.33c1.42,0,2.53.46,3.35,1.39.82.93,1.21,2.35,1.18,4.26h-6.31c.02.74.22,1.32.61,1.73s.87.62,1.45.62c.39,0,.73-.11,1-.32s.47-.56.61-1.03ZM99.16,139.39c-.02-.72-.21-1.27-.56-1.65-.36-.38-.8-.56-1.31-.56-.55,0-1,.2-1.36.59s-.54.94-.53,1.62h3.77Z"/>
    <path class="cls-2" d="M113.63,135.49v1.99h-1.72v3.8c0,.77.02,1.22.05,1.34.03.13.11.23.22.32s.26.12.43.12c.23,0,.57-.08,1.01-.24l.21,1.93c-.59.25-1.25.37-1.99.37-.45,0-.86-.08-1.23-.23-.36-.15-.63-.35-.8-.59-.17-.24-.29-.56-.35-.97-.05-.29-.08-.88-.08-1.76v-4.11h-1.16v-1.99h1.16v-1.87l2.53-1.46v3.33h1.72Z"/>
    <path class="cls-2" d="M127.19,144.91v-1.41c-.35.5-.8.9-1.37,1.19-.56.29-1.16.44-1.79.44s-1.21-.14-1.72-.42c-.51-.28-.88-.67-1.1-1.17-.23-.5-.34-1.2-.34-2.09v-5.97h2.52v4.33c0,1.33.05,2.14.14,2.44.09.3.26.54.51.71s.56.26.93.26c.43,0,.82-.12,1.16-.35.34-.23.57-.52.7-.87.13-.35.19-1.19.19-2.54v-3.98h2.52v9.43h-2.34Z"/>
    <path class="cls-2" d="M137.62,142.42h2.52v1.78c0,.72-.06,1.29-.19,1.71-.13.42-.36.79-.71,1.12s-.79.59-1.33.78l-.49-1.03c.51-.17.87-.39,1.08-.68.22-.29.33-.69.34-1.19h-1.22v-2.49Z"/>
    <path class="cls-1" d="M159,131.9h5.25c1.04,0,1.82.04,2.33.13.51.09.97.27,1.37.54.4.27.74.63,1.01,1.09s.4.96.4,1.52c0,.61-.17,1.17-.5,1.68-.33.51-.78.89-1.35,1.15.8.23,1.42.62,1.85,1.18.43.56.65,1.21.65,1.96,0,.59-.14,1.17-.42,1.73-.28.56-.66,1.01-1.14,1.34-.48.33-1.07.54-1.78.62-.44.05-1.51.08-3.2.09h-4.47v-13.01ZM161.65,134.07v3.01h1.74c1.03,0,1.68-.01,1.93-.04.45-.05.81-.21,1.07-.47.26-.26.39-.6.39-1.02s-.11-.73-.34-.98c-.22-.25-.56-.4-1-.46-.26-.03-1.02-.04-2.27-.04h-1.52ZM161.65,139.24v3.48h2.46c.96,0,1.56-.03,1.82-.08.39-.07.72-.24.96-.52.25-.27.37-.64.37-1.1,0-.39-.1-.72-.29-.99-.19-.27-.47-.47-.83-.59s-1.15-.19-2.35-.19h-2.14Z"/>
    <path class="cls-1" d="M177.78,134.21v-2.31h2.52v2.31h-2.52ZM177.78,144.91v-9.43h2.52v9.43h-2.52Z"/>
    <path class="cls-1" d="M188.24,135.49h2.32v1.29c.83-1,1.82-1.5,2.97-1.5.61,0,1.14.13,1.59.37.45.25.82.62,1.1,1.13.42-.5.87-.88,1.35-1.13s1-.37,1.55-.37c.7,0,1.29.14,1.78.42.48.28.85.69,1.08,1.24.17.4.26,1.05.26,1.95v6.03h-2.52v-5.39c0-.94-.09-1.54-.26-1.81-.23-.36-.59-.53-1.08-.53-.35,0-.69.11-1,.32-.31.21-.54.53-.67.94-.14.41-.21,1.06-.21,1.95v4.53h-2.52v-5.17c0-.92-.04-1.51-.13-1.78-.09-.27-.23-.46-.42-.59-.19-.13-.44-.2-.77-.2-.39,0-.74.1-1.05.31-.31.21-.53.51-.67.9s-.2,1.04-.2,1.94v4.58h-2.52v-9.43Z"/>
    <path class="cls-1" d="M212.18,138.36l-2.29-.41c.26-.91.7-1.59,1.33-2.02.63-.44,1.56-.66,2.8-.66,1.12,0,1.96.13,2.51.4.55.26.94.6,1.16,1,.22.41.34,1.15.34,2.23l-.03,2.91c0,.83.04,1.44.12,1.83.08.39.23.82.45,1.27h-2.49c-.07-.17-.15-.41-.24-.74-.04-.15-.07-.25-.09-.29-.43.41-.89.72-1.38.93s-1.01.31-1.57.31c-.98,0-1.75-.26-2.32-.79-.56-.53-.85-1.19-.85-2,0-.53.13-1.01.39-1.42s.62-.74,1.08-.96c.46-.22,1.13-.42,2-.58,1.18-.22,1.99-.42,2.45-.61v-.25c0-.48-.12-.82-.36-1.03-.24-.2-.69-.31-1.35-.31-.45,0-.8.09-1.05.26-.25.17-.45.48-.61.92ZM215.55,140.39c-.32.11-.83.23-1.53.38-.7.15-1.16.29-1.37.44-.33.23-.49.52-.49.88s.13.65.39.91.6.38,1,.38c.45,0,.89-.15,1.3-.44.3-.22.51-.5.6-.82.07-.21.1-.62.1-1.22v-.5Z"/>
    <path class="cls-1" d="M239.84,144.91v-5.48l-4.81-7.54h3.11l3.09,5.15,3.03-5.15h3.06l-4.83,7.55v5.46h-2.64Z"/>
    <path class="cls-1" d="M258.66,141.91l2.51.42c-.32.91-.83,1.61-1.53,2.08-.7.48-1.57.72-2.61.72-1.66,0-2.88-.54-3.68-1.61-.63-.86-.94-1.94-.94-3.25,0-1.56.41-2.79,1.24-3.67s1.87-1.33,3.13-1.33c1.42,0,2.53.46,3.35,1.39.82.93,1.21,2.35,1.18,4.26h-6.31c.02.74.22,1.32.61,1.73s.87.62,1.45.62c.39,0,.73-.11,1-.32s.47-.56.61-1.03ZM258.8,139.39c-.02-.72-.21-1.27-.56-1.65-.36-.38-.8-.56-1.31-.56-.55,0-1,.2-1.36.59s-.54.94-.53,1.62h3.77Z"/>
    <path class="cls-1" d="M273.27,135.49v1.99h-1.72v3.8c0,.77.02,1.22.05,1.34.03.13.11.23.22.32s.26.12.43.12c.23,0,.57-.08,1.01-.24l.21,1.93c-.59.25-1.25.37-1.99.37-.45,0-.86-.08-1.23-.23-.36-.15-.63-.35-.8-.59-.17-.24-.29-.56-.35-.97-.05-.29-.08-.88-.08-1.76v-4.11h-1.16v-1.99h1.16v-1.87l2.53-1.46v3.33h1.72Z"/>
    <path class="cls-1" d="M286.83,144.91v-1.41c-.35.5-.8.9-1.37,1.19-.56.29-1.16.44-1.79.44s-1.21-.14-1.72-.42c-.51-.28-.88-.67-1.1-1.17-.23-.5-.34-1.2-.34-2.09v-5.97h2.52v4.33c0,1.33.05,2.14.14,2.44.09.3.26.54.51.71s.56.26.93.26c.43,0,.82-.12,1.16-.35.34-.23.57-.52.7-.87.13-.35.19-1.19.19-2.54v-3.98h2.52v9.43h-2.34Z"/>
  </g>
</svg>