<?xml version="1.0" encoding="UTF-8"?><svg id="Layer_1" xmlns="http://www.w3.org/2000/svg" viewBox="0 0 200 200"><defs><style>.cls-1{fill:#6f6462;}</style></defs><path class="cls-1" d="m99.48,19.95c-43.86.28-79.53,36.19-79.53,80.04s35.91,80.06,80.05,80.07c44.14,0,80.05-35.92,80.05-80.07S144.38,20.23,100.52,19.95h-1.04Zm-52.62,25.47c11.65-11.36,26.99-18.87,43.19-21.13,0,0,.91-.11,1.69-.2-.8.53-1.78,1.17-1.78,1.17-4.44,3.14-12.97,9.97-20.2,20.49,0,0-.04.06-.08.11h-23.27c.23-.22.46-.45.46-.45m27.84.03c6.69-8.94,14.21-15.08,19.33-18.67,0,0,3.1-2.04,4.2-2.75v21.84h-23.84c.15-.21.31-.42.31-.42m27.11-21.42c.67.44,4.21,2.76,4.21,2.76,5.12,3.58,12.64,9.72,19.33,18.66,0,0,.15.21.31.42h-23.84v-21.84Zm28.47,21.72c-5.23-7.62-12.03-14.54-20.2-20.57-.01,0-.8-.51-1.49-.95.76.1,1.56.21,1.56.21,16.32,2.19,31.19,9.45,43.02,20.98,0,0,.23.22.46.45h-23.28c-.04-.06-.08-.11-.08-.11m-63.06,3.95c-.12.19-.23.39-.23.39-4.15,6.98-7.06,14.44-8.66,22.18,0,0-.02.1-.04.21h-29.33c.07-.18.14-.36.14-.36,3.21-8.17,7.8-15.69,13.63-22.34,0,0,.04-.04.08-.09h24.42Zm31.01,0v22.78h-36.03c.03-.16.07-.32.07-.32,1.7-7.8,4.86-15.32,9.4-22.35,0,0,.04-.06.08-.12h26.49Zm30.07,0c.04.06.08.12.08.12,4.54,7.02,7.7,14.54,9.4,22.35,0,0,.03.16.07.32h-36.04v-22.78h26.49Zm28.94,0s.08.09.08.09c5.83,6.65,10.41,14.17,13.62,22.34,0,0,.07.18.14.36h-29.33c-.02-.1-.05-.21-.05-.21-1.59-7.73-4.51-15.2-8.65-22.18,0,0-.12-.2-.23-.39h24.42Zm15.21,26.62c.03.09.06.18.06.18,2.45,7.55,3.71,15.46,3.72,23.49-.01,8.07-1.28,16.02-3.76,23.61,0,0-.03.09-.05.18H27.6c-.03-.09-.06-.18-.06-.18-2.48-7.59-3.74-15.53-3.76-23.61.01-8.03,1.27-15.93,3.72-23.49,0,0,.03-.09.06-.18h144.88Zm-114.17,51.07c.02.1.04.21.04.21,1.6,7.73,4.51,15.2,8.66,22.18,0,0,.12.2.23.39h-24.42s-.08-.09-.08-.09c-5.83-6.65-10.41-14.16-13.63-22.34,0,0-.07-.18-.14-.35h29.33Zm39.94,0v22.78h-26.49c-.04-.06-.08-.12-.08-.12-4.54-7.03-7.7-14.55-9.4-22.35,0,0-.04-.16-.07-.31h36.03Zm39.62,0c-.04.15-.07.31-.07.31-1.7,7.81-4.86,15.32-9.4,22.35,0,0-.04.05-.08.12h-26.49v-22.78h36.04Zm33.23,0c-.07.18-.14.35-.14.35-3.22,8.17-7.8,15.69-13.62,22.34,0,0-.04.04-.08.09h-24.42c.12-.19.23-.39.23-.39,4.15-6.98,7.06-14.44,8.65-22.18,0,0,.02-.1.05-.21h29.33Zm-101.4,26.61c.04.05.08.11.08.11,5.24,7.62,12.04,14.55,20.2,20.57,0,0,.8.51,1.49.95-.77-.1-1.56-.21-1.56-.21-16.31-2.19-31.19-9.45-43.02-20.98,0,0-.23-.23-.46-.45h23.27Zm28.55,0v21.84c-.67-.44-4.19-2.75-4.2-2.76-5.13-3.58-12.64-9.72-19.33-18.66,0,0-.16-.21-.31-.41h23.84Zm27.42,0c-.15.21-.31.41-.31.41-6.69,8.94-14.21,15.08-19.34,18.66,0,0-3.1,2.04-4.2,2.76v-21.84h23.84Zm27.98,0c-.23.22-.46.45-.46.45-11.65,11.36-26.99,18.86-43.19,21.12,0,0-.91.1-1.68.2.8-.52,1.79-1.17,1.79-1.17,4.43-3.13,12.96-9.96,20.19-20.49,0,0,.04-.06.08-.11h23.28Z"/><path class="cls-1" d="m115.38,83.69c-1.64.54-2.08,2.57-3.15,6.07l-5.83,20.23c-1.13,4.03-1.1,5.23-.45,6.1v.4s-9.75,0-9.75,0v-.4c1.53-.76,1.85-1.85,3.05-5.82l5.83-20.15c1.11-3.94,1.38-5.38.54-6.42v-.39h9.75s0,.38,0,.38Z"/><path class="cls-1" d="m32.47,108.03c.6,4.73,3.11,7.08,8.54,6.75,3.79-.23,5.71-2.93,5.73-5.8.02-2.37-1.45-4.37-4.13-6.28l-1.58-1.04c-3.31-2.32-6.27-4.78-6.24-8.97.04-5.95,4.9-9.7,11.39-9.99,1.89-.09,4.27.17,6.1.65.95.25,2.23.67,2.76.85l-1.53,5.81h-.44c-.83-3.55-2.35-5.54-7.27-5.14-3.45.28-5.08,3.05-5.1,5.42-.01,2.47,1.45,4.02,4.24,5.81l1.58.99c3.63,2.36,6.73,4.85,6.7,9.27-.04,6.6-5.22,10.75-12.83,10.76-4.38,0-8.44-1.47-9.96-2.82.06-.61.91-3.43,1.63-6.24l.41-.02Z"/><path class="cls-1" d="m143.98,83.3c-.45,1.31-1.25,3.83-1.9,5.83h-.39c-1.56-4.04-5.31-3.51-7.96-3.51h-.28c-1.84,0-2.35.41-2.81,2.13l-2.96,10.75h1c4.51,0,7.66.41,8.94-1.35h.4l-1.72,6.07h-.39c-.84-2.7-4.02-2.41-7.98-2.41h-.94l-2.66,9.15c-.97,3.41-1.3,5.17-.45,6.08v.43s-9.76.02-9.76.02v-.41c1.7-.66,2.05-2.19,3.18-6.01l5.86-20.33c1.07-3.69,1.27-5,.45-6.06v-.39s20.38,0,20.38,0Z"/><path class="cls-1" d="m170.71,83.31c-.65,1.88-1.21,3.74-1.93,5.83h-.4c-1.5-3.99-5.54-3.52-7.3-3.52h-.42l-7.03,24.4c-.94,3.62-1.32,5.14-.43,6.06v.41h-9.54v-.41c1.65-.78,2.03-2.45,3.1-6.11l7.06-24.34h-.7c-2.29,0-5.92-.35-8.59,3.52h-.44c.6-1.69,1.26-3.75,1.99-5.83h24.65Z"/><path class="cls-1" d="m100.94,83.71c-1.41,1-2.23,2.66-3.94,5.86-2.89,5.38-13.02,25.45-13.79,26.93h-3.66l-2.02-20.92h-.16l-11.34,20.92h-3.02l-2.79-26.72c-.35-3.13-.53-5.18-1.57-6.1v-.38h9.45v.38c-1.15,1.23-1.44,2.57-1.17,5.7l1.58,15.88h.1l11.83-21.67h2.66l2.05,21.71h.13c2.56-4.9,6.18-11.91,8.43-16.34,1.97-3.88,1.2-4.76.94-5.26v-.42h6.29s0,.42,0,.42Z"/></svg>