<?xml version="1.0" encoding="UTF-8"?>
<svg id="Layer_1" data-name="Layer 1" xmlns="http://www.w3.org/2000/svg" viewBox="0 0 300 300">
  <defs>
    <style>
      .cls-1 {
        stroke-width: 0px;
      }
    </style>
  </defs>
  <path class="cls-1" d="m35.68,149.45c0-35.11-.03-70.23.01-105.34.03-18.52,12.01-33.58,29.84-37.68,1.26-.29,2.6-.36,3.9-.36,38.87-.02,77.74,0,116.61-.07,2.38,0,4.15.73,5.71,2.37,23.26,24.4,46.51,48.79,69.77,73.18,1.9,2,2.8,4.31,2.8,7.12-.03,55.49.06,110.97-.06,166.46-.05,22.43-16.74,38.85-39.13,38.86-50.13.03-100.27.03-150.4,0-22.51-.01-39.03-16.62-39.04-39.19-.02-35.11,0-70.23,0-105.34ZM179.27,19.67c-1.1-.07-1.91-.18-2.73-.18-33.9,0-67.8-.04-101.69,0-15.04.02-25.17,10.25-25.18,25.39-.02,69.86-.02,139.72,0,209.59,0,15.4,10.17,25.52,25.63,25.53,49.77.02,99.53.02,149.3,0,15.57,0,25.73-10.19,25.74-25.75.01-52.4,0-104.79,0-157.19v-3.09c-13.3,0-26.16.01-39.02,0-19.08-.02-32-12.91-32.04-31.96-.03-13.05,0-26.1,0-39.16,0-1.01,0-2.02,0-3.19Zm14.21,10.75c-.16,1.05-.29,1.48-.29,1.9-.01,10.24-.19,20.48.05,30.71.24,10.4,6.99,16.85,17.41,16.96,9.11.1,18.22.03,27.33.01.68,0,1.37-.15,2.46-.28-15.71-16.5-31.11-32.67-46.96-49.3Z"/>
  <path class="cls-1" d="m156.89,126.3c0,1.68,0,2.67,0,3.66,0,23.76,0,47.51,0,71.27,0,4.42-2.37,7.4-6.08,7.81-3.64.4-6.94-1.98-7.6-5.59-.23-1.28-.24-2.61-.24-3.92-.01-23.1,0-46.2,0-69.3,0-1.08,0-2.16,0-3.23-.28-.14-.56-.28-.83-.42-.6.8-1.14,1.65-1.82,2.38-8.29,8.96-16.6,17.9-24.91,26.84-2.06,2.22-4.35,3.8-7.64,3.11-4.83-1.01-7.15-6.33-4.45-10.47.61-.93,1.42-1.75,2.18-2.57,12.73-13.68,25.47-27.35,38.22-41.01,4.22-4.52,8.08-4.59,12.23-.15,13.08,13.99,26.11,28.04,39.2,42.02,2.2,2.35,3.06,4.97,1.96,7.98-.94,2.58-2.99,4.03-5.72,4.39-2.83.38-4.8-1.11-6.59-3.04-8.43-9.08-16.88-18.15-25.33-27.22-.63-.68-1.32-1.31-2.57-2.54Z"/>
  <path class="cls-1" d="m150.1,231.99c18.5,0,36.99,0,55.49.02,1.3,0,2.66.02,3.88.4,3.14.99,5.08,4,4.83,7.12-.25,3.04-2.74,5.69-5.95,6.24-.73.13-1.49.17-2.24.17-37.37,0-74.73.01-112.1,0-4.64,0-7.76-2.35-8.22-6.04-.54-4.38,2.67-7.88,7.42-7.89,12.96-.04,25.91-.02,38.87-.02,6.01,0,12.02,0,18.03,0Z"/>
</svg>