<?xml version="1.0" encoding="UTF-8"?>
<svg id="Layer_1" data-name="Layer 1" xmlns="http://www.w3.org/2000/svg" viewBox="0 0 300 300">
  <defs>
    <style>
      .cls-1 {
        stroke-width: 0px;
      }
    </style>
  </defs>
  <path class="cls-1" d="m287,206.32c-1.76,4.51-5.06,6.04-9.84,6.02-34.34-.12-68.67-.07-103.01-.07h-3.48c0,1.34,0,2.38,0,3.42,0,12.31,0,24.62,0,36.92,0,6.78-2.78,9.53-9.61,9.53-46.2,0-92.4,0-138.59,0-6.61,0-9.44-2.83-9.44-9.42,0-14.36,0-28.72,0-43.08,0-.62-.03-1.25.02-1.87.2-2.31,1.82-3.93,3.92-3.97,2.1-.04,3.82,1.57,4.05,3.84.08.8.03,1.6.03,2.41,0,13.65,0,27.29,0,40.94,0,.96,0,1.92,0,3h141.39v-38.55c-.93.88-1.57,1.46-2.18,2.06-5.62,5.61-11.14,11.31-16.85,16.82-10.73,10.35-23.47,13.79-37.68,9.31-14.09-4.44-22.75-14.4-25.46-28.96-2.21-11.84.84-22.58,9.06-31.43,6.73-7.25,13.72-14.3,21.02-20.97,9.38-8.58,20.61-11.2,33.05-8.63.94.19,1.86.42,3.18.72-2.42-8.51-2.35-16.72.84-24.98H21.04c0,1.07,0,2.03,0,2.98,0,18.64,0,37.28,0,55.92,0,.89.08,1.81-.09,2.67-.41,2.11-1.81,3.33-3.92,3.33-2.11,0-3.51-1.22-3.92-3.33-.17-.86-.09-1.78-.09-2.67,0-30.23,0-60.47,0-90.7,0-6.84,2.73-9.6,9.5-9.6,34.43,0,68.85,0,103.28,0,1.05,0,2.1,0,3.55,0,0-1.28,0-2.32,0-3.35,0-12.31-.01-24.62,0-36.92,0-6.84,2.75-9.6,9.54-9.6,34.25,0,68.49,0,102.74,0,.8,0,1.61-.02,2.4.09,2.03.3,3.21,1.53,3.36,3.55.16,2.15-.88,3.64-2.99,4.13-1.11.26-2.3.24-3.45.24-33.27.01-66.53,0-99.8,0-1.15,0-2.29,0-3.6,0v25.1h141.24v-25.1c-5.16,0-10.21,0-15.27,0-1.07,0-2.16.03-3.19-.17-2.24-.43-3.44-1.88-3.29-4.17.15-2.14,1.43-3.57,3.59-3.59,6.6-.08,13.2-.16,19.79.1,3.53.14,5.33,2.84,6.57,5.87v162.14Zm-115.81-27.7c.41,4.48,1.23,8.73,1.06,12.94-.18,4.2-1.35,8.35-2.1,12.53h108.67v-124.48h-141.28v8.39c1.12,0,2.08,0,3.03,0,7.22,0,14.45-.03,21.67.01,5.23.03,8.25,3.04,8.41,8.3.05,1.55,0,3.09,0,5.29,1.57-1.49,2.58-2.45,3.59-3.41,13.63-12.8,34.38-13.58,48.93-1.85,14.42,11.63,18.58,32.73,8.25,48.16-7.94,11.86-18.39,21.88-30.07,30.12-9.05,6.39-19.6,6.92-30.18,4ZM21.25,96.12v25.1c1.27,0,2.33,0,3.39,0,30.22,0,60.43,0,90.65,0,11.5,0,23,.02,34.5-.04.94,0,2.14-.34,2.78-.97,2.98-2.94,5.82-6.02,8.67-9.08.53-.57,1.29-1.26,1.3-1.92.12-4.33.06-8.67.06-13.09H21.25Zm150.95,74.06c9.17,4.02,21.48,1.87,29.14-5.32,7.02-6.58,13.88-13.37,20.39-20.46,6.44-7,8.52-15.6,6.58-24.88-2.32-11.12-9.1-18.69-19.92-22.06-10.84-3.37-20.67-.9-28.91,6.91-6.34,6.01-12.5,12.22-18.52,18.55-2.11,2.22-3.91,4.9-5.26,7.66-3.46,7.08-3.76,14.44-.84,22.84,2.07-2.32,3.83-4.08,5.31-6.04.72-.95,1.34-2.3,1.29-3.44-.26-7.49,3.03-13.22,8.51-17.92,1.75-1.5,3.68-1.36,5.29.24,1.62,1.61,1.62,3.53.27,5.32-.86,1.13-2,2.04-2.91,3.13-1.78,2.15-3.05,4.51-2.92,7.51,8.33.68,12.59,5.17,13.16,13.28,3.31-.28,6-1.51,8.23-3.73,5.81-5.79,11.66-11.54,17.39-17.41,5.13-5.25,5.12-13.03.13-17.99-5.03-5-12.64-4.9-17.98.24-1.16,1.11-2.22,2.35-3.5,3.29-1.73,1.28-3.58,1.08-5.08-.47-1.51-1.55-1.69-3.49-.34-5.1,4.48-5.36,9.78-9.49,17.15-9.63,8.86-.17,15.46,3.8,19.46,11.69,3.74,7.37,2.47,16.48-3.29,22.65-5.59,5.99-11.56,11.64-17.3,17.5-4.68,4.78-10.23,7.29-16.99,6.98-.8-.04-1.82.21-2.39.71-2.06,1.82-3.97,3.8-6.15,5.93Zm-26.92-7.73c-11.33-3.36-21.2-1.85-29.51,5.73-7.24,6.6-14.13,13.62-20.79,20.81-6.47,6.98-8.62,15.57-6.72,24.85,2.27,11.12,9.03,18.74,19.84,22.15,10.81,3.42,20.69,1.06,28.95-6.75,6.61-6.25,13.17-12.59,19.21-19.37,2.93-3.29,5.16-7.49,6.75-11.64,2.23-5.84,1.85-11.95-.62-18.55-2.09,2.26-3.93,4.07-5.54,6.07-.64.79-1.09,2-1.07,3,.09,5.49-1.24,10.55-5.04,14.53-6.65,6.96-13.43,13.81-20.42,20.43-4.59,4.35-10.38,5.87-16.62,4.81-8.17-1.39-13.85-6.1-16.39-13.98-2.5-7.74-.84-14.85,4.85-20.75,5.76-5.97,11.73-11.73,17.55-17.64,4.64-4.7,10.14-7.11,16.79-6.8.8.04,1.83-.2,2.4-.71,2.06-1.83,3.96-3.83,6.37-6.2Zm-10.92,14.97c-3.28.19-5.9,1.41-8.06,3.55-6.14,6.09-12.3,12.17-18.34,18.36-4.99,5.11-4.9,12.88.03,17.79,4.87,4.84,12.52,5.01,17.58.12,6.29-6.07,12.4-12.31,18.55-18.52,2.13-2.15,3.37-4.74,3.45-8.01-8.1-.64-12.57-4.94-13.22-13.28Zm12.42,5.6c1.49-.97,2.8-1.55,3.76-2.49,3.91-3.77,7.71-7.66,11.55-11.5,3.65-3.65,7.35-7.26,10.94-10.98,2.57-2.66,1.9-6.35-1.24-7.37-2.13-.69-3.74.21-5.24,1.72-7.27,7.34-14.6,14.63-21.9,21.94-.5.5-1.26,1.01-1.36,1.6-.23,1.41-.59,3.09-.04,4.25.55,1.14,2.15,1.78,3.52,2.82Z"/>
  <path class="cls-1" d="m59.64,146.16c7.4,0,14.79,0,22.19,0,.89,0,1.8-.02,2.66.18,1.87.43,3.21,1.78,2.85,3.59-.28,1.42-1.44,2.85-2.58,3.85-.65.57-2.05.38-3.11.38-14.7.02-29.4.01-44.11.01-.53,0-1.07,0-1.6-.04-2.7-.25-4.31-1.89-4.19-4.22.12-2.24,1.71-3.71,4.36-3.73,7.84-.06,15.68-.02,23.52-.02Z"/>
  <path class="cls-1" d="m53.24,170.47c-5.52,0-11.03.02-16.55,0-3.1-.01-4.93-1.53-4.94-4,0-2.47,1.82-4.01,4.92-4.01,11.12-.02,22.25-.02,33.37,0,3.09,0,4.97,1.54,4.98,3.99,0,2.45-1.87,4.01-4.95,4.02-5.61.03-11.21,0-16.82,0Z"/>
  <path class="cls-1" d="m51.39,229.27c4.9,0,9.8-.02,14.69,0,3.01.02,4.7,1.43,4.76,3.86.06,2.54-1.69,4.13-4.79,4.14-9.8.03-19.59.03-29.39,0-3.11,0-4.92-1.56-4.91-4.05,0-2.49,1.79-3.94,4.95-3.96,4.9-.02,9.8,0,14.69,0Z"/>
  <path class="cls-1" d="m51.43,213.72c4.9,0,9.79-.02,14.69,0,3.02.02,4.68,1.42,4.72,3.88.04,2.45-1.65,4.1-4.56,4.12-9.97.05-19.94.05-29.92,0-2.91-.02-4.64-1.66-4.61-4.08.02-2.41,1.75-3.89,4.72-3.91,4.99-.03,9.97,0,14.96,0Z"/>
  <path class="cls-1" d="m152.1,54.78c2.22.01,3.85,1.61,3.9,3.82.05,2.27-1.73,4.12-3.95,4.11-2.19-.02-4.05-1.96-3.96-4.16.09-2.15,1.82-3.78,4.01-3.77Z"/>
  <path class="cls-1" d="m168.82,62.71c-2.19.07-4.08-1.79-4.08-4.02,0-2.18,1.65-3.85,3.85-3.91,2.22-.06,3.92,1.49,4.04,3.68.13,2.27-1.59,4.17-3.81,4.24Z"/>
  <path class="cls-1" d="m185.32,62.71c-2.21,0-4-1.89-3.93-4.14.07-2.2,1.73-3.8,3.94-3.79,2.21,0,3.87,1.61,3.94,3.8.07,2.24-1.74,4.13-3.95,4.13Z"/>
  <path class="cls-1" d="m239.74,186.96c7.66,0,15.33-.01,22.99,0,3.15,0,4.97,1.49,4.98,3.94.01,2.47-1.83,4.06-4.93,4.07-15.33.03-30.66.03-45.99,0-3.13,0-4.85-1.58-4.8-4.15.05-2.49,1.66-3.84,4.74-3.85,7.66-.03,15.33,0,22.99,0Z"/>
  <path class="cls-1" d="m246,179.2c-5.51,0-11.03.03-16.54,0-3.14-.02-4.98-1.51-5.01-3.93-.03-2.46,1.81-4.06,4.91-4.07,11.12-.03,22.24-.03,33.35,0,3.15,0,4.96,1.52,5,3.97.03,2.45-1.79,4.01-4.9,4.03-5.6.04-11.21.01-16.81.01Z"/>
  <path class="cls-1" d="m35.6,104.62c2.25-.06,4.14,1.75,4.13,3.96,0,2.08-1.8,3.93-3.88,4.01-2.19.08-4.11-1.8-4.11-4.02,0-2.14,1.71-3.89,3.85-3.95Z"/>
  <path class="cls-1" d="m56.35,108.59c-.02,2.21-1.96,4.09-4.14,4-2.11-.09-3.85-1.9-3.85-4.02,0-2.25,1.87-4.03,4.13-3.95,2.15.08,3.88,1.85,3.86,3.96Z"/>
  <path class="cls-1" d="m72.95,108.62c-.03,2.22-1.97,4.07-4.16,3.96-2.09-.1-3.84-1.96-3.83-4.05.02-2.22,1.92-4,4.18-3.91,2.14.08,3.83,1.86,3.81,4Z"/>
</svg>